<?xml version="1.0" encoding="utf-8"?>
<!-- Generator: Adobe Illustrator 17.0.0, SVG Export Plug-In . SVG Version: 6.00 Build 0)  -->
<!DOCTYPE svg PUBLIC "-//W3C//DTD SVG 1.1//EN" "http://www.w3.org/Graphics/SVG/1.1/DTD/svg11.dtd">
<svg version="1.1" id="Layer_1" xmlns="http://www.w3.org/2000/svg" xmlns:xlink="http://www.w3.org/1999/xlink" x="0px" y="0px"
	 width="43px" height="53px" viewBox="0 0 43 53" enable-background="new 0 0 43 53" xml:space="preserve">
<g>
	<path fill="#DEDEFC" d="M42.713,7.04v19.504c0,3.653-0.889,7.25-2.59,10.483c-1.701,3.233-4.163,6.005-7.174,8.076
		c-11.059,7.512-10.704,7.6-11.448,7.6c-0.766,0-0.285-0.016-11.449-7.6c-3.012-2.07-5.475-4.842-7.176-8.075
		c-1.701-3.233-2.589-6.831-2.588-10.484V6.905c0-0.612,0.667-1.228,1.383-1.17c10.905,0.785,16.898-3.319,18.972-5.114
		c0.238-0.206,0.542-0.319,0.857-0.319c0.315,0,0.619,0.113,0.857,0.319c2.069,1.801,8.05,5.893,18.961,5.114
		c0.179-0.013,0.359,0.011,0.528,0.071c0.169,0.06,0.324,0.154,0.455,0.276c0.131,0.122,0.235,0.271,0.306,0.435
		C42.678,6.683,42.714,6.861,42.713,7.04z"/>
	<path fill="#96B9FF" d="M41.302,5.503C30.483,6.276,24.554,2.223,22.509,0.445c-0.28-0.243-0.638-0.377-1.009-0.377
		c-0.371,0-0.729,0.134-1.009,0.377c-2.058,1.778-8,5.833-18.8,5.057c-0.86-0.076-1.634,0.684-1.634,1.402v19.642
		c-0.001,3.69,0.897,7.325,2.615,10.592s4.207,6.066,7.251,8.157c11.412,7.739,10.724,7.637,11.58,7.637
		c0.879,0,0.411-0.068,11.58-7.636c3.041-2.093,5.527-4.893,7.245-8.159c1.717-3.266,2.615-6.9,2.615-10.59V7.037
		c0.001-0.211-0.041-0.42-0.125-0.613c-0.083-0.194-0.206-0.368-0.36-0.512c-0.154-0.144-0.336-0.255-0.535-0.325
		C41.724,5.516,41.513,5.488,41.302,5.503z M42.48,26.546c-0.001,3.614-0.881,7.174-2.564,10.373
		c-1.683,3.199-4.119,5.942-7.097,7.993l-10.712,7.373c-0.179,0.12-0.39,0.184-0.606,0.184c-0.215,0-0.426-0.064-0.605-0.184
		l-10.713-7.37c-2.98-2.05-5.416-4.792-7.099-7.992c-1.683-3.199-2.562-6.76-2.562-10.374V6.905c0-0.439,0.497-0.946,1.052-0.946
		c0.026,0,0.053,0.006,0.079,0.006c10.971,0.788,17.046-3.35,19.144-5.17c0.195-0.17,0.446-0.263,0.705-0.263
		c0.259,0,0.509,0.093,0.705,0.263c2.085,1.818,8.119,5.956,19.131,5.17c0.147-0.011,0.295,0.009,0.434,0.058
		c0.139,0.049,0.266,0.126,0.374,0.227c0.107,0.101,0.193,0.223,0.251,0.358c0.058,0.135,0.087,0.281,0.086,0.429V26.546z"/>
</g>
<g>
	<rect x="21.047" y="21.599" fill="#3272F1" width="0.906" height="10"/>
	<rect x="16.5" y="21.599" fill="#3272F1" width="10" height="0.906"/>
	<rect x="16.5" y="17.895" fill="#3272F1" width="10" height="0.906"/>
	<circle fill="none" stroke="#96B9FF" stroke-miterlimit="10" cx="21.5" cy="23.924" r="13.42"/>
</g>
</svg>
