<svg width="314" height="313" viewBox="0 0 314 313" fill="none" xmlns="http://www.w3.org/2000/svg">
<g opacity="0.05">
<path d="M271.131 313.001C294.807 313.001 314 293.825 314 270.172C314 246.518 294.807 227.342 271.131 227.342C247.455 227.342 228.262 246.518 228.262 270.172C228.262 293.825 247.455 313.001 271.131 313.001Z" fill="#1C2844"/>
</g>
<path d="M281.559 68.1359V203.964C261.322 249.292 214.816 279.678 161.975 276.786C160.61 275.009 159.87 272.832 159.87 270.592V68.1403C159.87 65.4514 160.939 62.8726 162.842 60.971C164.744 59.0693 167.325 58.0005 170.016 57.9995H271.413C274.104 58.0005 276.684 59.0687 278.586 60.9694C280.489 62.8701 281.558 65.4478 281.559 68.1359Z" fill="white"/>
<path d="M247.821 57.9995L242.48 70.3392C242.127 71.1564 241.541 71.8524 240.796 72.3413C240.052 72.8303 239.18 73.0909 238.289 73.0911H203.151C202.26 73.0909 201.388 72.8303 200.643 72.3413C199.898 71.8524 199.313 71.1564 198.959 70.3392L193.615 57.9995H247.821Z" fill="white"/>
<path d="M90.6847 297.451H61.0475L53.9956 270.165L46.9547 297.451H14.8727C15.0684 284.946 15.4715 265.522 16.1615 254.224C16.3689 250.569 16.6216 247.776 16.8976 246.328L86.4391 242.892C86.9313 259.947 88.8379 280.506 90.6847 297.451Z" fill="#4B5C76"/>
<path d="M14.0204 251.359C18.7436 265.116 56.0198 238.227 87.5293 253.082C93.8823 256.073 83.5181 191.679 83.5181 191.679C89.6616 198.898 98.8092 210.03 105.133 214.248C106.477 215.161 107.737 215.79 108.857 216.042C119.8 218.488 142.673 201.878 151.622 195.172L142.826 177.923C143.62 177.608 131.497 182.426 115.962 188.594C115.962 188.594 114.387 186.495 111.873 183.201C105.301 174.544 92.3284 157.6 84.6726 148.303C81.9301 144.982 78.2348 142.58 74.0843 141.42L46.0433 137.918L18.0367 142.302C18.0367 142.302 5.18463 225.625 14.0204 251.359Z" fill="#4C91FF"/>
<path d="M141.957 179.891C142.275 182.299 144.58 188.456 147.311 192.454C148.028 191.899 154.316 187.024 155.177 186.966C168.278 186.123 171.388 179.395 171.388 179.395C180.605 176.022 181.737 173.048 181.082 172.173C179.94 170.665 171.537 173.84 171.11 173.996C181.539 168.014 181.39 165.315 179.473 165.036C177.793 164.808 169.153 169.452 167.059 170.581C177.557 164.587 181.461 161.501 179.007 159.656C176.792 157.978 164.238 166.641 163.526 167.137C164.072 166.651 171.778 159.715 168.452 157.046C166.466 155.448 153.832 169.36 153.832 169.36C153.832 169.36 157.427 159.876 152.302 159.695C146.972 159.517 146.363 177.676 146.363 177.676L141.957 179.891Z" fill="white"/>
<path d="M37.6479 139.235L50.5219 150.429L54.5834 139.235L54.8639 135.674C62.0362 133.845 62.9227 127.599 62.9461 120.192C62.9811 102.709 57.1553 104.193 50.0063 104.193C41.2268 104.193 35.1227 114.705 37.6304 124.885C37.6523 125.865 37.653 133.272 37.6479 139.235Z" fill="white"/>
<path d="M68.2804 101.884C68.2556 103.926 67.8269 106.02 67.2267 107.991C67.2138 108.004 67.2054 108.021 67.2026 108.04C65.5508 113.283 62.716 117.419 62.6335 117.56C62.6211 115.248 62.8781 112.885 61.8865 111.564C61.7638 111.555 52.3642 113.834 47.3096 107.048C45.3452 104.416 43.0939 104.976 41.6386 107.391C41.6353 107.391 41.6321 107.392 41.6298 107.395C41.6275 107.397 41.6262 107.4 41.6262 107.403C41.1734 108.125 40.8061 109.019 40.5484 110.009C40.5468 110.009 40.5452 110.01 40.5437 110.01C40.5422 110.011 40.5409 110.012 40.5398 110.013C40.5387 110.014 40.5379 110.016 40.5373 110.017C40.5368 110.019 40.5366 110.02 40.5367 110.022C39.7458 112.995 40.0627 116.376 41.2099 118.906L41.1245 118.955C40.3563 117.861 38.4628 117.204 36.7636 118.05V118.062C36.0234 118.446 35.4445 119.081 35.1306 119.853C34.8168 120.624 34.7886 121.483 35.0512 122.273L34.6714 122.481C34.6714 122.481 34.4633 122.335 34.1077 122.053H34.0953C31.8542 120.217 24.1371 113.107 32.6012 107.001C32.6012 107.001 28.547 101.579 31.6826 97.8347C33.4585 95.7299 38.3336 97.0146 38.3336 97.0146C38.3336 96.8067 38.3584 90.0518 41.5794 88.3264C44.531 86.76 49.3199 91.0549 49.3199 91.0549C49.3199 91.0549 57.7964 82.0974 61.1402 93.2436C61.3921 93.9987 61.5783 94.907 61.6915 95.4833C61.69 95.484 68.3534 93.4157 68.2804 101.884Z" fill="#1C2844"/>
<path d="M41.9358 119.415C41.5883 118.715 41.041 118.135 40.3631 117.746C39.6852 117.357 38.9072 117.178 38.1274 117.231C37.3475 117.284 36.601 117.567 35.9821 118.044C35.3632 118.521 34.8998 119.17 34.6504 119.911C34.401 120.651 34.3769 121.448 34.5811 122.202C34.7853 122.956 35.2086 123.632 35.7976 124.145C36.3865 124.659 37.1146 124.986 37.8898 125.086C38.665 125.186 39.4525 125.054 40.1526 124.707L41.9358 119.415Z" fill="white"/>
<path d="M54.8616 135.674C54.8616 135.674 51.7946 136.54 48.0361 134.516L54.8616 135.674Z" fill="white"/>
<path d="M146.704 259.206L88.7627 277.79C87.2269 278.282 85.5582 278.145 84.1235 277.408C82.6889 276.672 81.6059 275.396 81.1128 273.862L49.0439 174.067C48.5509 172.532 48.6881 170.865 49.4254 169.432C50.1627 167.998 51.4397 166.916 52.9755 166.424L110.917 147.84C112.452 147.348 114.121 147.485 115.556 148.222C116.99 148.958 118.073 150.234 118.566 151.769L150.633 251.564C151.126 253.098 150.99 254.765 150.253 256.198C149.516 257.631 148.239 258.713 146.704 259.206Z" fill="#DEDEFC"/>
<path d="M102.87 160.053L86.1304 165.422C85.2092 165.718 84.7022 166.704 84.9979 167.624L93.052 192.686C93.3478 193.607 94.3343 194.113 95.2555 193.818L111.995 188.448C112.916 188.153 113.423 187.167 113.127 186.247L105.073 161.184C104.778 160.264 103.791 159.758 102.87 160.053Z" fill="#4C91FF"/>
<path d="M107.658 169.246L87.5864 175.684L87.2775 174.722L93.3231 172.783L90.508 164.021L91.4705 163.713L94.2855 172.475L100.341 170.532L97.5256 161.771L98.488 161.462L101.303 170.224L107.349 168.285L107.658 169.246Z" fill="white"/>
<path d="M103.839 181.41L97.7781 183.352L100.59 192.107L99.6278 192.416L96.8157 183.661L90.773 185.599L90.4634 184.636L104.008 180.293C104.071 180.271 104.138 180.263 104.204 180.268C104.27 180.273 104.335 180.292 104.394 180.322C104.454 180.352 104.506 180.394 104.549 180.445C104.592 180.496 104.624 180.555 104.644 180.619L107.611 189.852L106.648 190.16L103.839 181.41Z" fill="white"/>
<path d="M77.8428 182.195L72.791 183.815C72.6479 183.861 72.4972 183.878 72.3474 183.866C72.1976 183.854 72.0517 183.812 71.918 183.743C71.7843 183.675 71.6655 183.581 71.5684 183.466C71.4712 183.351 71.3976 183.219 71.3517 183.076L67.5304 171.184C67.4378 170.895 67.4638 170.582 67.6025 170.312C67.7412 170.043 67.9813 169.839 68.2701 169.746L73.3219 168.126C73.6108 168.033 73.9247 168.059 74.1946 168.198C74.4645 168.336 74.6682 168.576 74.7612 168.865L78.5825 180.757C78.6284 180.9 78.6457 181.05 78.6334 181.2C78.6211 181.349 78.5794 181.495 78.5107 181.629C78.442 181.762 78.3477 181.881 78.2331 181.978C78.1185 182.075 77.9858 182.149 77.8428 182.195Z" fill="#4B5C76"/>
<path d="M84.4573 202.79L79.4055 204.41C79.1166 204.503 78.8027 204.477 78.5328 204.338C78.2629 204.199 78.0592 203.96 77.9662 203.671L74.1457 191.779C74.0529 191.491 74.0786 191.177 74.2172 190.907C74.3557 190.638 74.5958 190.434 74.8847 190.341L79.9371 188.721C80.0802 188.675 80.2308 188.658 80.3805 188.67C80.5303 188.682 80.6761 188.724 80.8097 188.793C80.9433 188.861 81.062 188.956 81.1591 189.07C81.2563 189.185 81.3298 189.317 81.3757 189.46L85.197 201.352C85.2429 201.495 85.2602 201.645 85.2479 201.795C85.2356 201.945 85.1939 202.09 85.1252 202.224C85.0565 202.357 84.9622 202.476 84.8476 202.573C84.733 202.67 84.6003 202.744 84.4573 202.79Z" fill="#4B5C76"/>
<path d="M86.56 209.311L81.5088 210.932C80.9071 211.125 80.5759 211.768 80.7691 212.369L84.5906 224.261C84.7837 224.862 85.4281 225.193 86.0298 225L91.081 223.38C91.6827 223.187 92.0139 222.543 91.8207 221.942L87.9993 210.05C87.8061 209.449 87.1617 209.118 86.56 209.311Z" fill="#4B5C76"/>
<path d="M93.178 229.906L88.1268 231.527C87.5251 231.72 87.194 232.363 87.3872 232.964L91.2086 244.856C91.4018 245.457 92.0462 245.788 92.6479 245.595L97.6991 243.975C98.3008 243.782 98.632 243.138 98.4388 242.537L94.6173 230.645C94.4241 230.044 93.7797 229.713 93.178 229.906Z" fill="#4B5C76"/>
<path d="M104.311 264.575L99.2591 266.195C99.116 266.241 98.9653 266.259 98.8155 266.246C98.6658 266.234 98.5199 266.192 98.3863 266.124C98.2526 266.055 98.1338 265.961 98.0366 265.846C97.9394 265.732 97.8657 265.599 97.8198 265.456L93.9985 253.565C93.9526 253.422 93.9353 253.271 93.9476 253.122C93.9599 252.972 94.0016 252.826 94.0703 252.693C94.139 252.559 94.2333 252.44 94.3479 252.343C94.4625 252.246 94.5951 252.173 94.7382 252.127L99.79 250.506C99.9331 250.46 100.084 250.443 100.234 250.456C100.383 250.468 100.529 250.509 100.663 250.578C100.796 250.647 100.915 250.741 101.012 250.855C101.11 250.97 101.183 251.102 101.229 251.245L105.051 263.137C105.143 263.426 105.117 263.739 104.979 264.009C104.84 264.279 104.6 264.482 104.311 264.575Z" fill="#4B5C76"/>
<path d="M275.448 68.0733C275.449 69.0204 275.169 69.9466 274.643 70.7345C274.117 71.5225 273.368 72.1368 272.493 72.4997C271.617 72.8626 270.653 72.9578 269.723 72.7732C268.793 72.5886 267.939 72.1325 267.269 71.4627C266.599 70.7929 266.142 69.9395 265.958 69.0105C265.773 68.0814 265.868 67.1186 266.232 66.2437C266.595 65.3689 267.21 64.6214 267.999 64.096C268.788 63.5705 269.715 63.2906 270.663 63.2918C271.932 63.2935 273.148 63.7978 274.045 64.6942C274.942 65.5905 275.447 66.8057 275.448 68.0733Z" fill="#4C91FF"/>
<path d="M268.732 70.0028C268.652 69.9225 268.607 69.8136 268.607 69.7C268.607 69.5865 268.652 69.4776 268.732 69.3973L271.977 66.1544C272.017 66.1135 272.064 66.0808 272.117 66.0584C272.169 66.036 272.225 66.0242 272.282 66.0237C272.339 66.0232 272.396 66.0341 272.448 66.0557C272.501 66.0773 272.549 66.1092 272.589 66.1495C272.629 66.1898 272.661 66.2377 272.683 66.2904C272.704 66.3431 272.715 66.3995 272.714 66.4564C272.714 66.5133 272.702 66.5695 272.679 66.6218C272.657 66.674 272.624 66.7212 272.583 66.7607L269.338 70.0028C269.298 70.0426 269.251 70.0742 269.199 70.0958C269.147 70.1173 269.091 70.1284 269.035 70.1284C268.979 70.1284 268.923 70.1173 268.871 70.0958C268.819 70.0742 268.772 70.0426 268.732 70.0028Z" fill="white"/>
<path d="M271.977 70.0028L268.732 66.7607C268.691 66.7212 268.658 66.674 268.636 66.6218C268.613 66.5695 268.601 66.5133 268.601 66.4564C268.6 66.3995 268.611 66.3431 268.632 66.2904C268.654 66.2377 268.686 66.1898 268.726 66.1495C268.766 66.1092 268.814 66.0773 268.867 66.0557C268.919 66.0341 268.976 66.0232 269.033 66.0237C269.09 66.0242 269.146 66.036 269.198 66.0584C269.251 66.0808 269.298 66.1135 269.338 66.1544L272.583 69.3973C272.625 69.4364 272.659 69.4837 272.683 69.5362C272.707 69.5888 272.719 69.6456 272.721 69.7033C272.722 69.7609 272.711 69.8182 272.69 69.8717C272.668 69.9252 272.636 69.9738 272.595 70.0146C272.554 70.0554 272.506 70.0875 272.452 70.1091C272.399 70.1307 272.341 70.1412 272.284 70.1401C272.226 70.139 272.169 70.1263 272.117 70.1027C272.064 70.0791 272.017 70.0451 271.977 70.0028Z" fill="white"/>
<path d="M18.0367 142.302C14.9156 142.852 12.0416 144.355 9.80932 146.603C7.57705 148.85 6.09598 151.733 5.56948 154.856C2.74495 171.596 -1.84603 203.052 1.74234 212.418C6.15586 223.94 43.4649 242.986 43.4649 242.986L50.1254 219.966L26.5074 204.229L32.4114 174.687L18.0367 142.302Z" fill="#4C91FF"/>
<path d="M84.6777 231.395C85.2524 233.248 80.7257 237.206 69.8927 232.237C72.3558 233.445 83.0471 237.756 82.766 239.539C82.4797 241.355 78.9827 242.722 68.046 237.715C68.4257 237.968 77.3842 241.228 76.2136 242.895C74.5531 245.259 59.0305 242.895 49.6397 233.958C49.5711 233.866 46.6458 232.658 44.9662 232.118C44.8852 232.094 44.8202 232.072 44.7355 232.045C44.8625 231.643 45.0005 231.242 45.1386 230.837C46.7736 226.249 48.7072 221.314 49.8851 220.222L52.0845 221.383C55.2757 218.678 58.661 216.637 62.3852 215.759L64.2414 221.377C64.2414 221.377 81.7948 221.876 81.9459 224.112C82.219 228.167 69.0763 227.423 68.3636 227.262C69.1764 227.565 83.8789 228.82 84.6777 231.395Z" fill="white"/>
<path d="M261.376 104.691V140.794C261.376 147.555 259.73 154.214 256.582 160.199C253.433 166.184 248.876 171.314 243.302 175.148C222.83 189.053 223.488 189.215 222.11 189.215C220.692 189.215 221.584 189.185 200.918 175.148C195.343 171.316 190.784 166.186 187.635 160.201C184.486 154.216 182.842 147.555 182.844 140.794V104.442C182.844 103.31 184.079 102.168 185.405 102.277C205.59 103.73 216.683 96.1342 220.524 92.811C220.964 92.4303 221.527 92.2207 222.11 92.2207C222.693 92.2207 223.256 92.4303 223.697 92.811C227.526 96.1451 238.598 103.72 258.794 102.277C259.125 102.253 259.457 102.298 259.77 102.409C260.083 102.52 260.37 102.694 260.613 102.921C260.855 103.147 261.048 103.421 261.179 103.726C261.311 104.031 261.378 104.359 261.376 104.691Z" fill="#DEDEFC"/>
<path d="M172.077 104.172C172.077 111.877 165.808 118.14 158.076 118.14C150.345 118.14 144.095 111.877 144.095 104.172C144.095 96.4471 150.345 90.1838 158.076 90.1838C165.808 90.1838 172.077 96.4471 172.077 104.172Z" fill="white"/>
<path d="M167.872 104.169C167.872 109.559 163.487 113.94 158.079 113.94C156.144 113.938 154.253 113.363 152.644 112.288C151.036 111.213 149.783 109.685 149.044 107.898C148.304 106.112 148.112 104.146 148.491 102.25C148.87 100.354 149.803 98.6127 151.172 97.2464C152.541 95.8801 154.285 94.9502 156.183 94.5741C158.082 94.1981 160.049 94.3929 161.836 95.1338C163.624 95.8747 165.151 97.1285 166.226 98.7367C167.3 100.345 167.873 102.235 167.872 104.169Z" fill="#4C91FF"/>
<path d="M246.484 137.01C246.484 150.967 235.166 162.286 221.185 162.286C207.185 162.286 195.895 150.927 195.895 137.01C195.895 122.966 207.309 111.734 221.185 111.734C235.165 111.735 246.484 123.054 246.484 137.01Z" fill="white"/>
<path d="M264.682 214.32V231.387C260.067 237.078 254.955 242.347 249.405 247.133H178.494C178.266 247.133 178.04 247.088 177.829 247.001C177.619 246.914 177.427 246.786 177.266 246.625C177.104 246.464 176.976 246.272 176.889 246.062C176.802 245.851 176.757 245.625 176.757 245.397V214.318C176.756 214.09 176.8 213.864 176.887 213.653C176.974 213.441 177.102 213.25 177.263 213.088C177.425 212.927 177.617 212.799 177.828 212.712C178.04 212.625 178.266 212.581 178.494 212.583H262.946C263.174 212.582 263.4 212.627 263.611 212.714C263.822 212.802 264.014 212.93 264.175 213.091C264.336 213.252 264.464 213.444 264.551 213.655C264.638 213.866 264.683 214.092 264.682 214.32Z" fill="white"/>
<path d="M206.693 229.85C206.696 231.358 206.401 232.852 205.826 234.246C205.251 235.64 204.406 236.907 203.34 237.974C202.273 239.042 201.007 239.888 199.613 240.466C198.219 241.044 196.725 241.342 195.215 241.342C188.894 241.342 183.737 236.206 183.737 229.85C183.737 223.513 188.885 218.371 195.215 218.371C201.558 218.371 206.693 223.513 206.693 229.85Z" fill="white"/>
<path d="M199.673 228.434C199.672 229.313 199.409 230.173 198.919 230.904C198.429 231.634 197.733 232.203 196.919 232.539C196.105 232.875 195.21 232.962 194.346 232.79C193.483 232.617 192.69 232.193 192.068 231.571C191.445 230.949 191.022 230.156 190.85 229.293C190.678 228.43 190.766 227.536 191.103 226.723C191.44 225.91 192.011 225.216 192.742 224.727C193.474 224.237 194.335 223.976 195.215 223.975C195.801 223.975 196.381 224.091 196.922 224.315C197.464 224.539 197.955 224.867 198.369 225.281C198.783 225.695 199.111 226.187 199.335 226.728C199.559 227.269 199.674 227.848 199.673 228.434Z" fill="#4B5C76"/>
<path d="M204.114 237.113C203.038 238.434 201.682 239.499 200.142 240.231C198.603 240.962 196.92 241.342 195.216 241.342C193.511 241.342 191.828 240.962 190.289 240.231C188.75 239.499 187.393 238.434 186.317 237.113C190.894 231.509 199.481 231.474 204.114 237.113Z" fill="#4B5C76"/>
<path d="M242.729 219.662H217.547C217.306 219.662 217.111 219.857 217.111 220.098V225.145C217.111 225.386 217.306 225.581 217.547 225.581H242.729C242.97 225.581 243.165 225.386 243.165 225.145V220.098C243.165 219.857 242.97 219.662 242.729 219.662Z" fill="#4C91FF"/>
<g opacity="0.05">
<path d="M275.468 4.78589H251.942C248.918 4.78589 246.467 7.23465 246.467 10.2554V31.7232C246.467 34.7439 248.918 37.1927 251.942 37.1927H275.468C278.491 37.1927 280.942 34.7439 280.942 31.7232V10.2554C280.942 7.23465 278.491 4.78589 275.468 4.78589Z" fill="#1C2844"/>
</g>
<g opacity="0.05">
<path d="M48.8285 22.1631H25.3026C22.279 22.1631 19.828 24.6119 19.828 27.6326V61.8618C19.828 64.8825 22.279 67.3313 25.3026 67.3313H48.8285C51.852 67.3313 54.303 64.8825 54.303 61.8618V27.6326C54.303 24.6119 51.852 22.1631 48.8285 22.1631Z" fill="#1C2844"/>
</g>
<path d="M151.34 194.608C151.294 194.869 151.198 195.264 150.936 195.305H150.875C150.837 195.308 150.798 195.3 150.765 195.281C150.641 195.373 150.157 195.736 149.98 195.881H149.968C146.122 198.769 141.308 202.195 136.25 205.389C136.004 205.561 135.747 205.72 135.49 205.866L135.625 206.271C135.882 206.125 136.136 205.965 136.384 205.806C143.613 201.254 151.359 195.381 151.622 195.171L151.34 194.608ZM142.411 178.553C142.411 178.528 142.423 178.515 142.435 178.491C142.468 178.461 142.493 178.423 142.509 178.381C142.547 178.362 142.588 178.349 142.631 178.345C142.787 178.338 142.942 178.368 143.085 178.43L142.827 177.928L141.541 178.439L129.169 183.346L128.361 183.664L128.496 184.08L129.304 183.762V183.75L142.411 178.553ZM73.4365 248.576C61.3227 246.712 47.3271 249.81 36.5802 252.332C30.4426 253.765 25.2003 255 21.3184 255C17.7906 255 15.3896 253.985 14.4345 251.219C5.99373 226.673 17.5694 148.277 18.415 142.672L38.6293 139.515L38.2123 139.15L37.2323 139.309L18.0367 142.305C18.0367 142.305 5.18463 225.63 14.0204 251.353C18.0922 263.222 47.2789 244.803 73.5746 249.004L73.4365 248.576ZM84.6821 148.301C81.9375 144.98 78.2393 142.579 74.0864 141.423L54.1701 138.943L54.1577 139.151L54.0847 139.359L73.9725 141.825C82.1979 144.138 84.9194 149.527 89.6273 155.116L90.0559 154.981C89.3804 154.082 86.1565 150.088 84.6814 148.301H84.6821Z" fill="#4C91FF"/>
<path d="M76.949 13.2996L100.828 8.39698L66.9521 0.38501L76.949 13.2996Z" fill="white"/>
<path d="M80.6556 12.5388L86.905 20.0912L85.1612 11.6138L80.6556 12.5388Z" fill="white"/>
<path d="M281.987 103.67V68.133C281.987 62.3075 277.247 57.572 271.417 57.572H246.454C225.239 40.4639 198.267 30.221 168.955 30.221C156.744 30.2113 144.599 32.0136 132.918 35.5686H132.91C132.679 34.4781 132.371 33.4054 131.987 32.3586C131.967 32.3055 131.936 32.2571 131.896 32.216C131.856 32.175 131.809 32.1422 131.757 32.1195C131.704 32.0968 131.648 32.0846 131.591 32.0837C131.534 32.0828 131.477 32.0932 131.424 32.1142C131.371 32.1331 131.323 32.1627 131.281 32.201C131.24 32.2393 131.207 32.2856 131.184 32.3371C131.161 32.3886 131.149 32.4442 131.148 32.5006C131.147 32.5569 131.158 32.6129 131.179 32.665C131.562 33.6951 131.869 34.7516 132.099 35.8262C114.88 41.1979 99.2788 50.2385 86.1989 62.0325C86.0061 61.6268 85.8134 61.2205 85.6403 60.8024C85.4132 60.2918 84.634 60.5923 84.8443 61.1329C85.0634 61.6436 85.292 62.1441 85.5315 62.6373C84.0623 64.2007 68.7478 76.9789 57.6235 99.9489L38.4658 101.515L38.2949 112.297C37.6154 113.818 37.1417 115.423 36.8863 117.069C36.7367 117.108 36.5926 117.166 36.4577 117.241C35.5895 117.673 34.8876 118.378 34.4603 119.248C34.033 120.118 33.904 121.104 34.0932 122.054H34.1056C34.3458 123.452 35.493 124.892 37.2047 125.383C37.2288 127.561 37.2171 135.136 37.2171 138.869L17.9733 141.876H17.9638C11.4107 143.039 6.25379 148.228 5.15114 154.789C2.18494 172.336 -2.24903 203.199 1.34006 212.573C2.53983 215.681 6.03107 219.304 10.5154 222.952C10.5154 223.125 10.5154 223.299 10.5191 223.473C10.5337 228.569 10.7104 233.387 11.0945 237.735C11.1193 238.022 11.1456 238.306 11.1734 238.59C11.3808 240.748 11.6422 242.785 11.9628 244.673C11.9759 244.752 11.9905 244.83 12.0044 244.908C12.4338 247.382 12.9639 249.604 13.6109 251.502C13.6722 251.674 13.7336 251.833 13.7949 251.979C13.8562 252.125 13.9293 252.271 14.003 252.417C14.0154 252.443 14.033 252.464 14.0461 252.49C14.1031 252.599 14.1673 252.699 14.2287 252.801C14.2776 252.88 14.3185 252.966 14.3703 253.041C14.4682 253.187 14.5784 253.333 14.6887 253.478C14.6923 253.482 14.6954 253.485 14.6982 253.489C14.7354 253.534 14.7771 253.573 14.8143 253.616C14.8895 253.71 14.9702 253.799 15.056 253.883C15.153 253.99 15.2599 254.087 15.3751 254.174C15.3868 254.185 15.4014 254.194 15.4138 254.204C15.4869 254.268 15.5686 254.325 15.6475 254.384C15.6628 254.395 15.6774 254.409 15.6935 254.42C15.7059 254.444 15.7059 254.444 15.7176 254.444C15.0195 266.044 14.6274 285.893 14.4441 297.017H4.98392C4.87023 297.017 4.76121 297.062 4.68082 297.142C4.60043 297.223 4.55527 297.332 4.55527 297.445C4.55527 297.559 4.60043 297.668 4.68082 297.748C4.76121 297.828 4.87023 297.873 4.98392 297.873H14.8669H14.8749H46.954H46.9591H61.0475H61.0526H90.6825H90.6906H115.969C116.083 297.873 116.192 297.828 116.272 297.748C116.353 297.668 116.398 297.559 116.398 297.445C116.398 297.332 116.353 297.223 116.272 297.142C116.192 297.062 116.083 297.017 115.969 297.017H91.0747C90.3401 290.298 89.7033 284.01 89.1644 278.111L146.832 259.608C148.475 259.076 149.84 257.917 150.629 256.383C151.419 254.849 151.569 253.065 151.046 251.421L136.519 206.216C141.923 202.814 147.041 199.154 151.034 196.148C151.466 196.148 151.94 195.659 152.002 195.353C152.53 193.732 151.961 191.498 151.463 189.87C154.537 187.594 155.125 187.41 155.211 187.39C156.629 187.303 158.041 187.127 159.437 186.863V270.592C159.431 272.615 160.015 274.597 161.116 276.295C161.276 276.551 161.447 276.796 161.628 277.041C161.662 277.087 161.706 277.125 161.756 277.152C161.807 277.18 161.862 277.196 161.92 277.2C161.932 277.212 161.932 277.212 161.944 277.212C177.79 278.029 192.656 276.008 206.384 271.607H206.396C217.743 267.893 226.875 263.249 229.081 261.781H229.093C230.08 261.277 232.092 260.064 233.036 259.48C245.236 252.138 256.056 242.72 265.006 231.652C265.037 231.632 265.059 231.602 265.067 231.566C271.684 223.488 277.497 214.13 281.947 204.142C281.97 204.083 281.982 204.021 281.983 203.959C288.83 188.625 292.639 171.651 292.639 153.809C292.639 135.967 288.835 119.004 281.987 103.67ZM246.906 59.0282L242.093 70.1641C241.771 70.9064 241.238 71.5384 240.562 71.9825C239.885 72.4265 239.093 72.6633 238.283 72.6635H203.151C202.341 72.6634 201.55 72.427 200.873 71.9835C200.197 71.54 199.664 70.9086 199.342 70.167L194.259 58.4314H246.161C246.404 58.624 246.662 58.8202 246.906 59.0282ZM61.4696 94.4313C72.0521 75.3899 84.3945 65.0776 85.9324 63.4201C86.3895 64.2897 86.5502 64.8858 87.0818 64.6209C87.1795 64.5628 87.2508 64.4689 87.2805 64.3591C87.3102 64.2494 87.2961 64.1324 87.241 64.0329C87.0109 63.6441 86.7984 63.2355 86.5837 62.827C89.716 59.989 92.9949 57.3169 96.4068 54.8216C96.1724 55.9239 95.9804 57.0343 95.8358 58.1345C95.8276 58.1899 95.8306 58.2463 95.8446 58.3006C95.8586 58.3548 95.8834 58.4056 95.9174 58.4501C95.9515 58.4946 95.9941 58.5318 96.0428 58.5595C96.0915 58.5873 96.1453 58.605 96.2009 58.6116C96.2154 58.6216 96.2331 58.626 96.2506 58.624C96.3564 58.6253 96.4588 58.5872 96.538 58.517C96.6171 58.4469 96.6672 58.3497 96.6785 58.2446C97.1626 54.6399 97.519 54.5779 97.1626 54.2605C99.1678 53.2275 125.905 31.0775 168.944 31.0775C197.681 31.0775 224.138 40.9899 245.084 57.572H170.02C164.189 57.572 159.437 62.3075 159.437 68.133V89.8176C158.999 89.7811 158.542 89.7563 158.077 89.7563C150.128 89.7563 143.66 96.2179 143.66 104.172C143.66 112.115 150.128 118.563 158.077 118.563C158.542 118.563 158.996 118.539 159.437 118.503V162.888C157.757 164.528 156.13 166.229 154.819 167.649C155.827 163.95 156.127 159.392 152.308 159.266C147.343 159.018 146.174 172.436 145.939 177.414L144.396 178.186H144.382C143.881 177.83 143.416 177.598 142.995 177.525H142.983C142.825 177.493 142.664 177.484 142.505 177.5C142.251 177.533 142.017 177.654 141.843 177.843L141.832 177.855L129.032 182.946L118.975 151.642C117.873 148.228 114.198 146.331 110.781 147.432L89.9209 154.126C88.1574 151.899 86.4888 149.831 85.0094 148.032C82.2045 144.63 78.4687 142.207 74.1442 140.995L55.0603 138.609L55.2685 136.014C62.7037 133.934 63.3529 127.069 63.3653 120.191C63.3653 117.228 63.2338 113.805 62.5328 110.891C64.3453 110.168 65.9379 109.202 67.1997 108.04C67.2114 108.04 67.2238 108.027 67.2362 108.015L67.2238 107.991L59.8894 99.7672L58.6158 99.865C59.5221 98.0294 60.4633 96.2179 61.4696 94.4313ZM171.649 104.172C171.649 111.425 165.78 117.707 158.077 117.707C150.605 117.707 144.517 111.637 144.517 104.172C144.517 96.6951 150.605 90.6135 158.077 90.6135C165.796 90.6106 171.649 96.9519 171.649 104.172ZM38.246 114.892L38.2212 116.802C38.0751 116.802 37.9393 116.814 37.7925 116.826C37.9105 116.174 38.0618 115.529 38.246 114.892ZM37.1068 124.438C34.2984 123.349 34.1012 119.434 36.7636 118.062V118.05C38.5826 117.147 40.6339 117.855 41.5525 119.604C41.5773 119.655 41.6118 119.7 41.6543 119.738C41.6967 119.775 41.7461 119.804 41.7997 119.822C41.8533 119.841 41.91 119.848 41.9666 119.845C42.0231 119.841 42.0784 119.827 42.1292 119.802C42.1801 119.777 42.2255 119.742 42.2628 119.699C42.3002 119.657 42.3287 119.607 42.3469 119.554C42.365 119.5 42.3724 119.443 42.3685 119.387C42.3646 119.33 42.3496 119.275 42.3244 119.224C42.1463 118.865 41.9197 118.532 41.6511 118.234C43.1195 117.466 44.2893 116.23 44.975 114.722C45.6606 113.215 45.8228 111.522 45.4359 109.912C50.0904 112.538 56.4697 112.959 61.7266 111.185C61.7625 111.313 61.7912 111.444 61.8128 111.576C62.2904 113.816 62.5233 116.655 62.5109 120.191C62.4861 128.474 61.2126 133.581 54.8062 135.244C54.6835 135.244 51.867 136.086 48.2407 134.142C48.1401 134.09 48.0229 134.078 47.9139 134.11C47.8049 134.142 47.7127 134.215 47.6565 134.314C47.6317 134.401 47.6194 134.492 47.62 134.583V134.619C47.6564 134.734 47.7347 134.83 47.8391 134.889C50.0991 136.117 52.5272 136.485 54.3922 136.198C54.382 136.321 54.1439 139.339 54.1592 139.147C54.1147 139.27 50.0882 150.382 50.3379 149.696L38.6294 139.515L38.2124 139.15L38.0781 139.04V138.734C38.0781 135.063 38.0905 127.978 38.0656 125.518C38.4497 125.603 39.4531 125.526 40.344 125.089C40.8639 124.859 40.4696 124.064 39.9642 124.331C39.5489 124.536 39.0968 124.657 38.6342 124.687C38.1716 124.716 37.7078 124.653 37.2697 124.502C37.2171 124.474 37.1558 124.462 37.1068 124.438ZM11.3705 222.509C11.3705 222.466 11.3705 222.424 11.3705 222.381C11.2763 222.357 11.1902 222.32 11.1011 222.288C11.0987 222.287 11.0965 222.285 11.0947 222.284C11.093 222.282 11.0916 222.279 11.0909 222.277C10.9068 222.131 10.7111 221.985 10.5271 221.825V221.812C6.39911 218.434 3.23866 215.106 2.14916 212.267C-1.37933 203.074 3.04296 172.397 5.99456 154.924C6.50231 151.934 7.91001 149.169 10.0301 146.998C12.1502 144.828 14.882 143.354 17.8616 142.774C18.0431 142.738 18.2268 142.713 18.4114 142.701C18.4114 142.693 18.4114 142.684 18.4151 142.677L37.5107 139.691C51.4252 151.786 50.1948 150.853 50.6293 150.853C51.0448 150.74 50.7118 150.958 54.9654 139.472L73.9726 141.825C78.039 142.962 81.6597 145.315 84.3478 148.568C85.7564 150.294 87.3615 152.276 89.0512 154.404L52.8463 166.021C49.4288 167.11 47.5426 170.781 48.6328 174.192C49.9881 178.41 43.7235 158.912 61.8866 215.445C61.8493 215.457 61.8135 215.457 61.7756 215.469C58.5421 216.326 55.3451 218.1 52.0255 220.868L51.193 220.43C50.9192 219.747 50.89 219.909 50.8133 219.782C50.7742 219.751 50.7332 219.722 50.6906 219.696C50.6393 219.66 50.5808 219.635 50.519 219.624C50.4568 219.599 50.3903 219.586 50.3233 219.587H50.3131L26.9909 204.033L32.8328 174.773C32.8523 174.663 32.8278 174.549 32.7644 174.456C32.7011 174.363 32.6039 174.298 32.4936 174.276C32.3833 174.254 32.2687 174.275 32.1741 174.336C32.0795 174.397 32.0124 174.492 31.9872 174.602L26.1198 203.972L22.8125 206.199C22.7186 206.264 22.6544 206.364 22.6337 206.476C22.613 206.588 22.6377 206.704 22.7023 206.799C22.7402 206.858 22.7931 206.906 22.8555 206.938C22.9179 206.97 22.9877 206.986 23.0579 206.983C23.1409 206.981 23.2217 206.955 23.2908 206.91L26.5119 204.744L49.466 220.038V220.05C48.1356 221.378 45.7908 227.795 45.1577 229.559C45.0233 229.923 44.8882 230.317 44.7414 230.709L44.6903 230.831L44.5063 231.382C44.445 231.566 44.3836 231.737 44.3223 231.92V231.945C44.3178 231.95 44.3145 231.956 44.3124 231.962C44.3104 231.968 44.3098 231.975 44.3106 231.981C44.2617 232.165 44.2003 232.346 44.139 232.52C43.906 233.291 43.6855 234.086 43.4774 234.854C43.4774 235.027 42.2404 239.3 42.5836 242.038C38.284 239.786 22.0297 231.037 11.3727 222.507L11.3705 222.509ZM61.0534 223.978C61.3024 223.978 61.1746 223.954 64.0174 222.057L64.373 221.812C66.1913 221.812 81.4049 222.627 81.5094 224.147C81.5459 224.584 81.3633 224.967 80.9697 225.309C78.4701 227.448 69.14 227.004 68.4521 226.851C67.9285 226.735 67.7218 227.472 68.2067 227.671C69.1677 227.97 83.5913 229.342 84.2653 231.514C84.6369 232.704 81.9285 235.137 75.899 233.848C74.2779 233.498 72.5078 232.958 70.0681 231.841C69.9657 231.796 69.8494 231.792 69.7442 231.831C69.639 231.87 69.5531 231.948 69.5051 232.049C69.4573 232.15 69.4511 232.265 69.4877 232.371C69.5243 232.476 69.6008 232.562 69.7008 232.612C71.7235 233.597 82.5529 238.172 82.3418 239.465C82.2798 239.869 82.0015 240.186 81.6313 240.371C78.7104 241.83 71.8287 238.818 69.0881 237.703C69.0764 237.691 69.0516 237.691 69.0399 237.679C68.3615 237.396 68.5112 237.445 68.2191 237.323C67.7708 237.1 67.3538 237.771 67.8022 238.07C68.298 238.4 75.4696 241.043 75.8742 242.5C75.8853 242.523 75.89 242.549 75.888 242.575C75.8859 242.6 75.8771 242.625 75.8625 242.646C74.4195 244.672 59.2132 242.474 49.9801 233.7C49.9436 233.639 49.7844 233.554 49.5515 233.431C49.5997 233.291 49.6407 233.148 49.6741 233.003C49.6252 233.149 49.588 233.295 49.5391 233.431C49.4159 233.367 49.2894 233.31 49.1601 233.26H49.1447C48.5291 232.952 45.6615 231.896 45.2745 231.767C45.3205 231.644 46.3144 228.493 48.9366 222.491C48.9438 222.485 48.9482 222.476 48.949 222.467C48.9614 222.454 48.9739 222.442 48.9614 222.429C49.0476 222.292 49.5412 221.257 49.9655 220.751C50.1605 220.853 51.0397 221.31 50.909 221.241C50.9214 221.302 50.9214 221.376 50.9338 221.449C50.9338 221.376 50.9214 221.315 50.9214 221.253L51.35 221.486H51.3624C51.7027 221.617 52.0197 221.98 52.3541 221.705C55.6862 218.878 58.8707 217.104 62.0925 216.271L63.7355 221.201V221.213L60.808 223.195C60.7327 223.248 60.676 223.322 60.6463 223.409C60.6165 223.496 60.6153 223.59 60.6427 223.677C60.67 223.764 60.7247 223.841 60.7985 223.895C60.8724 223.949 60.9617 223.978 61.0534 223.978ZM15.5657 253.12C15.5015 253.051 15.4335 252.987 15.3737 252.915C15.2149 252.72 15.0713 252.514 14.9443 252.298C14.891 252.219 14.8486 252.133 14.8034 252.05C14.6587 251.783 14.5352 251.505 14.4339 251.219C14.2878 250.797 14.1505 250.36 14.0176 249.906C13.9446 249.65 13.8716 249.379 13.7986 249.113C13.7452 248.917 13.6905 248.725 13.6394 248.523C13.5846 248.31 13.5357 248.086 13.4838 247.867C13.432 247.648 13.3721 247.42 13.3297 247.19C13.2728 246.953 13.2246 246.703 13.1727 246.46C13.0267 245.748 12.8872 245.015 12.7609 244.253C12.7551 244.211 12.7514 244.167 12.7419 244.12C12.6762 243.76 12.6243 243.39 12.5696 243.025C12.4586 242.273 12.3505 241.506 12.2585 240.712C12.1701 239.977 12.0913 239.225 12.0175 238.461C12.0015 238.288 11.9861 238.111 11.9708 237.937C11.9036 237.191 11.8401 236.438 11.7868 235.665C11.7378 235.139 11.7006 234.625 11.6889 234.099C11.6641 233.842 11.6517 233.573 11.6393 233.303C11.6027 232.704 11.5779 232.104 11.5538 231.492C11.4925 230.293 11.456 229.057 11.4311 227.796C11.4195 227.466 11.407 227.123 11.407 226.768C11.3844 225.823 11.3749 224.854 11.3735 223.878C11.3735 223.794 11.3735 223.709 11.3735 223.625C22.936 232.766 40.2907 241.833 42.9611 243.203V243.216C42.9852 243.252 43.01 243.277 43.0341 243.314C43.1336 243.421 43.2494 243.512 43.3774 243.583C43.4387 243.614 43.5049 243.635 43.5731 243.644C43.6031 243.66 43.6379 243.664 43.6709 243.656C43.6899 243.666 43.7111 243.67 43.7322 243.668C43.7514 243.677 43.7724 243.681 43.7936 243.681C43.8555 243.678 43.9172 243.67 43.9776 243.656C46.0354 243.271 48.6708 236.2 49.2937 234.245C49.3178 234.258 49.3302 234.27 49.3426 234.27C54.4024 239.079 61.4126 242.102 67.0924 243.424C68.4076 243.731 69.7414 243.951 71.0853 244.085L71.0977 244.096C71.1364 244.22 72.583 248.731 72.4939 248.453C71.1459 248.298 69.5883 248.17 67.8803 248.102C67.6065 248.091 66.3059 248.056 65.5647 248.054C65.3727 248.054 63.975 248.061 63.9195 248.062C63.9056 248.061 63.8918 248.064 63.8801 248.072C63.1499 248.086 62.4247 248.111 61.7047 248.145C61.6018 248.15 61.4988 248.153 61.3958 248.158L61.2571 248.167C60.835 248.19 60.4137 248.214 59.9945 248.243C59.8565 248.253 59.7221 248.257 59.5834 248.268C59.5463 248.267 59.5092 248.271 59.4731 248.28C59.3169 248.291 59.1584 248.308 59.0007 248.321C58.5976 248.355 58.1974 248.387 57.7936 248.426H57.7702C57.5154 248.451 57.2591 248.481 56.9998 248.507C56.1547 248.596 55.3152 248.696 54.4813 248.805C54.3527 248.822 54.225 248.836 54.0957 248.855C53.9979 248.866 53.9 248.879 53.8138 248.891L53.7693 248.898C53.5254 248.931 53.283 248.971 53.0391 249.003C52.7952 249.035 52.5367 249.069 52.2825 249.111C52.1723 249.124 52.0635 249.148 51.9517 249.16C51.7779 249.187 51.6093 249.218 51.4406 249.245C51.2215 249.281 51.0024 249.318 50.7834 249.354C50.6322 249.38 50.4781 249.402 50.3277 249.427C50.1773 249.453 50.0181 249.483 49.8625 249.51L49.4974 249.572L49.4361 249.583C48.9902 249.661 48.5469 249.742 48.1063 249.826C48.0333 249.84 47.953 249.851 47.8778 249.868L47.8274 249.878L47.5214 249.936C47.4185 249.955 47.314 249.974 47.2111 249.994C46.6787 250.096 46.153 250.202 45.6287 250.309C45.4132 250.352 45.1971 250.395 44.9831 250.44C44.6107 250.517 44.2434 250.595 43.8754 250.674C43.4767 250.759 43.0787 250.843 42.6851 250.929L42.32 251.01C40.5484 251.399 38.8287 251.796 37.1821 252.181H37.0959C36.9498 252.217 36.8389 252.254 36.7162 252.291C36.6672 252.303 36.63 252.316 36.5818 252.327C30.4442 253.759 25.2019 254.995 21.3199 254.995C20.9621 254.995 20.6248 254.977 20.2911 254.956C20.1508 254.946 20.0106 254.935 19.8734 254.923C19.6411 254.9 19.4184 254.868 19.1986 254.834C19.1256 254.821 19.0409 254.815 18.9679 254.8C18.9429 254.802 18.9178 254.797 18.8948 254.787C18.8218 254.774 18.7488 254.756 18.6809 254.741C18.4823 254.698 18.2909 254.648 18.104 254.595C17.9368 254.547 17.7761 254.493 17.6184 254.436C17.4607 254.378 17.3059 254.312 17.1562 254.243C17.0233 254.182 16.8926 254.119 16.7677 254.05C16.5576 253.936 16.3558 253.807 16.1638 253.665C16.1054 253.621 16.0506 253.568 15.9929 253.519C15.8426 253.394 15.6999 253.261 15.5657 253.12ZM47.5068 297.023L53.9329 272.108L60.486 297.023H47.5068ZM90.205 297.023H61.3834L54.4141 270.053C54.4141 270.04 54.4141 270.04 54.4017 270.028C54.395 270.012 54.3875 269.997 54.379 269.982C54.372 269.965 54.364 269.95 54.3549 269.934C54.3549 269.934 54.3549 269.934 54.3549 269.93C54.3549 269.926 54.3513 269.93 54.3506 269.93C54.3126 269.871 54.2606 269.823 54.1992 269.789C54.1377 269.756 54.0689 269.739 53.9989 269.739C53.929 269.739 53.8602 269.756 53.7987 269.789C53.7373 269.823 53.6853 269.871 53.6473 269.93C53.6347 269.953 53.6241 269.978 53.6159 270.003C53.6046 270.022 53.5948 270.042 53.5867 270.063L53.5816 270.082L53.5247 270.289C53.5145 270.32 53.5102 270.354 53.5122 270.387L46.6291 297.026H15.3036C15.4869 286.036 15.8666 266.58 16.553 254.955C16.7122 255.028 16.8714 255.114 17.043 255.174C17.081 255.19 17.124 255.198 17.1627 255.213C17.3745 255.295 17.5958 255.366 17.8199 255.432C17.9214 255.461 18.0127 255.505 18.1179 255.53C18.2398 255.555 18.3749 255.591 18.51 255.616L18.5334 255.62C18.6144 255.636 18.7021 255.645 18.7839 255.659C19.0679 255.709 19.3607 255.75 19.6601 255.779C19.8347 255.797 20.015 255.808 20.1961 255.819C20.2757 255.823 20.3495 255.833 20.4298 255.836C20.564 255.853 20.6994 255.857 20.8343 255.849C20.9687 255.86 21.1038 255.86 21.2382 255.86C25.2544 255.86 30.572 254.612 36.7702 253.168C38.0116 252.877 39.3012 252.576 40.6229 252.275H40.628C51.4077 252.594 63.7034 253.425 74.6926 255.322L80.6952 273.999C81.1208 275.309 81.9503 276.452 83.0652 277.263C84.18 278.074 85.523 278.512 86.9021 278.515C87.3763 278.516 87.8489 278.463 88.3108 278.356C88.8584 284.199 89.4952 290.403 90.205 297.023ZM150.226 251.696C151.181 254.657 149.54 257.852 146.575 258.794L89.0884 277.236L88.6226 277.382C88.4999 277.419 88.3655 277.455 88.2428 277.493C86.8543 277.828 85.39 277.628 84.1431 276.931C82.8962 276.235 81.9586 275.093 81.5181 273.735C80.544 270.703 85.043 284.703 72.0134 244.157C73.3016 244.209 75.7924 244.266 76.5577 243.141C76.6067 243.086 76.6404 243.018 76.6555 242.946C76.9936 242.227 76.3021 241.512 75.6755 241.024C77.4858 241.496 80.406 242.038 82.0329 241.134C82.6405 240.808 83.0735 240.272 83.1838 239.602C83.492 237.719 76.9038 235.185 76.8023 234.879C80.3673 235.418 82.853 234.733 84.1638 233.566C84.8327 232.975 85.3599 232.095 85.0824 231.265C84.6048 229.699 80.701 228.671 74.7204 227.753C77.5909 227.557 82.558 226.941 82.3637 224.082C82.2009 221.528 66.747 220.949 64.5534 220.949C63.7355 218.403 50.2671 176.475 49.4507 173.932C48.993 172.506 49.1204 170.956 49.8049 169.623C50.4894 168.29 51.675 167.283 53.1019 166.822L111.052 148.245C111.606 148.067 112.185 147.976 112.767 147.976C113.965 147.973 115.133 148.351 116.101 149.055C117.07 149.759 117.79 150.753 118.156 151.892L128.237 183.245V183.257L128.36 183.661L128.495 184.077L134.741 203.523L135.489 205.858L135.623 206.262L135.758 206.678V206.69L150.226 251.696ZM136.25 205.389L135.527 203.15L129.305 183.765L141.48 178.919C141.18 182.357 146.539 192.748 147.016 192.748C148.031 194.215 149.047 195.363 149.965 195.878C145.578 199.16 140.954 202.416 136.25 205.389ZM147.422 191.819C147.401 191.787 147.031 191.232 147.019 191.195C145.511 188.996 142.879 182.864 142.438 180.133C143.752 179.476 146.786 178.017 146.786 177.697C146.786 177.648 146.945 173.133 147.753 168.703C148.758 163.171 150.338 160.124 152.224 160.124H152.286C153.106 160.16 153.694 160.454 154.086 161.029C155.62 163.343 153.449 169.155 153.425 169.216V169.229C153.398 169.321 153.402 169.419 153.435 169.51C153.468 169.6 153.528 169.677 153.608 169.731C153.621 169.731 153.633 169.742 153.645 169.755C154.074 170.061 157.297 172.508 154.601 177.477C154.574 177.526 154.557 177.58 154.551 177.635C154.546 177.691 154.551 177.747 154.567 177.8C154.583 177.854 154.609 177.903 154.644 177.947C154.68 177.99 154.723 178.026 154.772 178.052C154.977 178.154 155.252 178.097 155.36 177.881C157.982 173.047 155.495 170.208 154.465 169.314C156.168 167.442 157.859 165.692 159.439 164.138C159.721 163.846 160.014 163.563 160.296 163.294C164.375 159.341 167.548 156.881 168.183 157.384C170.62 159.402 165.604 164.725 163.234 166.819C162.837 167.184 163.339 167.801 163.761 167.492C170.057 163.136 177.455 159.024 178.753 160.003C179.255 160.382 179.292 160.713 179.28 160.933C179.158 162.916 173.229 166.562 166.847 170.209C166.356 170.501 166.774 171.231 167.264 170.968C177.076 165.669 179.021 165.423 179.415 165.461C179.672 165.498 179.991 165.607 180.04 165.89C180.089 166.122 180.199 168.288 170.902 173.623C170.809 173.677 170.741 173.764 170.712 173.867C170.682 173.969 170.693 174.079 170.742 174.174C170.828 174.382 171.086 174.466 171.294 174.393C176.157 172.569 180.211 171.737 180.738 172.434C180.823 172.545 180.823 172.74 180.763 172.985C180.566 173.646 179.292 176.044 171.245 178.994C171.137 179.032 171.049 179.11 170.999 179.213C168.663 183.126 163.879 185.08 159.437 186.004C152.806 187.267 157.073 184.781 147.42 191.818L147.422 191.819ZM264.251 231.174C259.686 236.786 254.632 241.983 249.148 246.703H178.496C178.149 246.702 177.816 246.564 177.57 246.318C177.325 246.073 177.186 245.741 177.185 245.394V214.323C177.183 214.15 177.216 213.979 177.281 213.819C177.347 213.66 177.443 213.515 177.565 213.393C177.687 213.271 177.832 213.174 177.992 213.109C178.152 213.044 178.323 213.011 178.496 213.013H262.94C263.287 213.014 263.62 213.152 263.866 213.398C264.111 213.643 264.25 213.976 264.251 214.323V231.174ZM281.13 101.798V203.823C276.772 213.559 271.206 222.494 265.108 230.109V214.323C265.109 214.038 265.053 213.756 264.944 213.493C264.835 213.23 264.676 212.991 264.474 212.79C264.273 212.589 264.034 212.429 263.77 212.32C263.507 212.212 263.225 212.156 262.94 212.157H178.496C178.211 212.156 177.929 212.212 177.666 212.32C177.402 212.429 177.163 212.589 176.962 212.79C176.76 212.991 176.601 213.23 176.492 213.493C176.383 213.756 176.327 214.038 176.328 214.323V245.394C176.327 245.678 176.383 245.96 176.492 246.223C176.601 246.486 176.76 246.725 176.962 246.926C177.163 247.127 177.402 247.287 177.666 247.396C177.929 247.504 178.211 247.56 178.496 247.56H248.144C225.667 266.657 195.512 277.957 162.817 276.404L162.193 276.368C160.958 274.694 160.292 272.67 160.294 270.591V186.702C168.489 184.928 171.196 180.647 171.698 179.74C179.745 176.766 181.289 174.195 181.583 173.229C182.415 170.322 177.566 171.465 174.675 172.336C179.035 169.497 181.179 167.245 180.882 165.728C180.771 165.128 180.281 164.724 179.522 164.614C178.946 164.528 177.685 164.905 175.774 165.739C178.367 163.933 181.784 161.228 179.265 159.315C177.525 157.993 171.144 161.649 166.734 164.479C168.714 162.183 171.075 158.614 168.719 156.721C167.506 155.754 163.88 158.63 160.291 162.046V118.393C167.2 117.328 172.504 111.356 172.504 104.172C172.504 96.9344 167.144 90.9775 160.291 89.9277V68.133C160.291 62.7846 164.651 58.4299 170.017 58.4299H193.327L198.557 70.5084C198.946 71.4022 199.588 72.1631 200.404 72.6978C201.22 73.2324 202.174 73.5177 203.15 73.5186H238.28C239.256 73.5178 240.211 73.2325 241.027 72.6975C241.844 72.1626 242.486 71.4013 242.875 70.507L248.105 58.4285H271.415C276.768 58.4285 281.127 62.7846 281.127 68.1315L281.13 101.798ZM281.987 105.776C288.308 120.534 291.799 136.773 291.799 153.808C291.799 170.843 288.308 187.082 281.987 201.841V105.776Z" fill="#1C2844"/>
<path d="M56.0556 125.074C55.7305 125.174 55.3913 125.219 55.0515 125.209C54.8324 125.184 54.6228 125.392 54.6133 125.625C54.6143 125.737 54.6577 125.845 54.735 125.926C54.8123 126.007 54.9176 126.056 55.0296 126.063H55.1398C55.8153 126.063 56.945 125.874 57.2225 125.169C57.4671 124.512 56.9304 123.958 56.5974 123.615C56.1356 123.133 55.7862 122.555 55.5745 121.923C55.3628 121.29 55.2939 120.619 55.3728 119.956C55.3827 119.844 55.3484 119.733 55.2773 119.646C55.2061 119.559 55.1037 119.503 54.9918 119.49C54.88 119.477 54.7676 119.509 54.6786 119.577C54.5896 119.646 54.5311 119.747 54.5155 119.859C54.4176 120.648 54.4988 121.45 54.7531 122.204C55.0074 122.958 55.4284 123.645 55.9847 124.215C56.4411 124.709 56.6361 124.905 56.0556 125.074Z" fill="#1C2844"/>
<path d="M56.447 130.569C57.5737 130.397 58.1616 129.467 58.174 129.431C58.4938 128.965 57.7519 128.498 57.4511 128.978C57.4511 128.99 57.0472 129.614 56.3119 129.724C55.7 129.81 54.9894 129.529 54.2176 128.868C53.7524 128.496 53.2347 129.181 53.6538 129.516C54.4074 130.169 55.478 130.762 56.447 130.569Z" fill="#1C2844"/>
<path d="M50.519 118.197H50.4825C49.2885 118.242 48.9081 119.775 49.8457 120.385C50.0439 120.521 50.2787 120.594 50.519 120.593C51.6874 120.593 52.1189 119.127 51.2908 118.488C51.078 118.3 50.8034 118.196 50.519 118.197Z" fill="#1C2844"/>
<path d="M59.449 118.197C59.2116 118.196 58.9794 118.267 58.7819 118.398C58.5844 118.53 58.4304 118.717 58.3394 118.936C58.2484 119.156 58.2245 119.397 58.2708 119.629C58.317 119.862 58.4313 120.076 58.5992 120.244C58.767 120.412 58.9809 120.526 59.2138 120.572C59.4467 120.619 59.6881 120.595 59.9075 120.504C60.127 120.413 60.3145 120.26 60.4464 120.062C60.5784 119.865 60.6488 119.633 60.6488 119.396C60.6482 119.078 60.5217 118.774 60.2968 118.549C60.072 118.324 59.7671 118.197 59.449 118.197Z" fill="#1C2844"/>
<path d="M48.4371 117.584C49.0074 116.601 50.3094 116.308 51.2054 116.606C51.7297 116.78 52.0174 115.971 51.4624 115.786C51.3951 115.762 51.3253 115.746 51.2543 115.737C48.9431 115.148 46.9949 117.293 47.8493 117.744C47.9223 117.793 48.2925 117.831 48.4371 117.584Z" fill="#1C2844"/>
<path d="M56.9867 116.656C57.5745 115.628 58.8488 115.383 59.755 115.677C60.2997 115.828 60.5582 115.029 60.012 114.857C57.6913 114.115 55.516 116.262 56.3988 116.815C56.4719 116.85 56.8852 116.837 56.9867 116.656Z" fill="#1C2844"/>
<path d="M122.543 185.515L121.365 181.844C121.242 181.473 120.991 181.158 120.657 180.954C120.323 180.751 119.928 180.672 119.541 180.732C119.155 180.793 118.802 180.988 118.546 181.283C118.291 181.579 118.148 181.955 118.144 182.346C118.149 182.52 118.177 182.691 118.229 182.857L119.736 187.556L119.907 188.07C119.98 188.299 120.101 188.509 120.264 188.685C120.426 188.861 120.626 189 120.848 189.091C121.07 189.182 121.309 189.223 121.548 189.212C121.788 189.2 122.022 189.136 122.234 189.025C122.957 188.66 123.263 187.765 123.006 186.982C122.971 186.861 122.504 185.393 122.543 185.515Z" fill="#1C2844"/>
<path d="M118.929 174.526C118.929 174.36 118.904 174.195 118.856 174.037L113.818 158.361C113.561 157.59 112.801 157.039 111.98 157.161C111.743 157.195 111.516 157.28 111.315 157.41C111.114 157.54 110.944 157.713 110.817 157.915C110.69 158.118 110.609 158.346 110.579 158.584C110.549 158.821 110.572 159.062 110.646 159.29L115.716 175.041C115.834 175.418 116.083 175.74 116.42 175.948C116.756 176.156 117.155 176.237 117.546 176.174C117.936 176.112 118.291 175.911 118.545 175.608C118.799 175.305 118.936 174.921 118.929 174.526Z" fill="#1C2844"/>
<path d="M73.5841 210.382C73.4909 210.098 73.2998 209.856 73.0448 209.7C72.7898 209.543 72.4875 209.483 72.1918 209.528C71.8961 209.574 71.6262 209.723 71.4302 209.949C71.2342 210.175 71.1249 210.463 71.1217 210.762C71.1181 210.895 71.1389 211.028 71.1831 211.153L73.8776 219.56C73.9336 219.735 74.0273 219.896 74.1521 220.032C74.277 220.167 74.43 220.274 74.6005 220.344C74.7709 220.414 74.9546 220.446 75.1386 220.437C75.3227 220.429 75.5027 220.38 75.666 220.295C76.2297 220.013 76.4502 219.328 76.2662 218.728L73.5841 210.382Z" fill="#1C2844"/>
<path d="M71.722 204.777C71.722 204.419 72.2332 206.236 62.0698 174.538C61.8741 173.939 61.2863 173.523 60.6612 173.608C60.4798 173.636 60.3067 173.703 60.1536 173.804C60.0006 173.905 59.8713 174.038 59.7747 174.194C59.6781 174.35 59.6164 174.525 59.594 174.707C59.5716 174.889 59.5889 175.074 59.6447 175.248L69.2604 205.169C69.3616 205.486 69.5846 205.751 69.8806 205.905C70.1767 206.058 70.5216 206.089 70.8399 205.989C71.0956 205.905 71.3185 205.743 71.4768 205.525C71.6351 205.308 71.7209 205.046 71.722 204.777Z" fill="#1C2844"/>
<path d="M70.9377 183.203C71.2298 184.101 72.1989 184.496 72.9225 184.218L77.9692 182.603C78.1663 182.54 78.3491 182.438 78.5069 182.304C78.6648 182.17 78.7946 182.007 78.889 181.823C78.9835 181.638 79.0406 181.438 79.0572 181.231C79.0737 181.025 79.0494 180.818 78.9856 180.621L75.1643 168.738C75.1029 168.541 75.0029 168.358 74.8701 168.2C74.7374 168.042 74.5746 167.913 74.3911 167.818C74.2077 167.724 74.0073 167.666 73.8015 167.65C73.5958 167.634 73.3888 167.658 73.1927 167.722L68.1307 169.338C67.7339 169.467 67.4044 169.748 67.2141 170.12C67.0237 170.491 66.9878 170.922 67.1142 171.32L70.9377 183.203ZM68.4024 170.158L73.449 168.53C73.6309 168.475 73.8269 168.493 73.9958 168.58C74.1648 168.667 74.2936 168.815 74.3552 168.995L78.1773 180.89C78.2926 181.322 78.0312 181.698 77.7114 181.783L72.6531 183.41C72.4728 183.465 72.2783 183.447 72.1112 183.36C71.9441 183.273 71.8178 183.124 71.7593 182.945L67.9372 171.053C67.9065 170.964 67.8942 170.87 67.9011 170.776C67.9081 170.681 67.9341 170.59 67.9776 170.506C68.0211 170.422 68.0812 170.348 68.1542 170.288C68.2272 170.228 68.3116 170.184 68.4024 170.158Z" fill="#1C2844"/>
<path d="M84.8282 203.101C85.1591 202.928 85.4182 202.645 85.5595 202.3C85.7008 201.955 85.7152 201.571 85.6001 201.216L83.6401 195.135V195.11L81.7788 189.334C81.7173 189.137 81.6173 188.954 81.4846 188.797C81.3519 188.639 81.1891 188.509 81.0056 188.414C80.8222 188.319 80.6218 188.262 80.4161 188.246C80.2103 188.229 80.0033 188.254 79.8071 188.318L74.7605 189.934C74.5613 189.993 74.3767 190.093 74.2185 190.228C74.0603 190.363 73.932 190.529 73.8419 190.716C73.7442 190.899 73.6852 191.1 73.6683 191.306C73.6515 191.512 73.6773 191.72 73.744 191.916L77.5653 203.799C77.6257 203.996 77.7251 204.18 77.8576 204.338C77.9901 204.497 78.153 204.627 78.3368 204.722C78.5205 204.817 78.7214 204.874 78.9275 204.889C79.1336 204.905 79.3409 204.88 79.5369 204.814C84.3864 203.254 84.3309 203.314 84.8282 203.101ZM79.2785 204.007C78.8936 204.109 78.5022 203.934 78.3715 203.541L74.5502 191.65C74.5213 191.561 74.5108 191.468 74.5192 191.375C74.5276 191.283 74.5548 191.193 74.5991 191.111C74.6395 191.026 74.6974 190.95 74.7692 190.889C74.8409 190.828 74.9248 190.782 75.0154 190.756L80.062 189.128C80.1326 189.105 80.2066 189.092 80.2811 189.092C80.4339 189.092 80.5827 189.141 80.706 189.231C80.8292 189.321 80.9206 189.448 80.9667 189.594L84.4332 200.375C84.5193 200.95 84.6048 201.526 84.6785 202.1C84.4784 202.47 84.3492 202.319 79.2799 204.007H79.2785Z" fill="#1C2844"/>
<path d="M88.4786 224.663L91.2097 223.794C91.6056 223.663 91.9341 223.382 92.1244 223.011C92.3147 222.64 92.3515 222.21 92.2269 221.812L88.4049 209.929C88.343 209.731 88.2417 209.548 88.1071 209.39C87.9724 209.232 87.8072 209.104 87.6213 209.011C87.2802 208.825 86.8795 208.782 86.5063 208.89C86.4822 208.901 86.4456 208.901 86.4208 208.914L85.6855 209.146L81.3771 210.529C81.1803 210.591 80.9977 210.691 80.8398 210.823C80.682 210.956 80.5521 211.119 80.4575 211.302C80.363 211.485 80.3058 211.685 80.2891 211.891C80.2725 212.096 80.2968 212.303 80.3606 212.499L84.1819 224.39C84.2818 224.708 84.4809 224.985 84.7499 225.181C85.0189 225.377 85.3437 225.481 85.6767 225.48C85.8387 225.479 85.9996 225.455 86.1543 225.407L87.6607 224.929L88.4786 224.663ZM85.8936 224.602C85.7118 224.657 85.5155 224.64 85.3464 224.553C85.1773 224.466 85.0488 224.317 84.9881 224.137L81.1661 212.245C81.1136 212.066 81.1311 211.874 81.215 211.707C81.2552 211.622 81.3132 211.546 81.3849 211.485C81.4567 211.423 81.5406 211.378 81.6312 211.352L85.8081 210.006L86.6289 209.749L86.6903 209.724C86.7607 209.699 86.8348 209.687 86.9093 209.688C87.0206 209.691 87.1295 209.721 87.2277 209.773C87.3117 209.815 87.3863 209.874 87.4473 209.945C87.5082 210.017 87.5542 210.1 87.5826 210.19L91.4047 222.081C91.4283 222.152 91.4406 222.226 91.4412 222.3C91.4389 222.451 91.3891 222.597 91.2989 222.718C91.2088 222.839 91.0827 222.928 90.9388 222.974L88.391 223.793L87.5585 224.062L85.8936 224.602Z" fill="#1C2844"/>
<path d="M98.8414 242.408L95.0194 230.513C94.8881 230.118 94.6065 229.789 94.2354 229.6C93.8643 229.41 93.4333 229.373 93.0353 229.497L88.283 231.029L87.9909 231.127C87.5952 231.255 87.2662 231.533 87.0757 231.903C86.8852 232.272 86.8488 232.701 86.9744 233.097C87.0146 233.221 90.8366 245.119 90.7957 244.989C90.9244 245.386 91.2057 245.716 91.5778 245.907C91.95 246.097 92.3825 246.132 92.7805 246.004L97.8271 244.389C98.2242 244.26 98.554 243.98 98.7442 243.608C98.9343 243.237 98.9693 242.805 98.8414 242.408ZM97.5672 243.571C92.5183 245.116 92.4336 245.399 91.9699 245.149C91.4829 244.906 91.6866 244.73 89.7646 238.982L87.793 232.838C87.7635 232.75 87.7519 232.656 87.7588 232.563C87.7657 232.471 87.7909 232.38 87.8331 232.297C87.8753 232.214 87.9336 232.14 88.0045 232.08C88.0755 232.019 88.1577 231.974 88.2465 231.945L93.3055 230.317C93.3761 230.293 93.4501 230.281 93.5246 230.281C93.6754 230.283 93.8216 230.333 93.9425 230.423C94.0634 230.513 94.1528 230.638 94.1979 230.782L98.0199 242.678C98.05 242.766 98.0621 242.859 98.0556 242.952C98.049 243.045 98.0239 243.136 97.9817 243.219C97.9396 243.302 97.8812 243.376 97.81 243.437C97.7388 243.497 97.6562 243.543 97.5672 243.571Z" fill="#1C2844"/>
<path d="M101.634 251.113C101.507 250.717 101.228 250.388 100.858 250.198C100.488 250.007 100.058 249.971 99.6622 250.097L94.6031 251.725C94.2097 251.855 93.8831 252.135 93.6931 252.503C93.5032 252.871 93.4649 253.299 93.5866 253.694L97.4079 265.586C97.5363 265.984 97.8174 266.314 98.1895 266.504C98.5615 266.695 98.9941 266.73 99.392 266.602L104.439 264.986C104.637 264.924 104.82 264.822 104.978 264.688C105.136 264.555 105.266 264.391 105.361 264.206C105.455 264.022 105.512 263.821 105.529 263.614C105.545 263.408 105.52 263.2 105.456 263.004C105.416 262.88 101.593 250.982 101.634 251.113ZM104.182 264.172L99.1225 265.799C98.9422 265.854 98.7475 265.836 98.5804 265.749C98.4132 265.662 98.2869 265.513 98.2287 265.334L94.4074 253.442C94.3571 253.291 94.36 253.127 94.4156 252.978C94.4713 252.829 94.5764 252.703 94.7134 252.622C98.274 251.439 99.9462 250.884 100.14 250.884C100.292 250.886 100.44 250.935 100.563 251.025C100.686 251.115 100.778 251.241 100.825 251.386C100.865 251.509 103.215 258.836 103.067 258.374C104.758 263.686 104.674 263.24 104.674 263.477C104.675 263.629 104.628 263.778 104.539 263.901C104.451 264.025 104.326 264.118 104.182 264.166V264.172Z" fill="#1C2844"/>
<path d="M270.657 62.8584C269.623 62.8572 268.612 63.1625 267.753 63.7356C266.893 64.3086 266.222 65.1237 265.826 66.0776C265.43 67.0316 265.326 68.0814 265.527 69.0944C265.729 70.1074 266.226 71.0379 266.957 71.7682C267.688 72.4985 268.62 72.9957 269.633 73.1969C270.647 73.3981 271.698 73.2942 272.653 72.8985C273.608 72.5027 274.424 71.8328 274.997 70.9736C275.571 70.1145 275.876 69.1046 275.875 68.0718C275.874 66.6895 275.324 65.3641 274.346 64.3866C273.367 63.4092 272.041 62.8596 270.657 62.8584ZM270.657 72.4404C269.793 72.4415 268.949 72.1868 268.23 71.7084C267.511 71.2299 266.951 70.5493 266.619 69.7526C266.287 68.9558 266.2 68.0787 266.367 67.2322C266.535 66.3857 266.949 65.6078 267.559 64.9969C268.169 64.3859 268.947 63.9693 269.794 63.7999C270.64 63.6304 271.519 63.7156 272.317 64.0448C273.115 64.3739 273.798 64.9322 274.279 65.649C274.76 66.3658 275.017 67.2089 275.018 68.0718C275.018 69.2283 274.559 70.3376 273.741 71.1565C272.924 71.9754 271.815 72.4371 270.657 72.4404Z" fill="#1C2844"/>
<path d="M216.003 66.9H232.725C232.986 66.905 233.245 66.8581 233.487 66.762C233.729 66.6659 233.949 66.5224 234.135 66.3402C234.321 66.1579 234.469 65.9403 234.57 65.7003C234.671 65.4603 234.723 65.2026 234.723 64.9423C234.723 64.6819 234.671 64.4242 234.57 64.1842C234.469 63.9442 234.321 63.7266 234.135 63.5444C233.949 63.3621 233.729 63.2187 233.487 63.1225C233.245 63.0264 232.986 62.9795 232.725 62.9845H216.003C215.742 62.9795 215.483 63.0264 215.241 63.1225C214.999 63.2187 214.779 63.3621 214.593 63.5444C214.406 63.7266 214.259 63.9442 214.158 64.1842C214.057 64.4242 214.005 64.6819 214.005 64.9423C214.005 65.2026 214.057 65.4603 214.158 65.7003C214.259 65.9403 214.406 66.1579 214.593 66.3402C214.779 66.5224 214.999 66.6659 215.241 66.762C215.483 66.8581 215.742 66.905 216.003 66.9Z" fill="#1C2844"/>
<path d="M208.701 66.9H209.509C209.769 66.905 210.028 66.8581 210.27 66.762C210.513 66.6659 210.733 66.5224 210.919 66.3402C211.105 66.1579 211.253 65.9403 211.354 65.7003C211.455 65.4603 211.507 65.2026 211.507 64.9423C211.507 64.6819 211.455 64.4242 211.354 64.1842C211.253 63.9442 211.105 63.7266 210.919 63.5444C210.733 63.3621 210.513 63.2187 210.27 63.1225C210.028 63.0264 209.769 62.9795 209.509 62.9845H208.701C208.44 62.9795 208.181 63.0264 207.939 63.1225C207.697 63.2187 207.476 63.3621 207.29 63.5444C207.104 63.7266 206.956 63.9442 206.856 64.1842C206.755 64.4242 206.703 64.6819 206.703 64.9423C206.703 65.2026 206.755 65.4603 206.856 65.7003C206.956 65.9403 207.104 66.1579 207.29 66.3402C207.476 66.5224 207.697 66.6659 207.939 66.762C208.181 66.8581 208.44 66.905 208.701 66.9Z" fill="#1C2844"/>
<path d="M177.246 63.8125H166.908C166.852 63.8122 166.796 63.8231 166.744 63.8446C166.692 63.866 166.644 63.8976 166.604 63.9375C166.565 63.9774 166.533 64.0249 166.512 64.077C166.49 64.1292 166.479 64.1851 166.48 64.2415C166.479 64.2981 166.489 64.3543 166.51 64.4069C166.531 64.4594 166.562 64.5072 166.603 64.5472C166.643 64.5872 166.69 64.6187 166.743 64.6398C166.796 64.6608 166.852 64.671 166.908 64.6697H177.246C177.303 64.6711 177.359 64.661 177.412 64.64C177.465 64.619 177.513 64.5875 177.553 64.5474C177.593 64.5074 177.624 64.4596 177.645 64.407C177.666 64.3544 177.676 64.2981 177.675 64.2415C177.675 64.1851 177.665 64.1292 177.643 64.077C177.622 64.0249 177.59 63.9774 177.55 63.9375C177.511 63.8976 177.463 63.866 177.411 63.8446C177.359 63.8231 177.303 63.8122 177.246 63.8125Z" fill="#1C2844"/>
<path d="M177.246 66.9001H166.908C166.802 66.9132 166.705 66.9646 166.634 67.0446C166.563 67.1246 166.524 67.2278 166.524 67.3346C166.524 67.4414 166.563 67.5446 166.634 67.6246C166.705 67.7046 166.802 67.756 166.908 67.769H177.246C177.353 67.756 177.45 67.7046 177.521 67.6246C177.592 67.5446 177.631 67.4414 177.631 67.3346C177.631 67.2278 177.592 67.1246 177.521 67.0446C177.45 66.9646 177.353 66.9132 177.246 66.9001Z" fill="#1C2844"/>
<path d="M177.246 69.9926H166.908C166.852 69.9913 166.796 70.0015 166.743 70.0225C166.69 70.0436 166.643 70.0751 166.603 70.1151C166.562 70.1551 166.531 70.2029 166.51 70.2554C166.489 70.3079 166.479 70.3642 166.48 70.4208C166.479 70.4772 166.49 70.533 166.512 70.5851C166.533 70.6373 166.565 70.6846 166.605 70.7245C166.644 70.7643 166.692 70.7959 166.744 70.8172C166.796 70.8386 166.852 70.8494 166.908 70.8491H177.246C177.303 70.8494 177.359 70.8386 177.411 70.8172C177.463 70.7959 177.51 70.7643 177.55 70.7245C177.59 70.6846 177.622 70.6373 177.643 70.5851C177.665 70.533 177.675 70.4772 177.675 70.4208C177.676 70.3642 177.666 70.3079 177.645 70.2553C177.624 70.2027 177.593 70.1549 177.553 70.1149C177.513 70.0748 177.465 70.0433 177.412 70.0223C177.359 70.0013 177.303 69.9912 177.246 69.9926Z" fill="#1C2844"/>
<path d="M258.763 101.846C238.736 103.278 227.761 95.7759 223.976 92.4841C223.458 92.0343 222.795 91.7866 222.108 91.7866C221.422 91.7866 220.759 92.0343 220.24 92.4841C216.431 95.7759 205.431 103.282 185.441 101.846C183.85 101.706 182.416 103.112 182.416 104.44V140.798C182.414 147.629 184.075 154.358 187.257 160.404C190.439 166.451 195.045 171.633 200.679 175.504C221.804 189.83 220.53 189.64 222.115 189.64C223.742 189.64 222.876 189.513 243.55 175.505C249.179 171.631 253.781 166.447 256.961 160.402C260.14 154.356 261.801 147.629 261.801 140.8V104.687C261.803 104.296 261.724 103.91 261.57 103.551C261.416 103.193 261.189 102.87 260.903 102.603C260.618 102.336 260.281 102.131 259.912 102.001C259.544 101.871 259.153 101.818 258.763 101.846ZM260.944 140.798C260.942 147.488 259.313 154.078 256.198 160C253.083 165.922 248.574 170.999 243.06 174.795L223.232 188.444C222.9 188.665 222.51 188.784 222.111 188.784C221.712 188.784 221.322 188.665 220.99 188.444L201.159 174.801C195.643 171.007 191.133 165.93 188.018 160.008C184.903 154.085 183.275 147.495 183.276 140.804V104.442C183.276 103.628 184.197 102.691 185.224 102.691C185.272 102.691 185.321 102.702 185.37 102.702C205.678 104.161 216.923 96.5011 220.806 93.1327C221.167 92.8189 221.631 92.6462 222.11 92.6462C222.589 92.6462 223.052 92.8189 223.414 93.1327C227.273 96.4981 238.444 104.158 258.826 102.702C259.098 102.682 259.371 102.718 259.628 102.809C259.886 102.9 260.121 103.043 260.32 103.229C260.519 103.416 260.677 103.641 260.785 103.892C260.892 104.143 260.946 104.413 260.944 104.685V140.798Z" fill="#1C2844"/>
<path d="M221.188 111.307C207.085 111.307 195.464 122.761 195.464 137.006C195.464 151.401 207.284 162.717 221.188 162.717C235.372 162.717 246.91 151.19 246.91 137.006C246.906 122.835 235.368 111.307 221.188 111.307ZM221.188 161.86C207.799 161.86 196.322 150.978 196.322 137.006C196.322 123.23 207.551 112.164 221.188 112.164C234.906 112.164 246.065 123.312 246.065 137.006C246.061 150.712 234.903 161.86 221.188 161.86Z" fill="#1C2844"/>
<path d="M195.216 217.945C188.65 217.945 183.31 223.281 183.31 229.853C183.31 236.535 188.79 241.771 195.204 241.771C196.77 241.772 198.321 241.464 199.768 240.865C201.215 240.266 202.53 239.388 203.637 238.281C204.744 237.174 205.621 235.86 206.219 234.414C206.817 232.967 207.124 231.417 207.122 229.853C207.122 223.281 201.782 217.945 195.216 217.945ZM186.875 237.109C191.227 232.128 199.069 232.006 203.557 237.109C199.28 242.066 191.414 242.292 186.875 237.109ZM191.183 228.433C191.185 227.637 191.424 226.86 191.868 226.199C192.312 225.539 192.942 225.024 193.679 224.721C194.416 224.418 195.225 224.34 196.006 224.497C196.787 224.654 197.504 225.038 198.067 225.602C198.629 226.165 199.012 226.883 199.167 227.663C199.321 228.444 199.241 229.253 198.935 229.988C198.63 230.723 198.113 231.351 197.451 231.793C196.788 232.235 196.01 232.471 195.213 232.471H195.201C192.934 232.471 191.186 230.597 191.186 228.433H191.183ZM204.1 236.424C202.383 234.514 200.092 233.213 197.571 232.716C198.343 232.299 198.986 231.68 199.433 230.925C199.88 230.171 200.113 229.309 200.107 228.433C200.107 227.138 199.592 225.896 198.676 224.98C197.759 224.064 196.516 223.55 195.22 223.55C193.923 223.55 192.68 224.064 191.764 224.98C190.847 225.896 190.332 227.138 190.332 228.433C190.332 230.347 191.428 231.95 192.868 232.704C190.346 233.205 188.055 234.511 186.339 236.424C184.92 234.528 184.159 232.221 184.171 229.853C184.171 223.759 189.132 218.803 195.22 218.803C201.308 218.803 206.268 223.759 206.268 229.853C206.278 232.22 205.517 234.527 204.1 236.424Z" fill="#1C2844"/>
<path d="M217.546 226.009H242.729C242.959 226.008 243.18 225.915 243.342 225.753C243.505 225.59 243.597 225.37 243.599 225.14V220.099C243.597 219.869 243.505 219.65 243.342 219.487C243.179 219.325 242.959 219.233 242.729 219.231H217.546C217.432 219.232 217.32 219.255 217.216 219.299C217.111 219.343 217.016 219.407 216.937 219.488C216.857 219.568 216.794 219.664 216.752 219.769C216.709 219.874 216.688 219.987 216.689 220.1V225.14C216.688 225.254 216.709 225.366 216.752 225.471C216.794 225.576 216.857 225.672 216.937 225.753C217.016 225.833 217.111 225.897 217.216 225.942C217.32 225.986 217.432 226.009 217.546 226.009ZM217.546 220.087H242.729L242.742 220.099L242.729 225.153L217.536 225.14L217.546 220.087Z" fill="#1C2844"/>
<path d="M257.699 230.557H243.825C243.711 230.557 243.602 230.602 243.522 230.682C243.441 230.762 243.396 230.871 243.396 230.985C243.396 231.098 243.441 231.207 243.522 231.288C243.602 231.368 243.711 231.413 243.825 231.413H257.699C257.755 231.413 257.811 231.402 257.863 231.381C257.915 231.359 257.962 231.327 258.002 231.288C258.042 231.248 258.074 231.201 258.095 231.149C258.117 231.097 258.128 231.041 258.128 230.985C258.128 230.929 258.117 230.873 258.095 230.821C258.074 230.769 258.042 230.722 258.002 230.682C257.962 230.642 257.915 230.611 257.863 230.589C257.811 230.568 257.755 230.557 257.699 230.557Z" fill="#1C2844"/>
<path d="M217.111 231.415H232.299C232.413 231.415 232.522 231.369 232.602 231.289C232.683 231.209 232.728 231.1 232.728 230.986C232.728 230.873 232.683 230.764 232.602 230.684C232.522 230.603 232.413 230.558 232.299 230.558H217.111C216.997 230.558 216.888 230.603 216.807 230.684C216.727 230.764 216.682 230.873 216.682 230.986C216.682 231.1 216.727 231.209 216.807 231.289C216.888 231.369 216.997 231.415 217.111 231.415Z" fill="#1C2844"/>
<path d="M257.699 235.089H217.111C217 235.093 216.895 235.14 216.819 235.22C216.742 235.3 216.699 235.407 216.699 235.517C216.699 235.628 216.742 235.734 216.819 235.814C216.895 235.894 217 235.941 217.111 235.946H257.699C258.266 235.946 258.265 235.089 257.699 235.089Z" fill="#1C2844"/>
<path d="M239.415 239.621H217.111C217 239.626 216.895 239.673 216.819 239.753C216.742 239.833 216.699 239.939 216.699 240.05C216.699 240.161 216.742 240.267 216.819 240.347C216.895 240.427 217 240.474 217.111 240.479H239.415C239.526 240.474 239.63 240.427 239.707 240.347C239.784 240.267 239.827 240.161 239.827 240.05C239.827 239.939 239.784 239.833 239.707 239.753C239.63 239.673 239.526 239.626 239.415 239.621Z" fill="#1C2844"/>
<path d="M82.9172 43.364C83.0232 43.3654 83.1258 43.3273 83.2052 43.2571C83.2846 43.187 83.335 43.0899 83.3466 42.9846C83.4569 41.8341 83.6036 40.6107 83.7847 39.3624C83.8746 38.7948 83.026 38.6854 82.9399 39.2274C82.7442 40.5005 82.5966 41.7364 82.4871 42.8993C82.481 43.0119 82.518 43.1227 82.5907 43.2091C82.6634 43.2954 82.7663 43.3508 82.8785 43.364H82.9172Z" fill="#1C2844"/>
<path d="M84.4485 57.3757C84.1157 56.2128 83.8458 55.0329 83.6401 53.841C83.5547 53.3004 82.7062 53.4266 82.7952 53.9869C83.005 55.2079 83.279 56.417 83.616 57.6092C83.7913 58.1695 84.5872 57.9024 84.4485 57.3757Z" fill="#1C2844"/>
<path d="M82.2805 46.5943C82.2805 47.4566 82.2206 47.3545 82.3666 50.3026C82.373 50.4119 82.4209 50.5145 82.5006 50.5895C82.5803 50.6646 82.6858 50.7063 82.7953 50.7061C82.802 50.6995 82.8108 50.6954 82.8201 50.6944C82.8765 50.6914 82.9317 50.6773 82.9826 50.6529C83.0335 50.6285 83.0791 50.5942 83.1166 50.552C83.1542 50.5099 83.183 50.4608 83.2014 50.4074C83.2198 50.3541 83.2275 50.2977 83.2239 50.2414C83.2071 49.6088 83.1378 50.199 83.1378 46.6067C83.1395 46.5511 83.1301 46.4956 83.1099 46.4437C83.0898 46.3917 83.0594 46.3444 83.0206 46.3044C82.9817 46.2644 82.9352 46.2327 82.8839 46.2111C82.8325 46.1894 82.7773 46.1783 82.7215 46.1785C82.6101 46.1827 82.504 46.2272 82.4229 46.3037C82.3418 46.3802 82.2912 46.4834 82.2805 46.5943Z" fill="#1C2844"/>
<path d="M84.3507 31.9952C84.0812 33.1946 83.8117 34.394 83.5788 35.5927C83.5674 35.6482 83.5673 35.7055 83.5785 35.7611C83.5897 35.8167 83.612 35.8694 83.644 35.9163C83.676 35.9631 83.7171 36.003 83.7649 36.0336C83.8126 36.0643 83.8661 36.085 83.922 36.0946C84.0447 36.1559 84.355 36.0581 84.4244 35.7641C84.6574 34.5654 84.9144 33.3777 85.1839 32.1893C85.3233 31.6626 84.5011 31.4218 84.3507 31.9952Z" fill="#1C2844"/>
<path d="M129.598 29.4499C129.635 29.5117 129.687 29.5631 129.749 29.5994C129.811 29.6358 129.882 29.6559 129.954 29.6578C130.037 29.6602 130.119 29.6345 130.187 29.5849C130.235 29.5556 130.276 29.517 130.309 29.4715C130.342 29.4259 130.365 29.3742 130.378 29.3195C130.39 29.2648 130.392 29.2081 130.382 29.1528C130.372 29.0975 130.351 29.0448 130.321 28.9976C129.644 27.9214 128.805 26.9556 127.835 26.1341C127.747 26.063 127.634 26.0296 127.522 26.041C127.409 26.0525 127.306 26.108 127.234 26.1954C127.197 26.2374 127.168 26.2865 127.15 26.3399C127.133 26.3932 127.126 26.4496 127.13 26.5057C127.135 26.5617 127.151 26.6163 127.177 26.666C127.203 26.7158 127.239 26.7597 127.283 26.7951C128.188 27.5551 128.968 28.4507 129.598 29.4499Z" fill="#1C2844"/>
<path d="M98.6333 47.4021C98.1798 48.5526 97.7636 49.7279 97.408 50.904C97.3784 51.0127 97.3911 51.1285 97.4433 51.2283C97.4956 51.3281 97.5836 51.4046 97.6898 51.4424C97.8 51.4738 97.9181 51.4608 98.0189 51.4063C98.1196 51.3517 98.1949 51.2599 98.2287 51.1505C98.5836 50.0008 98.9882 48.8503 99.4292 47.7216C99.4705 47.6144 99.4679 47.4952 99.422 47.3898C99.3761 47.2844 99.2906 47.2013 99.1839 47.1584C99.1317 47.1382 99.0761 47.1285 99.0201 47.1298C98.9642 47.1311 98.9091 47.1434 98.8579 47.166C98.8068 47.1887 98.7606 47.2212 98.722 47.2617C98.6835 47.3022 98.6533 47.3499 98.6333 47.4021Z" fill="#1C2844"/>
<path d="M108.897 32.2644L109.326 31.7748C110 31.0161 110.698 30.3062 111.409 29.6453C111.491 29.5669 111.54 29.4594 111.545 29.3457C111.549 29.232 111.509 29.1209 111.434 29.0361C111.395 28.9945 111.348 28.9612 111.295 28.9381C111.243 28.9149 111.187 28.9024 111.13 28.9012C111.073 28.9001 111.017 28.9103 110.964 28.9313C110.911 28.9524 110.862 28.9838 110.822 29.0237C110.099 29.6971 109.376 30.431 108.69 31.2021L108.252 31.7033C108.179 31.7896 108.144 31.9009 108.153 32.0132C108.162 32.1255 108.215 32.2297 108.301 32.303C108.342 32.3403 108.391 32.3688 108.443 32.3871C108.496 32.4053 108.552 32.4129 108.607 32.4093C108.663 32.4057 108.717 32.391 108.767 32.3661C108.817 32.3412 108.861 32.3066 108.897 32.2644Z" fill="#1C2844"/>
<path d="M104.476 38.0527C105.15 37.0372 105.863 36.0457 106.594 35.079C106.936 34.6508 106.271 34.1102 105.907 34.5683C105.172 35.535 104.447 36.5506 103.764 37.5785C103.702 37.6746 103.68 37.7912 103.703 37.9033C103.726 38.0154 103.792 38.1141 103.887 38.1782C103.933 38.2101 103.985 38.2323 104.041 38.2433C104.096 38.2543 104.153 38.2539 104.208 38.2422C104.263 38.2304 104.316 38.2076 104.362 38.175C104.408 38.1424 104.446 38.1008 104.476 38.0527Z" fill="#1C2844"/>
<path d="M113.981 27.4551C114.064 27.4532 114.145 27.4279 114.214 27.3822C115.196 26.6968 116.247 26.1142 117.348 25.6437C117.4 25.622 117.447 25.5903 117.486 25.5506C117.525 25.5109 117.556 25.4639 117.577 25.4122C117.598 25.3605 117.609 25.3052 117.608 25.2494C117.608 25.1936 117.597 25.1384 117.575 25.087C117.553 25.0356 117.521 24.989 117.482 24.9498C117.442 24.9106 117.395 24.8796 117.343 24.8586C117.291 24.8376 117.236 24.827 117.18 24.8274C117.124 24.8278 117.069 24.8391 117.018 24.8608C115.86 25.343 114.758 25.9502 113.732 26.6716C113.637 26.7365 113.573 26.8362 113.552 26.9486C113.531 27.0611 113.556 27.1772 113.621 27.2713C113.66 27.3311 113.713 27.3796 113.776 27.4119C113.84 27.4442 113.91 27.4591 113.981 27.4551Z" fill="#1C2844"/>
<path d="M86.1265 24.8611C85.7767 26.2173 85.4737 27.3985 85.2203 28.422C85.0743 28.9531 85.9162 29.1764 86.0535 28.6299C86.1587 28.2046 86.3412 27.4685 86.9597 25.069C87.1036 24.5225 86.2704 24.3154 86.1265 24.8611Z" fill="#1C2844"/>
<path d="M100.495 44.6245C100.95 44.6245 100.787 44.3093 102.565 41.1489C102.857 40.6783 102.096 40.2304 101.83 40.733C101.205 41.8099 100.63 42.9108 100.102 44.0124C100.074 44.0782 100.062 44.1501 100.068 44.2217C100.073 44.2933 100.097 44.3623 100.135 44.4228C100.174 44.4833 100.227 44.5333 100.29 44.5685C100.352 44.6037 100.423 44.6229 100.495 44.6245Z" fill="#1C2844"/>
<path d="M120.767 24.7631C121.935 24.6566 123.113 24.7805 124.233 25.1279C124.273 25.1381 124.314 25.1423 124.356 25.1403C124.448 25.139 124.539 25.1088 124.613 25.0538C124.688 24.9989 124.744 24.922 124.773 24.8339C124.803 24.7268 124.791 24.612 124.738 24.5138C124.686 24.4156 124.597 24.3417 124.491 24.3079C123.263 23.9278 121.973 23.7947 120.694 23.9161C120.637 23.9181 120.582 23.9316 120.531 23.9559C120.481 23.9802 120.435 24.0147 120.399 24.0572C120.362 24.0997 120.334 24.1494 120.317 24.2031C120.301 24.2567 120.295 24.3133 120.301 24.3692C120.326 24.6158 120.497 24.7996 120.767 24.7631Z" fill="#1C2844"/>
<path d="M132.807 43.3391C132.807 43.4527 132.853 43.5617 132.933 43.642C133.013 43.7223 133.122 43.7674 133.236 43.7674C133.35 43.7674 133.459 43.7223 133.539 43.642C133.62 43.5617 133.665 43.4527 133.665 43.3391V43.0947C133.665 41.9442 133.616 40.7821 133.519 39.644C133.516 39.5868 133.502 39.5308 133.477 39.4795C133.451 39.4281 133.416 39.3826 133.372 39.3458C133.328 39.309 133.277 39.2816 133.222 39.2655C133.167 39.2494 133.11 39.2449 133.053 39.2522C132.996 39.2569 132.942 39.2726 132.891 39.2985C132.841 39.3245 132.797 39.36 132.76 39.4032C132.724 39.4464 132.696 39.4964 132.68 39.5502C132.663 39.604 132.656 39.6607 132.661 39.7169C132.759 40.8309 132.807 41.969 132.807 43.0947V43.3391Z" fill="#1C2844"/>
<path d="M110.772 93.9783C111.764 94.6765 112.817 95.3367 113.907 95.9612C113.971 95.9959 114.043 96.0128 114.116 96.0101C114.589 96.0101 114.687 95.4337 114.335 95.2149C113.269 94.6152 112.24 93.9542 111.26 93.2808C110.8 92.9357 110.299 93.6536 110.772 93.9783Z" fill="#1C2844"/>
<path d="M101.12 75.2059C102.344 75.4403 103.585 75.5755 104.831 75.6101H104.843C104.954 75.6074 105.06 75.5619 105.138 75.4831C105.216 75.4043 105.261 75.2984 105.262 75.1875C105.264 75.0766 105.222 74.9694 105.146 74.8883C105.071 74.8073 104.966 74.7588 104.856 74.7529C103.654 74.7163 102.458 74.5856 101.277 74.3619C101.221 74.3493 101.163 74.3482 101.106 74.3586C101.049 74.369 100.995 74.3908 100.947 74.4225C100.899 74.4542 100.858 74.4952 100.826 74.5432C100.794 74.5912 100.772 74.6451 100.761 74.7017C100.751 74.7583 100.751 74.8165 100.764 74.8728C100.776 74.9291 100.799 74.9824 100.833 75.0294C100.866 75.0765 100.909 75.1163 100.958 75.1467C101.007 75.177 101.061 75.1971 101.118 75.2059H101.12Z" fill="#1C2844"/>
<path d="M105.153 89.1326C105.998 90.0255 106.906 90.8835 107.836 91.7021C108.329 92.0559 108.817 91.3884 108.399 91.0535C107.48 90.2583 106.599 89.4142 105.778 88.5453C105.701 88.4627 105.595 88.4137 105.483 88.4091C105.37 88.4044 105.261 88.4445 105.178 88.5205C105.094 88.5991 105.045 88.7072 105.04 88.8216C105.036 88.936 105.077 89.0477 105.153 89.1326Z" fill="#1C2844"/>
<path d="M108.518 75.4511H108.567C109.803 75.3036 111.027 75.0703 112.23 74.7529C112.284 74.7389 112.336 74.7141 112.381 74.68C112.427 74.6459 112.465 74.603 112.493 74.5541C112.522 74.5051 112.54 74.4509 112.547 74.3947C112.555 74.3386 112.551 74.2815 112.535 74.2269C112.505 74.1177 112.432 74.0247 112.334 73.9677C112.236 73.9107 112.119 73.894 112.009 73.9212C110.847 74.2301 109.664 74.4549 108.469 74.5938C108.356 74.6085 108.253 74.6666 108.182 74.7558C108.111 74.845 108.078 74.9583 108.089 75.0717C108.101 75.1768 108.151 75.2738 108.23 75.344C108.309 75.4141 108.412 75.4522 108.518 75.4511Z" fill="#1C2844"/>
<path d="M102.76 86.2814C102.801 86.3335 102.854 86.3758 102.913 86.4053C102.972 86.4348 103.037 86.4508 103.104 86.4521C103.184 86.4535 103.263 86.4323 103.331 86.3908C103.4 86.3493 103.455 86.2893 103.491 86.2176C103.527 86.146 103.542 86.0657 103.534 85.9859C103.526 85.9062 103.496 85.8303 103.447 85.767C102.736 84.8004 102.059 83.7973 101.438 82.7569C101.142 82.2535 100.419 82.7022 100.703 83.1852C101.34 84.2496 102.026 85.2899 102.76 86.2814Z" fill="#1C2844"/>
<path d="M97.665 74.2029C98.1689 74.2029 98.2492 73.5229 97.8249 73.3829C97.6285 73.2968 97.4328 73.2238 97.2371 73.1377C97.6752 72.8459 97.2554 72.6723 96.7464 69.112C96.7383 69.056 96.7193 69.002 96.6903 68.9533C96.6614 68.9046 96.623 68.862 96.5776 68.8281C96.5321 68.7943 96.4804 68.7697 96.4254 68.7558C96.3704 68.7419 96.3133 68.739 96.2571 68.7473C96.1456 68.7676 96.0459 68.8294 95.9782 68.9203C95.9104 69.0111 95.8797 69.1242 95.892 69.2368C96.0636 70.4486 96.2966 71.6721 96.5784 72.8474C95.8987 72.5403 95.24 72.1886 94.6068 71.7946C94.1051 71.5028 93.6918 72.2324 94.1533 72.5169C95.2034 73.1742 97.267 74.2029 97.665 74.2029Z" fill="#1C2844"/>
<path d="M91.1608 70.2743C91.2372 70.3457 91.3381 70.3851 91.4427 70.3845C91.8158 70.3845 92.0342 69.9059 91.7246 69.6381C90.8331 68.8343 90.0095 67.9583 89.2622 67.019C88.9022 66.5689 88.2399 67.1102 88.6014 67.5574C89.3775 68.5325 90.2336 69.4413 91.1608 70.2743Z" fill="#1C2844"/>
<path d="M95.9628 65.9422H95.9876C96.0431 65.9408 96.0978 65.9282 96.1484 65.9052C96.199 65.8823 96.2444 65.8494 96.2821 65.8086C96.3197 65.7678 96.3488 65.7199 96.3676 65.6676C96.3864 65.6154 96.3945 65.5599 96.3914 65.5045C96.344 64.1964 96.3184 63.2633 96.379 61.8699C96.4075 61.33 95.5531 61.2417 95.5217 61.8334C95.4574 63.2684 95.4867 64.23 95.5341 65.5417C95.5414 65.6504 95.5897 65.7522 95.6693 65.8266C95.7489 65.901 95.8538 65.9423 95.9628 65.9422Z" fill="#1C2844"/>
<path d="M97.616 76.4418C98.015 77.6147 98.4729 78.7667 98.9881 79.8934C99.2218 80.4041 100.01 80.0393 99.7724 79.5381C99.2653 78.4402 98.8153 77.3169 98.4244 76.1726C98.2542 75.6313 97.4371 75.9027 97.616 76.4418Z" fill="#1C2844"/>
<path d="M131.068 101.126C131.057 101.239 131.09 101.352 131.161 101.441C131.232 101.53 131.335 101.588 131.448 101.603C133.319 101.822 134.037 101.85 135.135 101.921C135.414 101.921 135.573 101.736 135.588 101.517C135.592 101.46 135.584 101.404 135.566 101.351C135.547 101.297 135.518 101.248 135.481 101.206C135.443 101.164 135.397 101.13 135.346 101.106C135.295 101.081 135.24 101.067 135.184 101.064C134.804 101.04 134.424 101.027 134.032 100.992C133.212 100.93 132.379 100.857 131.549 100.759C131.437 100.748 131.326 100.779 131.236 100.847C131.147 100.916 131.087 101.015 131.068 101.126Z" fill="#1C2844"/>
<path d="M130.836 57.8287C131.31 56.6841 131.723 55.5152 132.073 54.3268C132.089 54.2738 132.095 54.2179 132.09 54.1626C132.085 54.1072 132.069 54.0535 132.042 54.0044C132.016 53.9554 131.98 53.9121 131.937 53.877C131.894 53.8419 131.844 53.8158 131.791 53.8001C131.737 53.7827 131.68 53.7763 131.624 53.7811C131.567 53.7859 131.513 53.8018 131.462 53.8281C131.412 53.8543 131.368 53.8902 131.332 53.9337C131.296 53.9773 131.268 54.0276 131.252 54.0817C130.913 55.245 130.512 56.3896 130.051 57.5106C129.822 58.0257 130.645 58.3642 130.836 57.8287Z" fill="#1C2844"/>
<path d="M127.258 64.3393C127.977 63.3261 128.635 62.2718 129.23 61.1818C129.513 60.7017 128.749 60.2764 128.483 60.7776C127.9 61.8321 127.258 62.8532 126.561 63.8359C126.526 63.8811 126.502 63.9328 126.488 63.988C126.474 64.0431 126.472 64.1005 126.481 64.1566C126.49 64.2127 126.51 64.2663 126.541 64.3143C126.571 64.3623 126.611 64.4035 126.658 64.4356C126.752 64.497 126.866 64.5211 126.977 64.5033C127.088 64.4855 127.188 64.427 127.258 64.3393Z" fill="#1C2844"/>
<path d="M132.453 51.0615C132.577 51.125 132.891 51.0148 132.943 50.7186C133.175 49.5192 133.359 48.2833 133.481 47.0475C133.488 46.9347 133.45 46.8238 133.378 46.7375C133.305 46.6511 133.202 46.5958 133.089 46.5827C133.033 46.575 132.977 46.5789 132.922 46.5941C132.868 46.6093 132.818 46.6355 132.774 46.6711C132.73 46.7067 132.694 46.7509 132.669 46.801C132.643 46.8511 132.628 46.9059 132.624 46.9621C132.501 48.1732 132.332 49.385 132.113 50.5595C132.102 50.6148 132.101 50.6719 132.112 50.7272C132.123 50.7826 132.145 50.8352 132.177 50.882C132.209 50.9288 132.249 50.9688 132.297 50.9996C132.344 51.0304 132.397 51.0515 132.453 51.0615Z" fill="#1C2844"/>
<path d="M138.834 101.992C140.047 101.98 141.296 101.931 142.533 101.858C142.591 101.856 142.648 101.842 142.701 101.818C142.754 101.794 142.801 101.759 142.84 101.716C142.878 101.673 142.908 101.623 142.927 101.568C142.946 101.513 142.954 101.455 142.949 101.397C142.945 101.34 142.929 101.283 142.903 101.232C142.877 101.18 142.84 101.135 142.795 101.098C142.751 101.06 142.699 101.033 142.644 101.016C142.588 101 142.53 100.995 142.472 101.001C141.247 101.074 140.022 101.124 138.834 101.135C138.777 101.135 138.72 101.147 138.668 101.169C138.615 101.191 138.567 101.223 138.528 101.264C138.488 101.305 138.456 101.353 138.435 101.406C138.414 101.459 138.404 101.516 138.405 101.573C138.406 101.629 138.417 101.684 138.439 101.735C138.461 101.786 138.493 101.832 138.533 101.871C138.572 101.91 138.62 101.941 138.671 101.962C138.723 101.982 138.778 101.993 138.834 101.992Z" fill="#1C2844"/>
<path d="M127.957 100.183C126.757 99.938 125.569 99.6725 124.405 99.3507C123.861 99.1793 123.626 100.024 124.186 100.171C125.362 100.501 126.574 100.783 127.787 101.015C127.915 101.079 128.238 100.971 128.289 100.685C128.302 100.63 128.303 100.573 128.293 100.518C128.283 100.463 128.262 100.41 128.231 100.363C128.2 100.316 128.16 100.276 128.113 100.245C128.066 100.214 128.013 100.193 127.957 100.183Z" fill="#1C2844"/>
<path d="M122.175 69.7722C123.198 68.9237 123.95 68.2467 124.895 67.2188C125.28 66.8037 124.635 66.2222 124.27 66.6431C123.453 67.5253 122.572 68.3474 121.636 69.1032C121.547 69.1731 121.489 69.2755 121.476 69.388C121.462 69.5004 121.494 69.6137 121.563 69.7029C121.638 69.7894 121.742 69.8447 121.856 69.8575C121.969 69.8704 122.083 69.8399 122.175 69.7722Z" fill="#1C2844"/>
<path d="M115.596 73.5908C115.655 73.5904 115.713 73.578 115.767 73.5544C116.915 73.076 118.029 72.5197 119.101 71.8895C119.149 71.8611 119.191 71.8234 119.225 71.7786C119.259 71.7337 119.283 71.6826 119.296 71.6283C119.31 71.574 119.313 71.5175 119.304 71.4621C119.296 71.4067 119.276 71.3536 119.247 71.3059C119.22 71.2573 119.183 71.2149 119.139 71.181C119.095 71.1471 119.045 71.1226 118.991 71.109C118.937 71.0953 118.881 71.0928 118.826 71.1016C118.771 71.1103 118.718 71.1302 118.672 71.16C117.63 71.7688 116.55 72.3084 115.438 72.7752C115.346 72.812 115.27 72.8796 115.223 72.9663C115.176 73.053 115.16 73.1535 115.179 73.2505C115.197 73.3475 115.249 73.4349 115.326 73.4978C115.402 73.5607 115.498 73.5952 115.597 73.5952L115.596 73.5908Z" fill="#1C2844"/>
<path d="M117.007 97.0745C116.982 97.1259 116.968 97.1817 116.965 97.2386C116.962 97.2954 116.971 97.3523 116.99 97.4059C117.01 97.4594 117.039 97.5086 117.078 97.5505C117.116 97.5925 117.163 97.6263 117.215 97.6502C117.744 97.888 120.473 99.0691 120.793 99.0691C121.285 99.0691 121.377 98.3965 120.939 98.2499C119.787 97.8333 118.661 97.3686 117.57 96.8637C117.468 96.8182 117.351 96.8148 117.245 96.8542C117.14 96.8936 117.054 96.9727 117.007 97.0745Z" fill="#1C2844"/>
<path d="M66.6126 0.64765C77.2514 14.2845 76.5737 13.8146 77.0352 13.7191L80.4892 13.0099C86.7488 20.5674 86.6232 20.5244 86.9014 20.5244C86.9101 20.5244 86.9182 20.5178 86.9269 20.5178C86.9832 20.5162 87.0386 20.5033 87.0898 20.4799C87.0942 20.4799 87.0949 20.4733 87.0985 20.4718C87.1704 20.4356 87.2305 20.3797 87.2716 20.3106L87.2848 20.288L92.9879 10.4463L100.918 8.81647C101.014 8.79653 101.099 8.74476 101.161 8.66968C101.223 8.5946 101.258 8.50067 101.26 8.40332C101.261 8.30597 101.229 8.211 101.17 8.13401C101.11 8.05702 101.026 8.00259 100.931 7.97967C64.9506 -0.494833 66.8507 -0.247514 66.5922 0.153741C66.5878 0.160307 66.5922 0.168332 66.5863 0.174898C66.5805 0.181464 66.5702 0.185112 66.5659 0.193867C66.5527 0.220131 66.5659 0.248583 66.5586 0.276306C66.5419 0.320853 66.535 0.368442 66.5383 0.41588C66.5415 0.463318 66.5549 0.509508 66.5775 0.551349C66.585 0.584818 66.5968 0.617184 66.6126 0.64765ZM81.4407 12.8152L84.8239 12.1199L86.1332 18.486L81.4407 12.8152ZM98.8429 8.36488L92.7571 9.6146L73.4249 2.35627L98.8429 8.36488ZM84.0191 11.4086L77.1265 12.8239L68.7288 1.98128L84.0191 11.4086Z" fill="#1C2844"/>
<path d="M113.503 186.054L112.719 183.606L105.48 161.053C105.299 160.505 104.91 160.051 104.397 159.788C103.883 159.524 103.287 159.473 102.736 159.645L85.9922 165.018C85.4431 165.197 84.9871 165.585 84.7233 166.099C84.4595 166.612 84.4093 167.209 84.5835 167.759L92.6431 192.821C92.728 193.095 92.8671 193.349 93.0523 193.567C93.2375 193.786 93.4649 193.965 93.7209 194.094C93.9751 194.228 94.2537 194.309 94.54 194.332C94.8263 194.355 95.1143 194.32 95.3866 194.228L112.119 188.857C112.392 188.77 112.645 188.63 112.864 188.445C113.083 188.259 113.263 188.033 113.394 187.778C113.525 187.524 113.604 187.245 113.627 186.96C113.65 186.675 113.616 186.387 113.528 186.115L113.503 186.054ZM111.862 188.048L95.1172 193.408C94.7842 193.517 94.4219 193.489 94.1097 193.33C93.7974 193.172 93.5607 192.897 93.4515 192.564L85.4043 167.506C85.3511 167.34 85.331 167.166 85.3452 166.992C85.3595 166.819 85.4078 166.65 85.4875 166.496C85.5671 166.341 85.6765 166.204 85.8093 166.092C85.9421 165.979 86.0959 165.894 86.2616 165.841L96.5506 162.537C103.118 160.454 103.011 160.408 103.398 160.408C103.679 160.406 103.953 160.494 104.18 160.659C104.407 160.825 104.575 161.058 104.659 161.326L111.176 181.579L111.96 184.002L112.719 186.388C112.823 186.722 112.791 187.083 112.631 187.393C112.47 187.704 112.194 187.939 111.862 188.048Z" fill="#1C2844"/>
<path d="M221.334 130.09H220.457V152.634H221.334V130.09Z" fill="#1C2844"/>
<path d="M232.214 130.601V129.726H209.65V130.601H232.214Z" fill="#1C2844"/>
<path d="M232.214 125.275V124.4H209.65V125.275H232.214Z" fill="#1C2844"/>
<path d="M167.872 104.169C167.872 109.559 163.487 113.94 158.079 113.94C156.144 113.938 154.253 113.363 152.644 112.288C151.036 111.213 149.783 109.685 149.044 107.898C148.304 106.112 148.112 104.146 148.491 102.25C148.87 100.354 149.803 98.6127 151.172 97.2464C152.541 95.8801 154.285 94.9502 156.183 94.5741C158.082 94.1981 160.049 94.3929 161.836 95.1338C163.624 95.8747 165.151 97.1285 166.226 98.7367C167.3 100.345 167.873 102.235 167.872 104.169Z" fill="#4C91FF"/>
<path d="M158.079 114.368C152.451 114.368 147.872 109.792 147.872 104.169C147.872 98.5452 152.451 93.9548 158.079 93.9548C163.708 93.9548 168.303 98.5364 168.303 104.169C168.303 109.801 163.718 114.368 158.079 114.368ZM158.079 94.8157C152.923 94.8157 148.729 99.0128 148.729 104.171C148.731 106.648 149.717 109.022 151.47 110.774C153.223 112.525 155.6 113.51 158.079 113.513C163.243 113.513 167.444 109.322 167.444 104.171C167.444 99.0194 163.243 94.8135 158.079 94.8135V94.8157Z" fill="#1C2844"/>
<path d="M157.111 105.988L155.549 104.472C155.509 104.433 155.476 104.386 155.454 104.334C155.432 104.283 155.42 104.227 155.419 104.171C155.418 104.057 155.461 103.948 155.541 103.866C155.62 103.785 155.728 103.738 155.842 103.737C155.956 103.735 156.066 103.779 156.147 103.858L157.399 105.076L160.013 102.351C160.092 102.268 160.2 102.221 160.313 102.218C160.427 102.216 160.537 102.259 160.619 102.337C160.702 102.416 160.749 102.524 160.752 102.637C160.754 102.751 160.712 102.861 160.633 102.943L157.72 105.98C157.681 106.021 157.634 106.053 157.582 106.076C157.53 106.098 157.474 106.11 157.417 106.111C157.361 106.111 157.304 106.101 157.252 106.08C157.199 106.059 157.151 106.028 157.111 105.988Z" fill="white"/>
</svg>
