<svg width="16" height="19" viewBox="0 0 16 19" fill="none" xmlns="http://www.w3.org/2000/svg">
<path d="M5.59375 2.5H10.6562V1.09375C10.6562 0.636719 11.0078 0.25 11.5 0.25C11.957 0.25 12.3438 0.636719 12.3438 1.09375V2.5H13.75C14.9805 2.5 16 3.51953 16 4.75V16C16 17.2656 14.9805 18.25 13.75 18.25H2.5C1.23438 18.25 0.25 17.2656 0.25 16V4.75C0.25 3.51953 1.23438 2.5 2.5 2.5H3.90625V1.09375C3.90625 0.636719 4.25781 0.25 4.75 0.25C5.20703 0.25 5.59375 0.636719 5.59375 1.09375V2.5ZM1.9375 16C1.9375 16.3164 2.18359 16.5625 2.5 16.5625H13.75C14.0312 16.5625 14.3125 16.3164 14.3125 16V7H1.9375V16Z" fill="white"/>
</svg>
