<svg width="14" height="19" viewBox="0 0 14 19" fill="none" xmlns="http://www.w3.org/2000/svg">
<path d="M0.772438 11.808V10.296H2.11644C2.03644 9.848 2.02844 9.272 2.09244 8.568H0.772438V7.032H2.38044C2.87644 5.176 3.86844 3.672 5.35644 2.52C6.84444 1.352 8.56444 0.767999 10.5164 0.767999C11.3164 0.767999 12.1164 0.863999 12.9164 1.056L12.3644 3.216C11.8364 3.056 11.2044 2.976 10.4684 2.976C9.14044 2.976 7.98044 3.344 6.98844 4.08C5.99644 4.816 5.30044 5.8 4.90044 7.032H11.6444L11.3324 8.568H4.56444C4.48444 9.048 4.48444 9.624 4.56444 10.296H11.0204L10.7084 11.808H4.94844C5.33244 13.088 6.02844 14.112 7.03644 14.88C8.04444 15.648 9.21244 16.032 10.5404 16.032C11.3244 16.032 12.0524 15.928 12.7244 15.72L13.1804 17.88C12.4444 18.152 11.5564 18.288 10.5164 18.288C8.48444 18.288 6.73244 17.696 5.26044 16.512C3.78844 15.312 2.82044 13.744 2.35644 11.808H0.772438Z" fill="white"/>
</svg>
