<svg width="18" height="17" viewBox="0 0 18 17" fill="none" xmlns="http://www.w3.org/2000/svg">
<path d="M2.25 0.375H15.75C16.3477 0.375 16.875 0.902344 16.875 1.5C16.875 2.13281 16.3477 2.625 15.75 2.625H2.8125C2.49609 2.625 2.25 2.90625 2.25 3.1875C2.25 3.50391 2.49609 3.75 2.8125 3.75H15.75C16.9805 3.75 18 4.76953 18 6V13.875C18 15.1406 16.9805 16.125 15.75 16.125H2.25C0.984375 16.125 0 15.1406 0 13.875V2.625C0 1.39453 0.984375 0.375 2.25 0.375ZM14.625 11.0625C15.2227 11.0625 15.75 10.5703 15.75 9.9375C15.75 9.33984 15.2227 8.8125 14.625 8.8125C13.9922 8.8125 13.5 9.33984 13.5 9.9375C13.5 10.5703 13.9922 11.0625 14.625 11.0625Z" fill="white"/>
</svg>
