<svg width="12" height="23" viewBox="0 0 12 23" fill="none" xmlns="http://www.w3.org/2000/svg">
<path d="M0.588438 18.056L1.90844 16.256C2.43644 16.784 3.09244 17.224 3.87644 17.576C4.67644 17.912 5.46044 18.08 6.22844 18.08C7.06044 18.08 7.75644 17.856 8.31644 17.408C8.87644 16.96 9.15644 16.352 9.15644 15.584C9.15644 14.944 8.86844 14.392 8.29244 13.928C7.73244 13.448 7.04444 13.04 6.22844 12.704C5.41244 12.352 4.59644 11.976 3.78044 11.576C2.96444 11.176 2.26844 10.632 1.69244 9.944C1.13244 9.256 0.852438 8.44 0.852438 7.496C0.852438 6.328 1.26044 5.312 2.07644 4.448C2.90844 3.568 3.98844 3.032 5.31644 2.84V0.584H6.99644V2.816C8.61244 2.912 9.98844 3.472 11.1244 4.496L10.0444 6.44C9.56444 6.008 8.98844 5.656 8.31644 5.384C7.64444 5.096 6.98044 4.952 6.32444 4.952C5.44444 4.952 4.70844 5.2 4.11644 5.696C3.54044 6.176 3.25244 6.76 3.25244 7.448C3.25244 7.976 3.45244 8.448 3.85244 8.864C4.26844 9.264 4.78044 9.592 5.38844 9.848C6.01244 10.088 6.68444 10.376 7.40444 10.712C8.12444 11.048 8.78844 11.4 9.39644 11.768C10.0204 12.12 10.5324 12.624 10.9324 13.28C11.3484 13.92 11.5564 14.664 11.5564 15.512C11.5564 16.744 11.1484 17.8 10.3324 18.68C9.51644 19.56 8.40444 20.08 6.99644 20.24V22.448H5.31644V20.24C3.34844 20.048 1.77244 19.32 0.588438 18.056Z" fill="white"/>
</svg>
