<svg width="70" height="70" viewBox="0 0 70 70" fill="none" xmlns="http://www.w3.org/2000/svg">
<g clip-path="url(#clip0_168_354)">
<path d="M55.5669 34.0831L55.5312 44.4786L17.3252 66.6693L17.4342 36.0742L55.6402 13.8835L55.5973 25.9307" fill="white"/>
<path d="M17.4341 36.0742L17.3252 66.6693L4.18433 59.0675L4.2933 28.4724L17.4341 36.0742Z" fill="#F0F0F0"/>
<path d="M55.6403 13.8835L17.4557 36.0617L4.29346 28.4509L42.478 6.27097L55.6403 13.8835Z" fill="white"/>
<path d="M55.9797 10.096C55.676 9.91729 55.2365 9.94411 54.7649 10.214L15.7551 32.73C14.7922 33.2662 14.0312 34.605 14.0312 35.7025L14.0615 42.9325L3.34307 36.6945L3.33057 29.4644C3.33057 28.3669 4.09158 27.0335 5.03659 26.4919L44.0465 3.97058C44.5359 3.70068 44.9593 3.6846 45.2791 3.85261L55.9797 10.096Z" fill="white"/>
<path d="M54.7578 10.214C55.7064 9.66705 56.4853 10.1103 56.4888 11.2006L56.5049 18.4379L38.0263 38.8322L32.5813 41.9745L14.0562 42.9343L14.0383 35.6971C14.0383 34.6068 14.7993 33.2716 15.7479 32.7246L54.7578 10.214Z" fill="white"/>
<path d="M38.8747 34.4459L38.8943 43.1899C38.895 43.284 38.8717 43.3766 38.8267 43.4592C38.7817 43.5417 38.7165 43.6114 38.6371 43.6618L33.7263 46.7773C33.6422 46.8306 33.5453 46.8604 33.4458 46.8636C33.3463 46.8668 33.2478 46.8433 33.1605 46.7955C33.0731 46.7477 33.0002 46.6773 32.9492 46.5918C32.8982 46.5062 32.8711 46.4086 32.8706 46.309L32.8491 38.0332C32.8486 37.7973 32.9078 37.565 33.0212 37.3581C33.1346 37.1512 33.2985 36.9764 33.4976 36.85L38.019 33.9901C38.1022 33.9373 38.1979 33.9075 38.2963 33.9038C38.3948 33.9 38.4925 33.9225 38.5795 33.9688C38.6664 34.0151 38.7396 34.0837 38.7914 34.1675C38.8433 34.2513 38.872 34.3474 38.8747 34.4459Z" fill="#F0F0F0"/>
<path d="M39.7589 15.4601L36.3522 13.476L36.3379 7.07712L39.7446 9.06114L39.7589 15.4601Z" fill="white"/>
<path d="M36.1558 6.67853L39.5642 8.66077C39.6264 8.70603 39.6756 8.76683 39.707 8.83709C39.7383 8.90735 39.7507 8.9846 39.7429 9.06115L36.3344 7.07712C36.3427 7.0008 36.3305 6.92365 36.2991 6.8536C36.2677 6.78355 36.2182 6.72313 36.1558 6.67853Z" fill="white"/>
<path d="M32.7151 5.5024L35.7252 3.76504C36.6059 3.26456 37.4009 3.21273 37.9886 3.54161L41.3828 5.531C40.8129 5.20211 40.0001 5.23607 39.1194 5.75442L21.5268 15.9033C19.7654 16.9239 18.347 19.3781 18.3452 21.3996L18.3631 27.8129L14.9689 25.8235L14.9546 19.4281C14.9546 17.4048 16.373 14.9346 18.1362 13.9139L27.6042 8.44805" fill="#F0F0F0"/>
<path d="M39.1248 5.74729C40.8862 4.73204 42.319 5.55067 42.3225 7.57223L42.3386 13.9712L39.759 15.4601L39.7447 9.06114C39.7447 8.67149 39.4732 8.50705 39.132 8.70366L21.5358 18.8579C21.3561 18.9757 21.2066 19.1341 21.0995 19.3204C20.9925 19.5068 20.9308 19.7157 20.9195 19.9304L20.9356 26.3275L18.3632 27.8057L18.3489 21.4104C18.3489 19.387 19.778 16.9204 21.5287 15.9051L39.1248 5.74729Z" fill="white"/>
<path d="M62.9055 53.2423V56.8332C62.9055 58.7601 61.6336 60.6815 59.1058 62.1508C54.0181 65.1054 45.7399 65.1018 40.6218 62.1419C38.044 60.6529 36.7632 58.6993 36.7632 56.7474V53.1583C36.7632 55.1084 38.0423 57.062 40.6183 58.5509C45.7363 61.5109 54.0163 61.5145 59.1023 58.5509C61.6336 57.0924 62.8984 55.1692 62.9055 53.2423Z" fill="#F0F0F0"/>
<path d="M49.8719 64.6853C46.467 64.6853 43.0567 63.931 40.4557 62.4278C37.8547 60.9246 36.4292 58.9084 36.4363 56.7474V53.1565C36.4363 53.0693 36.4709 52.9856 36.5326 52.924C36.5942 52.8623 36.6778 52.8276 36.765 52.8276C36.8083 52.8276 36.8512 52.8362 36.8912 52.8528C36.9312 52.8695 36.9675 52.8939 36.9981 52.9246C37.0286 52.9553 37.0528 52.9918 37.0692 53.0319C37.0856 53.072 37.0939 53.115 37.0937 53.1583V53.1833C37.0937 55.0887 38.4085 56.8922 40.7826 58.2667C45.8025 61.1677 53.9467 61.1731 58.9362 58.2667C61.2746 56.9083 62.5662 55.1209 62.5715 53.2352C62.5715 53.1918 62.5801 53.1489 62.5967 53.1089C62.6133 53.0689 62.6377 53.0325 62.6684 53.002C62.6991 52.9714 62.7356 52.9472 62.7757 52.9308C62.8158 52.9144 62.8587 52.906 62.902 52.9063C62.9892 52.9063 63.0728 52.9409 63.1344 53.0026C63.1961 53.0643 63.2307 53.1479 63.2307 53.2352V56.8261C63.2307 58.9585 61.8177 60.9478 59.2684 62.4278C56.6835 63.9382 53.2804 64.6871 49.8719 64.6853ZM37.0955 55.6482V56.7474C37.0955 58.6635 38.3996 60.4778 40.7844 61.8558C45.806 64.7586 53.9485 64.764 58.938 61.8648C61.2764 60.5064 62.5679 58.7189 62.5733 56.8314V55.7054C61.9231 56.8815 60.803 57.9557 59.2702 58.8458C54.1003 61.8505 45.6596 61.8469 40.4575 58.8369C38.8944 57.9343 37.7547 56.8439 37.0955 55.6482Z" fill="black"/>
<path d="M59.1541 62.4511C59.067 62.4511 58.9834 62.4164 58.9217 62.3547C58.8601 62.2931 58.8254 62.2094 58.8254 62.1222V60.3205C58.8254 60.2771 58.834 60.2341 58.8506 60.1939C58.8672 60.1538 58.8915 60.1174 58.9222 60.0867C58.9529 60.056 58.9894 60.0316 59.0295 60.015C59.0695 59.9984 59.1125 59.9898 59.1559 59.9898C59.1993 59.9898 59.2423 59.9984 59.2824 60.015C59.3225 60.0316 59.3589 60.056 59.3896 60.0867C59.4203 60.1174 59.4446 60.1538 59.4613 60.1939C59.4779 60.2341 59.4864 60.2771 59.4864 60.3205V62.1222C59.4864 62.1657 59.4778 62.2087 59.4611 62.2489C59.4443 62.289 59.4198 62.3254 59.3889 62.356C59.358 62.3866 59.3213 62.4108 59.281 62.4271C59.2407 62.4434 59.1976 62.4515 59.1541 62.4511Z" fill="black"/>
<path d="M54.4932 64.2063C54.4056 64.2063 54.3215 64.1714 54.2596 64.1094C54.1976 64.0474 54.1628 63.9633 54.1628 63.8756V62.0757C54.1594 62.0303 54.1655 61.9848 54.1805 61.9419C54.1956 61.899 54.2193 61.8596 54.2502 61.8263C54.2812 61.793 54.3186 61.7664 54.3603 61.7482C54.4019 61.7301 54.4469 61.7207 54.4924 61.7207C54.5378 61.7207 54.5828 61.7301 54.6244 61.7482C54.6661 61.7664 54.7035 61.793 54.7345 61.8263C54.7654 61.8596 54.7891 61.899 54.8042 61.9419C54.8192 61.9848 54.8253 62.0303 54.8219 62.0757V63.8774C54.8219 63.9646 54.7873 64.0483 54.7257 64.1099C54.664 64.1716 54.5804 64.2063 54.4932 64.2063Z" fill="black"/>
<path d="M49.8309 64.6942C49.7875 64.6942 49.7445 64.6857 49.7044 64.6691C49.6643 64.6524 49.6279 64.6281 49.5972 64.5974C49.5665 64.5667 49.5422 64.5302 49.5256 64.4901C49.509 64.45 49.5004 64.407 49.5004 64.3636V62.5636C49.4971 62.5183 49.5031 62.4727 49.5182 62.4298C49.5332 62.3869 49.5569 62.3476 49.5879 62.3143C49.6188 62.281 49.6563 62.2544 49.6979 62.2362C49.7396 62.2181 49.7846 62.2087 49.83 62.2087C49.8754 62.2087 49.9204 62.2181 49.9621 62.2362C50.0037 62.2544 50.0412 62.281 50.0721 62.3143C50.1031 62.3476 50.1268 62.3869 50.1418 62.4298C50.1569 62.4727 50.1629 62.5183 50.1596 62.5636V64.3654C50.1596 64.4526 50.125 64.5362 50.0633 64.5979C50.0017 64.6596 49.9181 64.6942 49.8309 64.6942Z" fill="black"/>
<path d="M45.17 64.1848C45.1266 64.1848 45.0836 64.1763 45.0435 64.1597C45.0034 64.1431 44.967 64.1187 44.9363 64.088C44.9056 64.0573 44.8813 64.0208 44.8647 63.9807C44.8481 63.9406 44.8395 63.8976 44.8395 63.8542V62.0542C44.8362 62.0089 44.8422 61.9633 44.8573 61.9204C44.8723 61.8775 44.8961 61.8382 44.927 61.8049C44.9579 61.7716 44.9954 61.745 45.037 61.7268C45.0787 61.7087 45.1237 61.6993 45.1691 61.6993C45.2146 61.6993 45.2595 61.7087 45.3012 61.7268C45.3428 61.745 45.3803 61.7716 45.4112 61.8049C45.4422 61.8382 45.4659 61.8775 45.4809 61.9204C45.496 61.9633 45.502 62.0089 45.4987 62.0542V63.8542C45.4987 63.9416 45.4641 64.0254 45.4025 64.0874C45.3409 64.1493 45.2573 64.1844 45.17 64.1848Z" fill="black"/>
<path d="M40.5146 62.4082C40.4269 62.4082 40.3429 62.3733 40.2809 62.3113C40.2189 62.2493 40.1841 62.1652 40.1841 62.0775V60.2758C40.1902 60.1925 40.2276 60.1147 40.2887 60.0578C40.3499 60.001 40.4302 59.9694 40.5137 59.9694C40.5971 59.9694 40.6775 60.001 40.7386 60.0578C40.7998 60.1147 40.8371 60.1925 40.8433 60.2758V62.0775C40.8435 62.1208 40.8352 62.1638 40.8188 62.2039C40.8023 62.244 40.7782 62.2805 40.7476 62.3112C40.7171 62.3419 40.6808 62.3663 40.6408 62.383C40.6008 62.3996 40.5579 62.4082 40.5146 62.4082Z" fill="black"/>
<path d="M59.0505 47.8479C64.1685 50.8079 64.1935 55.6053 59.1058 58.5599C54.0181 61.5145 45.7399 61.5109 40.6218 58.5599C35.5038 55.6089 35.4805 50.8043 40.5682 47.8497C45.6559 44.8951 53.9324 44.888 59.0505 47.8479Z" fill="white"/>
<path d="M49.8736 61.0908C46.4687 61.0908 43.0566 60.3365 40.4574 58.8315C37.8582 57.3265 36.4398 55.3246 36.438 53.1708C36.4362 51.017 37.8439 49.0347 40.402 47.5494C45.5737 44.5466 54.0145 44.5483 59.2147 47.5494C61.805 49.0473 63.2324 51.0581 63.2342 53.2119C63.236 55.3658 61.83 57.3462 59.2701 58.8333C56.7102 60.3205 53.2821 61.0908 49.8736 61.0908ZM49.8039 45.955C46.5169 45.955 43.2335 46.67 40.7397 48.125C38.3923 49.4887 37.1007 51.2815 37.1025 53.1762C37.1043 55.0708 38.4155 56.8904 40.7915 58.2667C45.8113 61.1677 53.9555 61.173 58.945 58.2667C61.2923 56.9047 62.5821 55.1102 62.5803 53.2173C62.5786 51.3244 61.2673 49.5013 58.8896 48.1267C56.3761 46.6825 53.0838 45.955 49.8039 45.955Z" fill="black"/>
<path d="M49.804 47.3743C52.9927 47.3743 55.9671 48.0892 58.1804 49.3619C60.074 50.4558 61.162 51.8642 61.1637 53.2262C61.1655 54.5883 60.1241 55.9503 58.234 57.0477" fill="white"/>
<path d="M58.2288 57.3784C58.1561 57.3784 58.0854 57.3545 58.0277 57.3103C57.97 57.2661 57.9284 57.204 57.9095 57.1338C57.8906 57.0635 57.8953 56.989 57.923 56.9218C57.9507 56.8545 57.9998 56.7983 58.0627 56.7617C59.8491 55.725 60.828 54.4703 60.828 53.2262C60.828 51.9822 59.8009 50.681 58.0109 49.6514C55.8457 48.4002 52.9285 47.7103 49.7934 47.7103C49.7057 47.7103 49.6217 47.6755 49.5597 47.6134C49.4977 47.5514 49.4629 47.4673 49.4629 47.3796C49.4629 47.2919 49.4977 47.2078 49.5597 47.1458C49.6217 47.0838 49.7057 47.049 49.7934 47.049C53.0375 47.049 56.0726 47.7729 58.336 49.0812C60.3439 50.2305 61.4872 51.7445 61.4872 53.2262C61.4872 54.708 60.3904 56.1737 58.395 57.3373C58.3441 57.3653 58.2868 57.3794 58.2288 57.3784Z" fill="black"/>
<path d="M53.3644 58.0772C52.2845 58.2615 51.1908 58.353 50.0952 58.3507C47.0941 58.3507 44.293 57.684 42.21 56.4793C40.4236 55.4498 39.4054 54.1235 39.4036 52.8437C39.4018 51.5639 40.3825 50.2806 42.1618 49.2474" fill="white"/>
<path d="M50.0951 58.6796C47.0367 58.6796 44.1785 57.9986 42.0437 56.7653C40.1573 55.675 39.0747 54.245 39.0747 52.8455C39.0747 51.446 40.1108 50.0572 41.9955 48.9615C42.0711 48.9176 42.1609 48.9056 42.2454 48.9281C42.3298 48.9505 42.4018 49.0056 42.4457 49.0812C42.4895 49.1568 42.5015 49.2468 42.4791 49.3312C42.4566 49.4157 42.4015 49.4878 42.326 49.5316C40.6539 50.504 39.7321 51.6765 39.7339 52.8437C39.7357 54.0109 40.6968 55.2246 42.3742 56.1933C44.4089 57.3694 47.1511 58.0183 50.0951 58.0201C51.1726 58.0227 52.2484 57.933 53.3106 57.7519C53.3533 57.744 53.397 57.7447 53.4394 57.7539C53.4818 57.7632 53.5219 57.7808 53.5573 57.8058C53.5928 57.8308 53.6229 57.8626 53.6459 57.8994C53.6688 57.9362 53.6842 57.9772 53.6911 58.0201C53.7062 58.1063 53.6864 58.195 53.6362 58.2668C53.586 58.3385 53.5094 58.3873 53.4232 58.4026C52.3238 58.5901 51.2103 58.6828 50.0951 58.6796Z" fill="black"/>
<path d="M49.8487 55.8698C49.9232 55.827 50.004 55.7962 50.0881 55.7787C50.8512 55.6169 51.5891 55.3529 52.2818 54.994L49.8934 53.6034C49.3663 53.7849 48.8295 53.9371 48.2856 54.0592C47.8166 54.1617 47.3356 54.1984 46.8565 54.1682C46.385 54.1406 45.9266 54.0022 45.5185 53.7642C45.2051 53.6019 44.9503 53.3457 44.7896 53.0314C44.728 52.8893 44.6992 52.7352 44.7054 52.5805C44.7116 52.4257 44.7526 52.2744 44.8253 52.1377C45.0404 51.7488 45.3532 51.4229 45.7328 51.1922L45.0058 50.7685C44.9691 50.7533 44.937 50.7288 44.9126 50.6975C44.8882 50.6662 44.8723 50.6291 44.8664 50.5898C44.8698 50.5507 44.884 50.5133 44.9073 50.4818C44.9307 50.4502 44.9623 50.4258 44.9986 50.4111C45.0975 50.3567 45.2091 50.3295 45.322 50.3324C45.4345 50.3294 45.5456 50.3573 45.6435 50.4129L46.3581 50.8293C47.0426 50.4616 47.7682 50.176 48.5196 49.9785C48.6373 49.9406 48.7616 49.9275 48.8846 49.9401C49.0076 49.9527 49.1267 49.9908 49.2342 50.0518C49.2821 50.0747 49.3239 50.1084 49.3565 50.1503C49.389 50.1922 49.4114 50.2411 49.4218 50.2931C49.4361 50.3896 49.3789 50.4718 49.2539 50.5469C49.1869 50.5796 49.1161 50.6037 49.0431 50.6184C48.4166 50.7894 47.8109 51.0292 47.237 51.3334L49.7094 52.7722C50.2442 52.5765 50.7893 52.41 51.3422 52.2735C51.8166 52.1627 52.3048 52.1223 52.7909 52.1538C53.2925 52.1854 53.7794 52.3361 54.2111 52.5935C54.5274 52.7505 54.7757 53.0173 54.9096 53.3442C54.958 53.495 54.971 53.6549 54.9474 53.8114C54.9239 53.968 54.8645 54.117 54.7739 54.2468C54.525 54.6188 54.196 54.9303 53.811 55.1584L54.547 55.5892C54.6363 55.641 54.6828 55.7 54.681 55.7679C54.6792 55.8359 54.6327 55.8984 54.5345 55.9467C54.441 56.0004 54.3351 56.0287 54.2272 56.0289C54.1162 56.0318 54.0066 56.0033 53.911 55.9467L53.1732 55.5177C52.3476 55.9294 51.4756 56.2402 50.5758 56.4436C50.4511 56.4725 50.3224 56.4797 50.1953 56.465C50.0764 56.4557 49.9608 56.4216 49.8559 56.3649C49.8076 56.3419 49.766 56.307 49.7347 56.2636C49.7035 56.2202 49.6837 56.1696 49.6772 56.1165C49.6629 56.0253 49.7237 55.9413 49.8487 55.8698ZM52.9196 54.6186C53.833 54.0109 53.9295 53.4973 53.209 53.0779C52.9032 52.9147 52.5508 52.8611 52.2104 52.926C51.6925 53.014 51.1828 53.1449 50.6866 53.3174L52.9196 54.6186ZM46.6332 51.7069C46.2759 51.9804 46.0633 52.2432 46.0079 52.5059C45.9526 52.7687 46.0865 52.9885 46.4045 53.1744C46.726 53.3545 47.0963 53.4277 47.4621 53.3835C47.9581 53.3222 48.4459 53.2059 48.9162 53.0368L46.6332 51.7069Z" fill="white"/>
<path d="M50.3275 56.8011C50.2716 56.8046 50.2155 56.8046 50.1596 56.8011C49.9944 56.7885 49.834 56.7397 49.6898 56.6581C49.593 56.6105 49.5101 56.5389 49.4491 56.4499C49.3881 56.361 49.351 56.2579 49.3414 56.1504C49.3359 56.0333 49.3654 55.9171 49.4262 55.8168C49.487 55.7166 49.5763 55.6367 49.6826 55.5874C49.7861 55.5281 49.8982 55.4853 50.0149 55.4605C50.5485 55.344 51.0705 55.1795 51.5744 54.969L49.8559 53.968C49.365 54.1328 48.8659 54.2724 48.3607 54.3863C47.8621 54.4932 47.3512 54.5317 46.8422 54.5007C46.3199 54.4698 45.812 54.3167 45.3595 54.0538C44.9861 53.8578 44.6841 53.5488 44.4967 53.1708C44.4138 52.9847 44.3741 52.7822 44.3806 52.5785C44.3871 52.3748 44.4396 52.1752 44.5342 51.9947C44.6834 51.6991 44.8927 51.4379 45.1487 51.2279L44.8468 51.0492C44.7605 51.0063 44.6869 50.9415 44.6336 50.8611C44.5803 50.7808 44.5491 50.6878 44.5431 50.5916C44.5428 50.4913 44.5705 50.3929 44.6233 50.3076C44.676 50.2223 44.7516 50.1535 44.8415 50.109C44.9912 50.0289 45.1584 49.987 45.3283 49.987C45.4981 49.987 45.6653 50.0289 45.815 50.109L46.376 50.4343C47.0355 50.0985 47.7298 49.8359 48.4464 49.6514C48.6046 49.6028 48.771 49.5873 48.9354 49.6057C49.0998 49.6242 49.2587 49.6762 49.4022 49.7587C49.4939 49.8057 49.5733 49.8738 49.6338 49.9574C49.6944 50.0409 49.7343 50.1376 49.7505 50.2395C49.7647 50.3596 49.7404 50.4812 49.681 50.5866C49.6215 50.692 49.5302 50.7758 49.42 50.8257C49.3266 50.8747 49.2268 50.9102 49.1235 50.9312C48.7192 51.0442 48.3234 51.1858 47.9391 51.3548L49.7452 52.4058C50.3115 52.2092 50.817 52.0483 51.2672 51.9482C51.774 51.8314 52.2951 51.7886 52.8142 51.8213C53.3665 51.8568 53.9027 52.0221 54.3791 52.3039C54.7639 52.5012 55.0641 52.8315 55.2241 53.2334C55.2882 53.43 55.3066 53.6386 55.2778 53.8434C55.249 54.0481 55.1738 54.2436 55.0579 54.4149C54.8871 54.6885 54.6701 54.9304 54.4166 55.1298L54.715 55.3086C54.8029 55.3521 54.8773 55.4189 54.9299 55.5018C54.9825 55.5847 55.0113 55.6805 55.0133 55.7787C55.01 55.8783 54.9791 55.9752 54.9238 56.0582C54.8686 56.1412 54.7913 56.2072 54.7007 56.2487C54.5588 56.3288 54.3991 56.3718 54.2362 56.3739C54.0644 56.3784 53.8947 56.3344 53.7467 56.247L53.1626 55.9073C52.3608 56.2939 51.5183 56.5895 50.6509 56.7885C50.5439 56.8053 50.4354 56.8095 50.3275 56.8011ZM50.0935 56.1147C50.1364 56.1236 50.181 56.1308 50.2293 56.1361C50.32 56.1461 50.4117 56.1412 50.5008 56.1218C51.3736 55.9231 52.2192 55.62 53.0196 55.2192C53.0687 55.1946 53.1231 55.1825 53.178 55.1841C53.2328 55.1856 53.2865 55.2008 53.3341 55.2281L53.5502 55.3532C53.5213 55.3174 53.5002 55.2759 53.4883 55.2314C53.4764 55.1869 53.4741 55.1403 53.4813 55.0948C53.4885 55.0493 53.5052 55.0059 53.5304 54.9673C53.5555 54.9286 53.5884 54.8957 53.627 54.8706C53.9697 54.6685 54.2637 54.3933 54.4881 54.0645C54.5529 53.9755 54.5963 53.8728 54.6149 53.7643C54.6335 53.6558 54.6267 53.5444 54.5953 53.4389C54.4846 53.189 54.289 52.9863 54.0433 52.867C53.6551 52.6364 53.2182 52.5004 52.7678 52.4702C52.3133 52.4436 51.8575 52.4815 51.4137 52.5828C50.8731 52.7171 50.34 52.88 49.8166 53.0707C49.7712 53.0864 49.723 53.0922 49.6752 53.0875C49.6275 53.0829 49.5812 53.068 49.5397 53.0439L49.1681 52.8276C49.2225 52.8957 49.2481 52.9823 49.2396 53.0689C49.2335 53.132 49.2093 53.192 49.17 53.2418C49.1308 53.2915 49.078 53.329 49.0181 53.3496C48.5231 53.5248 48.0103 53.6447 47.4889 53.707C47.0558 53.7568 46.618 53.6679 46.2384 53.4532C45.6453 53.1083 45.6382 52.6668 45.6864 52.4344C45.7561 52.0894 46.0008 51.7641 46.4349 51.437C46.4865 51.4003 46.5473 51.3788 46.6105 51.375C46.6737 51.3712 46.7366 51.3853 46.7922 51.4156L46.9709 51.5228C46.9218 51.463 46.8958 51.3875 46.8976 51.3101C46.899 51.2508 46.9163 51.193 46.9478 51.1426C46.9792 51.0923 47.0236 51.0514 47.0763 51.0241C47.6713 50.7069 48.2999 50.4569 48.9502 50.2788H48.9788C48.8582 50.2421 48.7295 50.2421 48.609 50.2788C47.8811 50.4701 47.1784 50.7466 46.5153 51.1028C46.4661 51.13 46.4108 51.1443 46.3545 51.1443C46.2983 51.1443 46.243 51.13 46.1938 51.1028L45.9901 50.983C46.0341 51.0388 46.0597 51.1069 46.0634 51.1779C46.0648 51.2338 46.0523 51.2892 46.0271 51.3391C46.0018 51.389 45.9646 51.4319 45.9187 51.4638C45.5879 51.6617 45.3141 51.9419 45.1237 52.2771C45.0701 52.371 45.0391 52.4761 45.0332 52.5841C45.0273 52.6921 45.0467 52.8 45.0898 52.8991C45.2239 53.1501 45.4314 53.354 45.6846 53.4836C46.0483 53.6946 46.4565 53.8171 46.8762 53.8411C47.3247 53.8699 47.775 53.8362 48.2142 53.741C48.7441 53.621 49.2671 53.4724 49.7809 53.2959C49.8254 53.2807 49.8727 53.2752 49.9196 53.2798C49.9664 53.2844 50.0117 53.2991 50.0524 53.3228L50.4222 53.539C50.3676 53.4704 50.342 53.3832 50.3507 53.2959C50.3577 53.2328 50.3826 53.173 50.4225 53.1236C50.4624 53.0742 50.5156 53.0372 50.5758 53.0171C51.0905 52.8375 51.6193 52.7018 52.1568 52.6114C52.5707 52.5361 52.9979 52.6042 53.368 52.8044C53.7824 53.0457 53.9986 53.3406 54.0075 53.6749C54.02 54.086 53.7217 54.4881 53.0947 54.9046C53.0435 54.939 52.9838 54.9583 52.9223 54.9606C52.8607 54.9628 52.7998 54.9477 52.7463 54.9171L52.532 54.792C52.5813 54.8524 52.6073 54.9285 52.6052 55.0065C52.6037 55.0655 52.5863 55.1231 52.5549 55.1731C52.5234 55.2231 52.4791 55.2637 52.4266 55.2907C51.7104 55.6591 50.9488 55.9314 50.1614 56.1004L50.0935 56.1147ZM51.5083 53.4175L52.9017 54.2308C53.2376 53.9805 53.3591 53.7875 53.3555 53.6945C53.3519 53.6016 53.2394 53.489 53.0447 53.3746C52.8015 53.2516 52.5243 53.2133 52.2569 53.2656C52.0045 53.3032 51.7545 53.3557 51.5083 53.4228V53.4175ZM46.6636 52.1019C46.5064 52.2185 46.3901 52.3818 46.3313 52.5685C46.3224 52.6149 46.2992 52.724 46.5707 52.883C46.8324 53.0279 47.1332 53.0861 47.43 53.0493C47.6521 53.0251 47.8724 52.9857 48.0892 52.9313L46.6636 52.1019Z" fill="black"/>
<path d="M66.6696 47.6048V51.1957C66.6696 53.1226 65.3958 55.044 62.8699 56.5133C57.7822 59.4679 49.5039 59.4643 44.3859 56.5043C41.8098 55.0154 40.5254 53.0618 40.5308 51.1099V47.5208C40.5308 49.4709 41.8099 51.4245 44.3841 52.9152C49.5039 55.8734 57.7822 55.8787 62.8681 52.9152C65.3976 51.4549 66.6642 49.5316 66.6696 47.6048Z" fill="#F0F0F0"/>
<path d="M62.8144 42.2104C67.9342 45.1704 67.9575 49.9678 62.8698 52.9224C57.7821 55.877 49.5056 55.8734 44.3858 52.9224C39.2659 49.9713 39.2463 45.165 44.334 42.2104C49.4217 39.2558 57.6963 39.2505 62.8144 42.2104Z" fill="white"/>
<path d="M53.5662 42.08C56.5673 42.08 59.3666 42.7449 61.4496 43.9496C63.236 44.9809 64.2543 46.3072 64.2561 47.587C64.2578 48.8668 63.2771 50.1501 61.4996 51.1832" fill="white"/>
<path d="M56.9086 52.7722C55.8286 52.9564 54.7349 53.0479 53.6394 53.0457C50.6365 53.0457 47.8354 52.379 45.7524 51.1743C43.966 50.1447 42.9478 48.8185 42.9478 47.5387C42.9478 46.2589 43.9249 44.9755 45.7042 43.9424" fill="white"/>
<path d="M55.2865 20.2753L55.2668 25.9289C55.2666 25.9723 55.2749 26.0152 55.2914 26.0553C55.3078 26.0954 55.3319 26.1319 55.3625 26.1626C55.393 26.1934 55.4293 26.2177 55.4693 26.2344C55.5093 26.251 55.5522 26.2596 55.5956 26.2596C55.6397 26.2636 55.6841 26.258 55.7258 26.243C55.7675 26.2281 55.8054 26.2042 55.8369 26.173C55.8684 26.1419 55.8927 26.1042 55.9081 26.0626C55.9235 26.0211 55.9296 25.9767 55.926 25.9325L55.9493 19.5425L56.7496 18.6613C56.8046 18.5999 56.8351 18.5204 56.8353 18.4379L56.8175 11.2007C56.8175 10.5518 56.5781 10.0567 56.1458 9.80827H56.135C56.0028 9.7332 45.2987 3.50586 45.4326 3.57021C45.1236 3.40577 44.6055 3.29495 43.882 3.69354L41.3721 5.14492L38.1477 3.24848C37.4331 2.85346 36.5256 2.9321 35.5609 3.4719L32.5508 5.21463C32.5103 5.23452 32.4742 5.26257 32.445 5.29701C32.4158 5.33146 32.3939 5.37156 32.3809 5.41483C32.3678 5.45809 32.3638 5.50359 32.3691 5.54847C32.3744 5.59336 32.3889 5.63667 32.4116 5.6757C32.4344 5.71474 32.465 5.74866 32.5014 5.77535C32.5379 5.80204 32.5794 5.82092 32.6235 5.83083C32.6676 5.84073 32.7132 5.84144 32.7576 5.8329C32.8019 5.82437 32.8441 5.80678 32.8813 5.78123L35.8914 4.05281C36.6435 3.61847 37.3205 3.53982 37.8172 3.81687L39.943 5.06806C39.6013 5.16267 39.273 5.3002 38.9658 5.47738L29.7301 10.8039L21.3679 15.6299C19.6136 16.5843 18.0148 19.2208 18.0059 21.4103V21.4229L18.0166 27.2337L15.2852 25.6251L15.2619 19.4192C15.2619 17.4906 16.6232 15.1544 18.2863 14.191L27.7543 8.72867C27.83 8.68417 27.8852 8.61164 27.9078 8.52675C27.9305 8.44187 27.9189 8.35148 27.8754 8.27512C27.832 8.19877 27.7603 8.1426 27.6757 8.11876C27.5912 8.09493 27.5007 8.10535 27.4238 8.14777L17.9558 13.6226C16.1158 14.7004 14.6117 17.2993 14.6117 19.4281V20.5846L4.87216 26.206C3.82354 26.8065 3 28.2365 3 29.4644L3.01429 36.6945C3.01427 36.7524 3.02944 36.8093 3.05828 36.8595C3.08712 36.9096 3.12862 36.9514 3.17864 36.9805L3.93072 37.4184L3.85391 59.0657C3.85375 59.1241 3.86904 59.1814 3.89822 59.232C3.9274 59.2825 3.96943 59.3245 4.02004 59.3535L17.1591 66.9553C17.2095 66.9848 17.2669 67.0002 17.3252 67C17.3828 67 17.4394 66.9852 17.4896 66.9571L36.4256 55.9538V55.1924L17.6575 66.0956C17.6682 63.0784 17.7093 51.4567 17.7397 43.0737L32.5294 42.307L32.5401 46.309C32.5426 46.4668 32.5868 46.6211 32.6682 46.7563C32.7496 46.8914 32.8653 47.0026 33.0036 47.0785C33.1419 47.1544 33.2978 47.1924 33.4555 47.1884C33.6132 47.1845 33.767 47.1388 33.9014 47.0561L38.8122 43.9406C38.9393 43.8611 39.0439 43.7504 39.1161 43.619C39.1883 43.4876 39.2258 43.3399 39.2249 43.1899L39.2124 38.0064L55.2865 20.2753ZM21.702 16.1947L39.2945 6.03862C40.7683 5.17352 41.9867 5.74727 41.9867 7.57222L42.0099 13.7781L40.0966 14.8863L40.0716 9.06292C40.0716 8.38549 39.4821 8.10487 38.9641 8.41588C35.9932 10.1229 39.1606 8.29612 21.3679 18.5755C21.1398 18.7216 20.95 18.9202 20.8142 19.1546C20.6784 19.3891 20.6006 19.6526 20.5872 19.9232L20.5979 26.1416L18.6972 27.2373L18.674 21.4103C18.674 19.5264 19.9888 17.1921 21.6984 16.1947H21.702ZM39.4124 9.05934C39.4124 9.26132 39.4232 15.2652 39.4232 14.8827L36.6792 13.2848V10.5071L39.2945 8.98963C39.3588 8.95031 39.3856 8.95031 39.3999 8.9378C39.4075 8.9779 39.4116 9.01855 39.4124 9.05934ZM3.65919 29.4644C3.65919 28.4867 4.37375 27.257 5.20086 26.7833L14.6117 21.3442L14.6278 25.8127C14.6247 25.8711 14.6378 25.9291 14.6655 25.9805C14.6932 26.0319 14.7346 26.0746 14.785 26.1041L18.1899 28.0863C18.2383 28.1189 18.295 28.1374 18.3533 28.1396C18.4117 28.1418 18.4695 28.1277 18.5203 28.0988L21.0946 26.6081C21.1468 26.5794 21.1907 26.5377 21.2221 26.4869C21.2534 26.4362 21.271 26.3782 21.2732 26.3186L21.25 19.9143C21.2639 19.7597 21.3112 19.6099 21.3886 19.4753C21.466 19.3408 21.5717 19.2247 21.6984 19.135L36.0218 10.8754V13.4814C36.0239 13.5394 36.0415 13.5958 36.073 13.6446C36.1044 13.6933 36.1485 13.7327 36.2005 13.7584L39.6054 15.7425C39.6542 15.7745 39.7113 15.7915 39.7697 15.7915C39.8281 15.7915 39.8852 15.7745 39.9341 15.7425L42.5083 14.25C42.5614 14.2257 42.6065 14.1867 42.6381 14.1376C42.6698 14.0885 42.6867 14.0314 42.6869 13.9729L42.6637 7.56864C42.6637 6.70711 42.4208 6.01717 41.9724 5.56496L44.2232 4.26551C44.4769 4.12609 44.8413 3.99025 45.1307 4.14397L54.8506 9.81006C54.7917 9.83687 54.7309 9.86904 54.672 9.90121C54.6505 9.91194 54.6309 9.9173 54.6112 9.92803L15.5835 32.4387C14.6117 32.9999 13.7006 34.4155 13.7006 35.7096C13.7006 35.8437 13.7274 42.8021 13.7256 42.3606L3.67348 36.505L3.65919 29.4644ZM16.9965 66.0956L4.51488 58.878L4.58991 37.8027L13.8971 43.2167C13.9407 43.2398 13.989 43.2526 14.0382 43.2543C14.0382 43.2543 14.0507 43.2632 14.0579 43.2632H14.0758L17.0805 43.1077C17.0501 51.3906 17.0037 64.015 16.9965 66.0956ZM38.4603 43.383L33.5476 46.4984C33.5133 46.5226 33.4729 46.5368 33.4309 46.5393C33.389 46.5419 33.3472 46.5327 33.3101 46.5129C33.2731 46.493 33.2423 46.4633 33.2211 46.427C33.2 46.3907 33.1893 46.3492 33.1904 46.3072L33.1796 38.0333C33.1783 37.8531 33.2231 37.6755 33.3097 37.5175C33.3963 37.3595 33.5219 37.2263 33.6745 37.1306L38.1959 34.2708C38.2303 34.2489 38.2699 34.2368 38.3106 34.2356C38.3514 34.2344 38.3917 34.2442 38.4273 34.2639C38.4629 34.2836 38.4926 34.3126 38.5132 34.3478C38.5337 34.383 38.5445 34.423 38.5442 34.4638L38.5657 43.206C38.5632 43.2417 38.5523 43.2763 38.534 43.307C38.5157 43.3378 38.4905 43.3638 38.4603 43.383ZM39.2034 34.4459C39.201 34.2881 39.1568 34.1338 39.0754 33.9986C38.9939 33.8634 38.8782 33.7523 38.7399 33.6763C38.6016 33.6004 38.4457 33.5625 38.288 33.5665C38.1303 33.5704 37.9765 33.6161 37.8422 33.6988L33.3208 36.5586C33.0743 36.7145 32.8714 36.9304 32.7311 37.1861C32.5908 37.4418 32.5177 37.729 32.5187 38.0207V41.6152L32.4758 41.6402L14.3902 42.5876C14.3902 42.4517 14.3669 35.236 14.3687 35.6953C14.3687 34.6604 15.2137 33.4128 15.9193 33.0142L54.9274 10.5071C55.6027 10.1193 56.1565 10.3284 56.1583 11.2078L56.1743 18.3163L39.2034 37.0377V34.4459Z" fill="#0C60FE"/>
<path d="M67 47.587C67 45.4421 65.5709 43.4223 62.9806 41.9244C60.9709 40.7626 58.4788 40.0548 55.8778 39.7796L55.8974 34.0759C55.8979 34.0324 55.8898 33.9893 55.8735 33.949C55.8572 33.9087 55.833 33.872 55.8024 33.8411C55.7719 33.8101 55.7355 33.7856 55.6954 33.7688C55.6553 33.7521 55.6122 33.7435 55.5687 33.7435C55.5254 33.7432 55.4825 33.7516 55.4424 33.768C55.4023 33.7844 55.3659 33.8086 55.3352 33.8392C55.3045 33.8697 55.2801 33.9061 55.2634 33.9461C55.2468 33.9861 55.2383 34.029 55.2383 34.0724L55.2186 39.7241C51.2885 39.44 47.1798 40.1621 44.1679 41.9084C41.6187 43.3883 40.2145 45.3759 40.2056 47.5047V51.0956C40.186 56.5276 48.1158 59.0157 53.5751 59.0335C53.584 59.0335 53.5894 59.0425 53.5983 59.0425C53.6073 59.0425 53.6108 59.0425 53.618 59.0335H53.6412C55.1919 59.0337 56.7384 58.872 58.2555 58.5509C58.2555 58.5509 58.2662 58.5509 58.2752 58.5509C62.3267 57.6805 66.9821 55.2121 66.9946 51.185V47.6048C66.9946 47.6048 67 47.5923 67 47.587ZM44.4912 42.4893C49.4932 39.5829 57.6338 39.6008 62.6429 42.4893C65.0207 43.8638 66.3319 45.6726 66.3337 47.5798C66.3426 54.1074 52.4318 57.1818 44.5394 52.6221C42.5994 51.4996 40.8719 49.7587 40.8719 47.5387C40.8612 45.6458 42.1528 43.8513 44.4984 42.4893H44.4912ZM66.3319 50.0679V51.194C66.3319 52.926 65.2279 54.5686 63.2432 55.8788V54.683C63.2465 54.6376 63.2405 54.5921 63.2254 54.5492C63.2104 54.5063 63.1866 54.4669 63.1557 54.4336C63.1248 54.4003 63.0873 54.3737 63.0456 54.3556C63.004 54.3374 62.959 54.328 62.9136 54.328C62.8681 54.328 62.8232 54.3374 62.7815 54.3556C62.7399 54.3737 62.7024 54.4003 62.6715 54.4336C62.6405 54.4669 62.6168 54.5063 62.6017 54.5492C62.5867 54.5921 62.5807 54.6376 62.584 54.683V56.2809C61.3287 56.9775 59.9825 57.4955 58.5842 57.8199V56.4436C58.5781 56.3603 58.5407 56.2824 58.4796 56.2256C58.4184 56.1688 58.3381 56.1372 58.2546 56.1372C58.1712 56.1372 58.0908 56.1688 58.0297 56.2256C57.9685 56.2824 57.9312 56.3603 57.925 56.4436V57.9557C56.6072 58.2259 55.2668 58.3708 53.9217 58.3883V56.9262C53.925 56.8808 53.919 56.8353 53.9039 56.7924C53.8889 56.7495 53.8651 56.7101 53.8342 56.6768C53.8033 56.6435 53.7658 56.6169 53.7241 56.5988C53.6825 56.5806 53.6375 56.5712 53.5921 56.5712C53.5466 56.5712 53.5017 56.5806 53.46 56.5988C53.4184 56.6169 53.3809 56.6435 53.35 56.6768C53.319 56.7101 53.2953 56.7495 53.2802 56.7924C53.2652 56.8353 53.2591 56.8808 53.2625 56.9262V58.3776C51.92 58.3555 50.5825 58.2065 49.2681 57.9325V56.4168C49.2619 56.3335 49.2246 56.2556 49.1634 56.1988C49.1023 56.142 49.0219 56.1104 48.9385 56.1104C48.855 56.1104 48.7747 56.142 48.7135 56.1988C48.6524 56.2556 48.615 56.3335 48.6089 56.4168V57.7931C47.2109 57.4635 45.8649 56.9426 44.6091 56.2452V54.6365C44.6091 54.5488 44.5743 54.4647 44.5123 54.4027C44.4503 54.3407 44.3663 54.3058 44.2786 54.3058C44.191 54.3058 44.1069 54.3407 44.0449 54.4027C43.983 54.4647 43.9481 54.5488 43.9481 54.6365V55.8305C41.9527 54.506 40.8559 52.8509 40.863 51.1082V50.0089C41.4275 51.0331 42.5708 52.2414 44.2232 53.1959C49.1019 56.0182 56.8246 56.1951 62.032 53.7321C64.2632 52.6793 65.6816 51.2601 66.339 50.0679H66.3319Z" fill="#0C60FE"/>
<path d="M53.5661 42.4106C56.5101 42.4106 59.2504 43.0594 61.2834 44.2356C62.9626 45.2061 63.9255 46.4269 63.9255 47.5869C63.9255 48.747 63.0055 49.9267 61.3334 50.9026C61.27 50.9386 61.2204 50.9947 61.1923 51.062C61.1643 51.1293 61.1594 51.204 61.1784 51.2744C61.1974 51.3448 61.2393 51.4069 61.2974 51.4509C61.3555 51.4949 61.4267 51.5183 61.4995 51.5175C61.5573 51.5174 61.614 51.502 61.6639 51.4728C63.5486 50.3789 64.5865 48.999 64.5865 47.5905C64.5865 46.182 63.5021 44.7593 61.6139 43.6689C59.4827 42.4356 56.6244 41.7546 53.5661 41.7528C53.4784 41.7528 53.3944 41.7877 53.3324 41.8497C53.2704 41.9117 53.2356 41.9958 53.2356 42.0835C53.2356 42.1712 53.2704 42.2553 53.3324 42.3173C53.3944 42.3793 53.4784 42.4142 53.5661 42.4142V42.4106Z" fill="#0C60FE"/>
<path d="M45.5881 51.4603C47.7211 52.6936 50.5901 53.3746 53.6395 53.3746C54.7536 53.3775 55.8658 53.2848 56.964 53.0975C57.0502 53.0827 57.1269 53.0343 57.1775 52.9629C57.228 52.8916 57.2483 52.8031 57.2338 52.7168C57.2269 52.6738 57.2114 52.6325 57.1884 52.5955C57.1653 52.5585 57.1351 52.5264 57.0994 52.5013C57.0638 52.4761 57.0235 52.4584 56.981 52.449C56.9384 52.4397 56.8943 52.439 56.8515 52.4469C55.7892 52.6278 54.7135 52.7175 53.6359 52.715C50.6919 52.715 47.948 52.0644 45.9151 50.8883C44.2376 49.9195 43.2747 48.6987 43.273 47.5387C43.2712 46.3787 44.193 45.199 45.8668 44.2284C45.9423 44.184 45.9972 44.1116 46.0196 44.0269C46.042 43.9423 46.0301 43.8522 45.9865 43.7762C45.9651 43.7385 45.9363 43.7055 45.902 43.679C45.8676 43.6525 45.8284 43.6332 45.7865 43.622C45.7446 43.6109 45.7009 43.6082 45.658 43.6141C45.615 43.62 45.5737 43.6344 45.5363 43.6564C43.6499 44.7521 42.612 46.1302 42.6138 47.5405C42.6156 48.9508 43.7017 50.3664 45.5881 51.4603Z" fill="#0C60FE"/>
</g>
<defs>
<clipPath id="clip0_168_354">
<rect width="64" height="64" fill="white" transform="translate(3 3)"/>
</clipPath>
</defs>
</svg>
