<svg width="70" height="70" viewBox="0 0 70 70" fill="none" xmlns="http://www.w3.org/2000/svg">
<path d="M9.21571 16.9107C10.243 15.7447 11.4472 14.7469 12.7843 13.9539C17.466 11.2569 21.2809 13.4311 21.2962 18.8049C21.3115 24.1787 17.5118 30.7389 12.837 33.436C8.16213 36.133 4.34034 33.9706 4.32504 28.585C4.04805 24.9425 6.16542 19.2089 9.21571 16.9107Z" fill="#80B3FF"/>
<path d="M26.8513 20.2562C28.0735 20.8482 29.2605 21.5101 30.4063 22.2387C35.438 25.4806 39.3193 30.2756 44.2745 33.6499C48.4056 36.4776 53.2334 38.2836 56.9634 41.6002C57.9405 42.4726 58.9041 43.598 58.8582 44.9134C58.814 45.9793 57.6686 46.9502 56.7238 46.7924C58.3378 47.5897 59.797 48.6673 61.0333 49.9749C61.7878 50.7879 62.5134 51.8979 62.1566 52.9622C61.7266 54.2199 59.6823 54.427 59.0179 53.2864C59.9202 54.2929 59.6823 56.0021 58.7188 56.9255C57.7553 57.8488 56.2463 58.0932 54.9276 57.8115C53.6089 57.5297 52.4398 56.8338 51.3301 56.0785L51.3148 56.0649C51.9351 57.9727 50.3802 60.2505 48.3801 60.3677C47.4761 60.4271 46.589 60.1012 45.7292 59.7753C41.1421 58.0576 36.563 56.3342 31.9918 54.6052C31.482 55.33 30.5253 55.4335 29.6127 55.3147C29.4136 55.3005 29.2159 55.271 29.0214 55.2264C28.3994 55.0923 27.791 54.9447 27.1844 54.7664C26.8003 54.6629 26.4299 54.5441 26.0594 54.4117C26.0182 54.4088 25.9779 54.3985 25.9405 54.3811C25.5258 54.2335 25.1112 54.0705 24.7119 53.9076C24.6105 53.8693 24.5118 53.8245 24.4162 53.7735C23.9862 53.6038 23.5665 53.4035 23.157 53.1964C18.4328 50.9016 14.4071 47.0979 11.9499 42.437C11.418 41.4186 10.9303 40.3204 10.8113 39.1815C10.6193 37.3619 11.3211 35.4694 10.7842 33.7229C10.6354 33.2783 10.437 32.8518 10.1928 32.4515C9.73397 31.681 9.1562 30.9867 8.68379 30.245C8.45346 29.906 8.25979 29.5436 8.10602 29.1638C8.01633 28.9504 7.95023 28.7279 7.90889 28.5001C7.89026 28.3777 7.88061 28.254 7.88 28.1301C8.01425 24.1363 10.8164 19.433 14.2372 17.4369C15.1701 16.9243 16.0657 16.6256 16.8576 16.6103H16.9017C17.0359 16.6129 17.1698 16.6231 17.3028 16.6408C17.3233 16.6386 17.3439 16.6441 17.3606 16.6561C18.5161 16.7444 19.6275 17.1891 20.7082 17.6185C21.5137 17.941 22.3226 18.2652 23.1247 18.5979" fill="white"/>
<path d="M56.7273 46.7974C56.7273 46.7974 53.9217 44.4398 43.7037 40.025L56.7273 46.7974Z" fill="white"/>
<path d="M29.5993 55.3214C29.4007 55.3058 29.2035 55.2752 29.0096 55.2298C26.9762 54.8022 25.0055 54.1177 23.1452 53.193C23.2308 52.9602 23.3318 52.7334 23.4477 52.514C23.5628 52.2482 23.7278 52.0068 23.9337 51.8029C24.0971 51.6489 24.2871 51.5258 24.4945 51.4396C25.4801 51.0153 26.6322 51.1986 27.6467 51.5466C28.0433 51.6704 28.4208 51.8486 28.7683 52.0761C29.1125 52.3123 29.3726 52.6517 29.5109 53.0453C29.5709 53.2828 29.6012 53.5268 29.601 53.7718C29.6457 54.2874 29.6451 54.8059 29.5993 55.3214Z" fill="white"/>
<path d="M57.7078 46.9501C58.4062 46.6701 59.142 45.8486 59.1794 44.9269C59.2304 43.3806 58.0612 42.1484 57.181 41.3625C55.4069 39.7908 53.383 38.533 51.3438 37.389L50.7031 37.7658C52.829 38.954 54.9413 40.2185 56.7528 41.8276C58.0103 42.9461 58.5761 43.9272 58.5506 44.8947C58.5014 45.7433 57.6313 46.5207 56.8768 46.4902C56.4622 46.1762 53.7704 44.1631 45.7938 40.5902L45.1141 40.9806C53.9081 44.8845 56.4996 47.0062 56.5233 47.0299C56.5374 47.0433 56.5552 47.0522 56.5743 47.0554C56.588 47.0694 56.6059 47.0783 56.6253 47.0808C58.5269 48.0313 62.5339 50.8523 61.8558 52.8518C61.5415 53.7734 60.1225 53.9839 59.4649 53.361C59.4157 53.2719 59.3588 53.1873 59.295 53.1081C59.2933 53.1083 59.2915 53.1082 59.2899 53.1077C59.2882 53.1072 59.2867 53.1064 59.2854 53.1053C59.2841 53.1041 59.2831 53.1027 59.2824 53.1012C59.2817 53.0996 59.2813 53.0979 59.2814 53.0962C56.0679 49.3315 45.5695 45.1187 40.9286 43.4112L40.4885 43.6624C40.481 43.7312 40.4966 43.8006 40.5329 43.8596C40.5692 43.9186 40.6241 43.9639 40.689 43.9883C45.578 45.7892 55.6142 49.8271 58.9806 53.7497C59.5074 54.5983 59.3306 55.9121 58.5133 56.703C57.6959 57.494 56.3398 57.7961 54.9973 57.5059C53.8078 57.2666 52.7576 56.6572 51.563 55.8578C51.1977 55.3163 47.9655 50.9542 35.6998 46.4121L35.1713 46.7261C35.184 46.777 35.2074 46.8247 35.2399 46.8659C35.2724 46.9072 35.3133 46.9411 35.3599 46.9654C47.1227 51.2936 50.5553 55.5302 51.0209 56.1599C51.0178 56.1631 51.0161 56.1673 51.0161 56.1718C51.0161 56.1762 51.0178 56.1805 51.0209 56.1837C51.5766 57.881 50.139 59.9484 48.3649 60.0536C47.4846 60.1045 46.6163 59.7769 45.8482 59.4748C41.3302 57.791 36.8202 56.0988 32.3181 54.3981C32.5257 53.2482 32.4297 52.0641 32.0394 50.9627C31.5995 49.7918 30.9161 48.7273 30.0342 47.8396C29.1421 46.8992 28.0698 46.1762 27.1131 45.5787C26.882 45.4633 26.6559 45.3411 26.4333 45.2206C26.1275 45.0508 25.8199 44.8913 25.4953 44.7385L25.2642 44.6384C24.1151 44.1536 23.194 43.2499 22.688 42.111C22.4756 41.6375 22.1782 40.7362 22.5844 40.0182C22.6059 39.9823 22.6201 39.9424 22.626 39.9009C22.6319 39.8594 22.6295 39.8171 22.6187 39.7766C22.608 39.736 22.5893 39.698 22.5637 39.6649C22.538 39.6317 22.506 39.6039 22.4695 39.5833C22.4329 39.5627 22.3926 39.5496 22.3509 39.5447C22.3092 39.5399 22.267 39.5435 22.2267 39.5552C22.1864 39.567 22.1489 39.5867 22.1163 39.6131C22.0838 39.6396 22.0569 39.6723 22.0372 39.7093C21.4951 40.67 21.8536 41.7868 22.1221 42.3894C22.6923 43.6623 23.7247 44.6717 25.011 45.2138L25.2336 45.3105C25.5395 45.4548 25.8369 45.6143 26.1343 45.7739C26.3654 45.8978 26.5965 46.0217 26.814 46.1252C27.7554 46.7159 28.7444 47.3847 29.5873 48.2741C30.4083 49.0958 31.0454 50.0822 31.4565 51.168C31.8559 52.3647 31.9324 53.5171 31.6809 54.5033C31.2951 54.9701 30.6154 55.0736 29.9373 55.0295C29.9652 54.5652 29.9612 54.0996 29.9255 53.636C29.8864 52.957 29.7436 52.4054 28.9704 51.8249C27.7401 50.9762 25.0246 50.3669 23.7365 51.572C23.3643 51.9199 23.2029 52.3613 23.0058 52.7601C18.4202 50.4682 14.659 46.8123 12.2405 42.296C11.0102 39.935 10.9915 39.0473 11.2107 36.9053C11.3127 35.8241 11.4266 34.6988 11.0986 33.6362C10.6619 32.2461 9.62017 31.1479 8.96253 30.0718C8.60228 29.5253 8.20803 28.7869 8.20803 28.1369C8.33548 24.2415 11.068 19.6502 14.4038 17.7084C16.5636 16.5101 17.8738 16.819 20.6063 17.9121C21.4118 18.2261 22.2156 18.5537 23.0211 18.8813C23.0593 18.8992 23.1009 18.909 23.1431 18.91C23.1854 18.9111 23.2274 18.9034 23.2665 18.8875C23.3056 18.8715 23.341 18.8477 23.3704 18.8174C23.3998 18.7871 23.4226 18.7511 23.4374 18.7115C23.4692 18.6338 23.4692 18.5467 23.4375 18.469C23.4057 18.3912 23.3447 18.329 23.2675 18.2957L21.5257 17.6032C20.9938 12.9406 17.206 11.0379 12.6263 13.6874C11.2586 14.4945 10.0268 15.5118 8.97613 16.7019C8.9218 16.7639 8.89403 16.8447 8.89879 16.9269C8.90356 17.0091 8.94049 17.0862 9.00162 17.1415C9.03272 17.1699 9.06916 17.1918 9.10881 17.206C9.14846 17.2201 9.19055 17.2263 9.23261 17.2241C9.27467 17.2219 9.31587 17.2113 9.35381 17.1931C9.39176 17.1748 9.42569 17.1492 9.45364 17.1177C10.4566 15.9785 11.6334 15.0046 12.9407 14.2323C16.8491 11.9612 20.2138 13.2139 20.8578 17.3367L20.8035 17.3146C18.0845 16.2521 16.6027 15.787 14.0724 17.1721C10.5599 19.2156 7.70163 24.0293 7.56908 28.1267C7.56908 28.9855 7.98712 29.7459 8.41875 30.4147C9.05939 31.4331 10.0705 32.5482 10.4817 33.8212C10.5055 33.901 10.5123 33.991 10.531 34.0606C9.18854 34.4153 7.95823 34.3389 6.96242 33.7703C5.45852 32.9013 4.64114 31.0648 4.62924 28.59C4.6297 28.5486 4.62189 28.5075 4.60627 28.4691C4.59065 28.4307 4.56754 28.3958 4.53828 28.3664C4.50902 28.337 4.47419 28.3137 4.43584 28.2979C4.39748 28.2821 4.35636 28.2741 4.31487 28.2743C4.27352 28.2741 4.23254 28.2821 4.1943 28.2978C4.15605 28.3135 4.12131 28.3366 4.09207 28.3658C4.06283 28.395 4.03968 28.4297 4.02396 28.4679C4.00825 28.5061 4.00027 28.547 4.00049 28.5883C4.01239 31.3041 4.94192 33.3273 6.63955 34.3084C7.87326 35.0009 9.26841 35.0331 10.6279 34.6801C10.6717 35.3992 10.6483 36.1209 10.5582 36.8357C10.3441 39.0422 10.3424 40.1014 11.6628 42.5812C14.1098 47.2353 18.1372 51.1018 22.9803 53.4679L22.9922 53.4798C23.0806 53.5171 23.1621 53.5562 23.2437 53.5935C24.9838 54.5084 28.0392 55.4148 29.2729 55.5981C30.2449 55.7678 31.4226 55.6931 32.0887 54.9802C36.5931 56.6776 41.1014 58.3721 45.6137 60.0638C46.3427 60.3404 47.2484 60.6918 48.1626 60.6935C48.2374 60.6935 48.3139 60.6799 48.3887 60.6799C50.2885 60.5662 51.8723 58.6753 51.7499 56.7353C52.7066 57.3514 53.7246 57.8929 54.858 58.1203C56.3874 58.4479 57.9525 58.0711 58.9211 57.1545C59.2971 56.7847 59.5757 56.3277 59.7319 55.8242C59.8882 55.3208 59.9173 54.7865 59.8166 54.2691C60.1035 54.3449 60.4014 54.3702 60.6969 54.3437C61.5279 54.2572 62.2076 53.7667 62.4472 53.064C63.2187 50.7929 59.7181 48.1179 57.7078 46.9501ZM24.1596 52.0252C25.1792 51.0967 27.5736 51.6382 28.5881 52.3409C29.47 52.974 29.2678 53.619 29.3171 54.9599C27.7877 54.7019 25.599 54.0297 23.5394 53.0317C23.7127 52.7381 23.8334 52.3256 24.1596 52.0252Z" fill="#0C60FE"/>
<path d="M19.1331 33.7144L19.1433 38.455L34.2639 47.2404L34.252 42.5015L19.1331 33.7144Z" fill="#F0F0F0"/>
<path d="M19.1331 33.7143L34.252 42.5014L64.6768 24.9747L49.5561 16.1876L19.1331 33.7143Z" fill="white"/>
<path d="M47.4676 19.9388C48.7251 20.6703 50.7779 20.6703 52.0558 19.9388L58.2091 23.5168C56.938 24.2483 56.9295 25.4365 58.1887 26.168L36.3421 38.7504C35.0829 38.0205 33.0318 38.0188 31.7539 38.7504L25.5956 35.1724C26.8667 34.4391 26.8752 33.2527 25.616 32.5211L47.4676 19.9388ZM46.4837 32.0136C48.4397 30.8866 47.9638 28.7887 45.4318 27.3103C42.8998 25.8319 39.2684 25.5536 37.3074 26.6806C35.3463 27.8076 35.8357 29.9056 38.3677 31.3788C40.8997 32.8521 44.5363 33.1356 46.4837 32.0136Z" fill="white"/>
<path d="M38.5173 27.3799C37.0797 28.2082 37.4314 29.7561 39.299 30.8458C41.1666 31.9355 43.8498 32.1409 45.2874 31.3126C46.7251 30.4843 46.3784 28.9363 44.5092 27.8432C42.6399 26.7502 39.96 26.5482 38.5173 27.3799Z" fill="white"/>
<path d="M34.252 42.5014L34.2638 47.2404L64.6886 29.7137L64.6767 24.9747L34.252 42.5014Z" fill="white"/>
<path d="M47.0835 35.0841L47.0954 39.8485L51.1551 37.5095L51.1432 32.7723L47.0835 35.0841Z" fill="white"/>
<path d="M31.9035 26.3581L47.0836 35.0841L51.1433 32.7723L35.9411 24.0327L31.9035 26.3581Z" fill="white"/>
<path d="M64.9894 24.9731C64.9893 24.9204 64.9765 24.8686 64.952 24.822C64.9279 24.7724 64.8878 24.7324 64.8382 24.7083V24.6964C64.8335 24.6913 64.8277 24.6874 64.8212 24.685C64.8146 24.6826 64.8076 24.6819 64.8008 24.6828L59.6433 21.6904C59.4037 21.777 59.1522 21.8771 58.9007 21.9909L64.0463 24.9714L51.145 32.4057L49.5612 31.501L58.345 26.4396C58.3933 26.4118 58.4329 26.3713 58.4596 26.3225C58.4863 26.2737 58.499 26.2185 58.4963 26.1629C58.4992 26.1091 58.4865 26.0557 58.4597 26.009C58.4328 25.9623 58.393 25.9244 58.345 25.8998C57.2761 25.2582 57.3254 24.3909 58.3586 23.7883C58.4097 23.7624 58.4527 23.7228 58.4826 23.6739C58.5126 23.6251 58.5285 23.569 58.5286 23.5117C58.5281 23.456 58.5119 23.4017 58.4818 23.3548C58.4517 23.308 58.409 23.2706 58.3586 23.2469L57.3594 22.6681C57.1317 22.7699 56.9057 22.882 56.6797 22.9957L57.6177 23.5439C56.6729 24.3485 56.7477 25.4415 57.6024 26.1459L48.9358 31.1446L46.1812 29.5712C45.9926 29.6968 45.8176 29.836 45.6273 29.9734C47.2637 30.9172 48.9358 31.8728 50.5094 32.7791C48.822 33.7449 47.2807 34.6123 47.0853 34.726H47.0734C45.4369 33.7568 42.6449 32.1715 42.6449 32.1715C42.4563 32.3107 42.2796 32.4363 42.1028 32.5856L44.2678 33.8315L36.3387 38.4024C35.8681 38.17 35.3622 38.0169 34.8416 37.9492C34.5765 38.1512 34.2995 38.3396 34.0361 38.528C34.7856 38.5062 35.5275 38.6818 36.1875 39.0372C36.2341 39.068 36.2888 39.0843 36.3447 39.0843C36.4006 39.0843 36.4552 39.068 36.5019 39.0372L44.8965 34.2032L46.4837 35.0858L34.2485 42.1383L19.7635 33.711L21.6327 32.6315L21.1042 32.2156C19.9963 32.8572 19.235 33.2968 18.9648 33.4479C18.9186 33.4745 18.8803 33.5129 18.8537 33.5591C18.8271 33.6053 18.8133 33.6577 18.8135 33.711L18.8237 38.4482C18.8235 38.5034 18.8372 38.5577 18.8636 38.6061C18.8901 38.6544 18.9284 38.6953 18.975 38.7249L34.099 47.5171C34.1475 47.5424 34.2015 47.5556 34.2562 47.5556C34.3109 47.5556 34.3649 47.5424 34.4134 47.5171C38.1927 45.3326 64.4456 30.2128 64.8484 29.9938C64.8969 29.9664 64.9368 29.9259 64.9635 29.877C64.9902 29.8281 65.0027 29.7728 64.9996 29.7171L64.9894 24.9731ZM19.4644 38.2734L19.4542 34.2643L33.9461 42.678L33.9563 46.6871L19.4644 38.2734ZM34.5884 46.7007L34.5782 42.6797C34.5918 42.6657 34.6098 42.6567 34.6292 42.6542C34.6411 42.6407 34.653 42.6407 34.6666 42.6288C34.7012 42.6032 34.7388 42.5821 34.7787 42.566C35.4466 42.1773 38.0397 40.6819 46.7743 35.6459L46.7845 39.6686L34.5884 46.7007ZM47.4132 39.3037L47.403 35.2946C47.5288 35.2199 50.5876 33.4496 50.8391 33.324L50.8493 37.3331L47.4132 39.3037ZM51.4797 36.9682L51.4678 32.9472L64.3607 25.5247L64.3708 29.5338L51.4797 36.9682Z" fill="black"/>
<path d="M17.7888 29.3997C22.829 34.0436 27.8692 36.963 32.9128 39.3054C43.0544 32.2835 53.1977 22.9193 63.3308 20.526C58.2923 15.8838 53.2521 12.9627 48.2068 10.6204C38.072 17.6439 27.9287 27.0065 17.7888 29.3997Z" fill="white"/>
<path d="M63.5449 20.2969C59.1556 16.2453 54.4705 13.1782 48.3529 10.3352C48.3029 10.3116 48.2475 10.3015 48.1923 10.306C48.1372 10.3104 48.0841 10.3293 48.0385 10.3607C45.4896 12.131 42.8913 14.0778 40.3729 15.9619C37.4024 18.199 34.381 20.4581 31.3477 22.4932L31.3324 22.5051C31.0843 22.3252 30.8379 22.1436 30.5813 21.9772C29.4235 21.2446 28.2253 20.5776 26.9924 19.9795C26.917 19.9431 26.8304 19.9371 26.7507 19.9627C26.671 19.9883 26.6042 20.0435 26.5641 20.117C26.5455 20.1549 26.5346 20.1961 26.5321 20.2383C26.5297 20.2805 26.5356 20.3227 26.5497 20.3626C26.5638 20.4024 26.5857 20.439 26.6142 20.4703C26.6426 20.5016 26.677 20.5269 26.7154 20.5447C27.9264 21.1299 29.1026 21.7844 30.2381 22.5051C30.4182 22.6222 30.5932 22.7512 30.7683 22.8768C26.4928 25.6876 22.1918 27.9943 17.9349 29.0348C17.8615 29.062 17.7859 29.083 17.7089 29.0976C17.6535 29.1099 17.6027 29.1376 17.5624 29.1776C17.5221 29.2175 17.494 29.2681 17.4812 29.3233C17.4679 29.3664 17.4656 29.4121 17.4745 29.4562C17.4834 29.5004 17.5032 29.5417 17.5322 29.5762C17.5322 29.6 17.5577 29.6136 17.5696 29.6254C21.9589 33.6753 26.6389 36.7441 32.765 39.5871C32.8138 39.6153 32.87 39.628 32.9261 39.6235C32.9823 39.6189 33.0358 39.5973 33.0794 39.5617C35.6283 37.7913 38.2266 35.8445 40.745 33.9604C41.3109 33.5446 41.8649 33.1118 42.4308 32.7044C42.6007 32.5652 42.7706 32.4396 42.9406 32.314C49.6869 27.2899 56.61 22.4304 63.392 20.8366C63.4465 20.8224 63.4963 20.794 63.5363 20.7544C63.5763 20.7147 63.605 20.6652 63.6197 20.6109C63.6393 20.557 63.6427 20.4985 63.6294 20.4427C63.6161 20.3869 63.5867 20.3362 63.5449 20.2969ZM42.4393 31.9118C42.2693 32.0374 42.0994 32.163 41.9295 32.2886L40.3814 33.4563C37.9258 35.303 35.3836 37.2125 32.8788 38.9455C27.1011 36.24 22.6149 33.3358 18.4345 29.5626C26.2294 27.5123 34.2145 21.356 40.7484 16.466C43.2142 14.6193 45.7445 12.7217 48.2493 10.9836C54.0355 13.6874 58.5132 16.6052 62.6936 20.3648C55.9319 22.1283 49.0972 26.9504 42.4393 31.9118Z" fill="#0C60FE"/>
<path d="M46.1252 14.6448C47.3827 15.1862 49.4355 14.9469 50.7134 14.1356C52.8369 15.2076 54.8934 16.4069 56.8718 17.7271C55.6007 18.3636 55.5922 19.5501 56.8514 20.3767C49.5697 23.9258 42.2881 30.0515 35.0065 35.2861C33.7473 34.7429 31.6945 34.9823 30.4183 35.7953C28.2949 34.722 26.2383 33.5215 24.2599 32.2003C25.5327 31.5638 25.5361 30.3757 24.2786 29.5491C31.5603 26.0033 38.8368 19.8861 46.1252 14.6448Z" fill="white"/>
<path d="M30.4166 36.1042C30.3669 36.1049 30.3179 36.0932 30.2738 36.0702C28.1392 34.9927 26.0719 33.7871 24.0832 32.46C24.0376 32.4293 24.0009 32.3872 23.9767 32.3379C23.9525 32.2886 23.9416 32.2338 23.9453 32.179C23.9489 32.1242 23.9668 32.0714 23.9973 32.0257C24.0277 31.9799 24.0697 31.943 24.1189 31.9186C24.6032 31.6758 24.8819 31.3449 24.9023 30.985C24.9261 30.5861 24.6355 30.1601 24.107 29.8122C24.0605 29.7818 24.0229 29.7397 23.998 29.6901C23.9732 29.6405 23.9619 29.5852 23.9653 29.5299C23.9688 29.4745 23.9868 29.421 24.0177 29.3749C24.0485 29.3288 24.0911 29.2917 24.141 29.2673C29.5431 26.633 35.0524 22.5 40.378 18.5028C42.2014 17.1347 44.086 15.7209 45.9399 14.3851C45.9843 14.3534 46.0361 14.3337 46.0903 14.3281C46.1445 14.3224 46.1993 14.3309 46.2492 14.3528C47.4099 14.8535 49.3352 14.6329 50.5366 13.864C50.5829 13.8345 50.6361 13.8176 50.6909 13.815C50.7458 13.8123 50.8004 13.8239 50.8493 13.8487C52.984 14.926 55.0514 16.1317 57.04 17.4589C57.0856 17.4895 57.1224 17.5315 57.1468 17.5807C57.1711 17.6299 57.1821 17.6846 57.1787 17.7394C57.1752 17.7942 57.1575 17.8471 57.1272 17.8929C57.0969 17.9387 57.0551 17.9758 57.006 18.0004C56.5217 18.2431 56.243 18.5758 56.2209 18.9373C56.1988 19.3328 56.4877 19.7605 57.0179 20.1068C57.0643 20.1373 57.1018 20.1795 57.1265 20.2292C57.1512 20.2789 57.1624 20.3342 57.1587 20.3896C57.1551 20.4449 57.1369 20.4984 57.1059 20.5444C57.0748 20.5904 57.0322 20.6274 56.9822 20.6516C51.5817 23.2842 46.0759 27.4172 40.7502 31.4127C38.9251 32.7825 37.0389 34.1981 35.1832 35.5339C35.1388 35.5654 35.0871 35.5851 35.033 35.591C34.9788 35.5969 34.9241 35.589 34.8739 35.5678C33.7116 35.0586 31.7879 35.2844 30.5865 36.055C30.536 36.0878 30.4769 36.105 30.4166 36.1042ZM24.8394 32.2003C26.6338 33.3757 28.4911 34.4523 30.403 35.4253C31.7251 34.653 33.6487 34.4408 34.9555 34.916C36.7619 33.6125 38.5955 32.236 40.3729 30.9018C45.5729 26.998 50.9462 22.9668 56.2549 20.302C55.7961 19.8827 55.5649 19.3939 55.5938 18.8915C55.6142 18.6549 55.6865 18.4258 55.8058 18.2204C55.9251 18.015 56.0883 17.8384 56.2838 17.7033C54.4895 16.5288 52.6328 15.4523 50.7219 14.4784C49.3964 15.2507 47.4744 15.4629 46.1677 14.9876C44.3647 16.2895 42.5311 17.6643 40.757 18.9967C35.5537 22.9006 30.177 26.9369 24.8666 29.6017C25.322 30.0226 25.5599 30.5182 25.5293 31.0139C25.5106 31.2522 25.4389 31.4834 25.3196 31.6907C25.2003 31.898 25.0362 32.0761 24.8394 32.2122V32.2003Z" fill="black"/>
<path d="M43.3348 19.4075C44.8353 18.2872 46.3341 17.1789 47.8329 16.113L47.3605 15.9059C45.8617 16.9803 44.3629 18.0938 42.8624 19.2174L43.3348 19.4109V19.4075Z" fill="#0C60FE"/>
<path d="M48.523 16.415C47.6949 16.9955 46.8673 17.589 46.0403 18.1955L46.5127 18.3992C47.3408 17.7984 48.1684 17.2094 48.9954 16.6323L48.523 16.415Z" fill="#0C60FE"/>
<path d="M48.7761 21.8245C50.2766 20.8281 51.7754 19.8827 53.281 19.0324L52.8086 18.7574C51.3081 19.6247 49.8093 20.582 48.3088 21.5953L48.7812 21.8245H48.7761Z" fill="#0C60FE"/>
<path d="M51.9504 21.1473C52.7797 20.6494 53.6078 20.1792 54.4349 19.7368L53.9607 19.4448C53.1326 19.8974 52.3045 20.3784 51.4763 20.8876C51.6344 20.9724 51.7924 21.0573 51.9487 21.1473H51.9504Z" fill="#0C60FE"/>
<path d="M32.8364 33.6329C34.3352 32.5805 35.8357 31.4806 37.3346 30.3655L36.8621 30.1635C35.3633 31.277 33.8628 32.3701 32.364 33.4105L32.8364 33.6278V33.6329Z" fill="#0C60FE"/>
<path d="M36.0107 32.6857C36.8383 32.0781 37.6659 31.4602 38.4935 30.8407L38.021 30.6472C37.1935 31.265 36.3659 31.8812 35.5383 32.4871L36.0107 32.6857Z" fill="#0C60FE"/>
<path d="M27.0127 30.4537C28.5116 29.6322 30.0104 28.7156 31.5109 27.738C31.3528 27.6599 31.1948 27.5801 31.0385 27.4987C29.5379 28.4678 28.0391 29.3657 26.5386 30.1669L27.0127 30.4588V30.4537Z" fill="#0C60FE"/>
<path d="M32.1974 28.0741C31.3693 28.6263 30.5412 29.1587 29.713 29.6713L30.1854 29.9242C31.0147 29.4048 31.8423 28.8617 32.6698 28.3032L32.1974 28.0741Z" fill="#0C60FE"/>
<path d="M44.6264 26.6483C46.3597 25.3974 45.9383 23.5778 43.6934 22.6273C41.4486 21.6768 38.2233 22.0282 36.49 23.2842C34.7567 24.5402 35.1866 26.3394 37.4314 27.3001C39.6762 28.2608 42.8999 27.8976 44.6264 26.6483Z" fill="#0C60FE"/>
<path d="M38.2778 24.0327C37.3091 24.7507 37.5453 25.7606 38.8045 26.28C40.0638 26.7994 41.8735 26.6195 42.8422 25.8981C43.8108 25.1768 43.578 24.1668 42.3188 23.6474C41.0596 23.1281 39.2498 23.3097 38.2778 24.0327Z" fill="white"/>
</svg>
