<?xml version="1.0" encoding="utf-8"?>
<!-- Generator: Adobe Illustrator 17.0.0, SVG Export Plug-In . SVG Version: 6.00 Build 0)  -->
<!DOCTYPE svg PUBLIC "-//W3C//DTD SVG 1.1//EN" "http://www.w3.org/Graphics/SVG/1.1/DTD/svg11.dtd">
<svg version="1.1" id="Layer_1" xmlns="http://www.w3.org/2000/svg" xmlns:xlink="http://www.w3.org/1999/xlink" x="0px" y="0px"
	 width="14px" height="8px" viewBox="0 0 14 8" enable-background="new 0 0 14 8" xml:space="preserve">
<path fill="#C72121" d="M14,7.429V3.212c0-0.764-0.943-1.146-1.494-0.606l-1.181,1.157l-3.5-3.429c-0.455-0.446-1.194-0.446-1.65,0
	L3.5,2.955L1.821,1.31c-0.228-0.223-0.597-0.223-0.825,0L0.171,2.118c-0.228,0.223-0.228,0.585,0,0.808l2.504,2.453
	c0.455,0.446,1.194,0.446,1.65,0L7,2.759L9.675,5.38L8.494,6.537C7.943,7.077,8.333,8,9.113,8h4.304C13.739,8,14,7.744,14,7.429z"/>
</svg>
