<?xml version="1.0" encoding="utf-8"?>
<!-- Generator: Adobe Illustrator 17.0.0, SVG Export Plug-In . SVG Version: 6.00 Build 0)  -->
<!DOCTYPE svg PUBLIC "-//W3C//DTD SVG 1.1//EN" "http://www.w3.org/Graphics/SVG/1.1/DTD/svg11.dtd">
<svg version="1.1" id="Layer_1" xmlns="http://www.w3.org/2000/svg" xmlns:xlink="http://www.w3.org/1999/xlink" x="0px" y="0px"
	 width="24px" height="24px" viewBox="0 0 24 24" enable-background="new 0 0 24 24" xml:space="preserve">
<path fill="#0052B5" d="M21.542,9C20.268,4.943,16.478,2,12,2C7.522,2,3.732,4.943,2.458,9C2.16,9.947,2,10.955,2,12
	c0,1.422,0.297,2.775,0.832,4c1.543,3.532,5.067,6,9.168,6c4.101,0,7.625-2.468,9.168-6C21.703,14.775,22,13.422,22,12
	C22,10.955,21.84,9.947,21.542,9z"/>
<g>
	<g>
		<polygon fill="#FFD449" points="12,3.957 12.46,5.382 13.957,5.379 12.744,6.256 13.21,7.679 12,6.796 10.79,7.679 11.256,6.256 
			10.043,5.379 11.54,5.382 		"/>
		<polygon fill="#FFD449" points="12,20.043 11.54,18.618 10.043,18.621 11.256,17.744 10.79,16.321 12,17.204 13.21,16.321 
			12.744,17.744 13.957,18.621 12.46,18.618 		"/>
	</g>
	<g>
		<polygon fill="#FFD449" points="3.957,12 5.382,11.54 5.379,10.043 6.256,11.256 7.679,10.79 6.796,12 7.679,13.21 6.256,12.744 
			5.379,13.957 5.382,12.46 		"/>
		<polygon fill="#FFD449" points="20.043,12 18.618,12.46 18.621,13.957 17.744,12.744 16.321,13.21 17.204,12 16.321,10.79 
			17.744,11.256 18.621,10.043 18.618,11.54 		"/>
	</g>
	<g>
		<polygon fill="#FFD449" points="6.312,6.312 7.645,6.995 8.702,5.934 8.464,7.413 9.8,8.09 8.321,8.321 8.09,9.8 7.413,8.464 
			5.934,8.702 6.995,7.645 		"/>
		<polygon fill="#FFD449" points="17.688,17.688 16.355,17.005 15.298,18.066 15.536,16.587 14.2,15.91 15.679,15.679 15.91,14.2 
			16.587,15.536 18.066,15.298 17.005,16.355 		"/>
	</g>
	<g>
		<polygon fill="#FFD449" points="6.312,17.688 6.995,16.355 5.934,15.298 7.413,15.536 8.09,14.2 8.321,15.679 9.8,15.91 
			8.464,16.587 8.702,18.066 7.645,17.005 		"/>
		<polygon fill="#FFD449" points="17.688,6.312 17.005,7.645 18.066,8.702 16.587,8.464 15.91,9.8 15.679,8.321 14.2,8.09 
			15.536,7.413 15.298,5.934 16.355,6.995 		"/>
	</g>
</g>
</svg>
