<svg width="50" height="46" viewBox="0 0 50 46" fill="none" xmlns="http://www.w3.org/2000/svg">
<path fill-rule="evenodd" clip-rule="evenodd" d="M24.9989 0C22.7088 0 20.585 1.2529 19.391 3.31538L0.893552 35.6712C-0.288277 37.815 -0.295227 40.4159 0.857554 42.535C2.01034 44.6541 4.1497 45.9731 6.47746 45.9999L43.4964 46C45.8481 45.9731 47.9875 44.6541 49.1403 42.535C50.2931 40.4159 50.2861 37.815 49.122 35.7028L30.6068 3.31538C29.4129 1.2529 27.289 0 24.9989 0ZM4.65211 40.2686C4.26785 39.5623 4.27017 38.6953 4.6582 37.9912L23.1343 5.67342C23.5307 4.99222 24.2372 4.57642 24.9989 4.57642C25.7622 4.57642 26.4702 4.99405 26.8661 5.67791L45.3573 38.0228C45.7276 38.6953 45.7299 39.5623 45.3456 40.2686C44.9613 40.975 44.2482 41.4146 43.4723 41.4236L6.50141 41.4234C5.7495 41.4146 5.03637 40.975 4.65211 40.2686ZM22.8149 16.2527V25.4057C22.8149 26.6695 23.7927 27.6939 24.9988 27.6939C26.2049 27.6939 27.1827 26.6695 27.1827 25.4057V16.2527C27.1827 14.989 26.2049 13.9645 24.9988 13.9645C23.7927 13.9645 22.8149 14.989 22.8149 16.2527ZM26.5431 30.6526C27.3959 31.5462 27.3959 32.9951 26.5431 33.8887C25.6902 34.7823 24.3074 34.7823 23.4546 33.8887C22.6017 32.9951 22.6017 31.5462 23.4546 30.6526C24.3074 29.759 25.6902 29.759 26.5431 30.6526Z" fill="#D84646"/>
</svg>
