<svg width="70" height="70" viewBox="0 0 70 70" fill="none" xmlns="http://www.w3.org/2000/svg">
<path d="M16.7947 33.3749L16.7842 30.786L16.7877 30.7878L16.7947 33.3749Z" fill="#80B3FF"/>
<path d="M12.6199 42.8868L12.5867 31.467L16.7877 33.9316L16.8822 63.9812C16.8822 64.7339 17.15 65.2625 17.5824 65.5093L13.3814 63.0447C12.9508 62.7979 12.6812 62.2693 12.6812 61.5149L12.6357 48.2694" fill="#F0F0F0"/>
<path d="M45.8254 50.025L19.2906 65.3448C17.9761 66.1045 16.896 65.5006 16.8925 63.9812L16.8015 33.9316L56.9214 10.7664L57.0159 40.816C57.0159 42.3354 55.9569 44.1751 54.6318 44.9418L50.8019 47.1526" fill="white"/>
<path d="M54.511 6.25728C55.8378 5.49234 56.9056 6.10149 56.9109 7.62086L56.9196 12.3225L16.8015 35.4877V30.786C16.8015 29.2667 17.8693 27.42 19.1856 26.6603L54.511 6.25728Z" fill="white"/>
<path d="M45.0728 6.81216L50.3048 3.79267C50.97 3.40408 51.5739 3.36907 52.008 3.61763L56.209 6.08399C55.7749 5.83542 55.171 5.87043 54.5059 6.25903L19.1717 26.6603C17.8519 27.42 16.7824 29.2667 16.7841 30.793L16.8016 34.9311V35.4877L12.6006 33.0231V28.3232C12.6006 26.8003 13.6718 24.9589 14.9864 24.1992L41.6262 8.80415" fill="#F0F0F0"/>
<path d="M12.5884 31.467L12.5849 31.4652L12.5779 28.3232L12.5884 31.467Z" fill="white"/>
<path d="M20.663 28.507C21.3351 28.1184 21.8778 28.444 21.8778 29.2177C21.8574 29.6348 21.7379 30.0411 21.529 30.4027C21.3202 30.7644 21.0281 31.071 20.677 31.2972C20.0048 31.6858 19.4517 31.3934 19.4517 30.6215C19.4742 30.1989 19.5955 29.7874 19.8058 29.4202C20.0162 29.0529 20.3098 28.7402 20.663 28.507Z" fill="white"/>
<path d="M25.3577 25.7956C26.0298 25.4087 26.5637 25.7326 26.5672 26.5063C26.5469 26.9234 26.4273 27.3297 26.2185 27.6913C26.0096 28.053 25.7175 28.3596 25.3664 28.5858C24.6942 28.9726 24.1411 28.6785 24.1411 27.9066C24.1642 27.484 24.2863 27.0727 24.4976 26.706C24.709 26.3393 25.0036 26.0274 25.3577 25.7956Z" fill="white"/>
<path d="M30.0522 23.0912C30.7244 22.7026 31.2583 23.0281 31.2618 23.7913C31.2414 24.2085 31.1219 24.6147 30.913 24.9764C30.7042 25.3381 30.4121 25.6447 30.061 25.8708C29.3888 26.2594 28.8357 25.9654 28.8357 25.1934C28.86 24.7723 28.9827 24.3627 29.194 23.9976C29.4052 23.6325 29.6992 23.322 30.0522 23.0912Z" fill="white"/>
<path d="M57.2365 7.62262C57.2365 6.79292 56.9372 6.15751 56.4068 5.83368C56.3928 5.81968 56.3928 5.80743 56.3806 5.80743H56.3683L52.1673 3.34457C51.6089 3.02074 50.8842 3.07326 50.1455 3.51962L44.9118 6.53385C44.8401 6.57785 44.7884 6.64814 44.7679 6.7297C44.7474 6.81126 44.7595 6.89762 44.8018 6.97032C44.8441 7.04302 44.9132 7.09629 44.9942 7.11875C45.0753 7.1412 45.1619 7.13106 45.2356 7.09049L50.4729 4.071C50.998 3.75942 51.4969 3.69466 51.847 3.89596L54.9172 5.71115C54.7166 5.77093 54.5251 5.8581 54.3483 5.97022L19.0036 26.3767C17.577 27.2064 16.462 29.1372 16.462 30.7826C16.462 30.9156 16.476 35.9516 16.476 35.6803L12.9122 33.5937C12.9122 30.3572 12.9122 31.3129 12.8981 28.3197C12.8981 26.9071 13.8959 25.1917 15.1282 24.4915L41.789 9.08773C41.8607 9.04374 41.9123 8.97345 41.9328 8.89189C41.9534 8.81033 41.9412 8.72397 41.8989 8.65126C41.8566 8.57856 41.7876 8.52529 41.7065 8.50284C41.6255 8.48038 41.5388 8.49052 41.4652 8.53109L14.8044 23.9139C13.3655 24.7436 12.2505 26.6743 12.2505 28.3197C12.2715 36.1126 12.2505 30.4902 12.303 42.8885C12.3013 42.9319 12.3085 42.9752 12.3241 43.0157C12.3397 43.0562 12.3633 43.0932 12.3936 43.1243C12.4239 43.1554 12.4602 43.18 12.5003 43.1966C12.5404 43.2133 12.5834 43.2216 12.6268 43.2211C12.7138 43.2197 12.7967 43.184 12.8574 43.1216C12.9181 43.0593 12.9516 42.9755 12.9507 42.8885L12.9122 33.5937L16.476 35.6803L16.567 63.9742C16.5734 64.176 16.5933 64.3772 16.6266 64.5763L13.5458 62.7699C13.1957 62.5634 13.0014 62.1222 13.0014 61.5131L12.9629 48.2676C12.9629 48.2252 12.9545 48.1833 12.9382 48.1442C12.9219 48.1051 12.898 48.0696 12.8679 48.0398C12.8377 48.01 12.802 47.9865 12.7627 47.9706C12.7235 47.9547 12.6814 47.9468 12.6391 47.9473C12.5964 47.9468 12.5541 47.9549 12.5146 47.971C12.4751 47.9871 12.4392 48.0109 12.4091 48.0411C12.3789 48.0712 12.3551 48.1071 12.3389 48.1466C12.3228 48.1861 12.3148 48.2284 12.3153 48.2711L12.3538 61.5131C12.3678 62.3691 12.6653 63.0045 13.2097 63.3283L17.4108 65.7789C17.423 65.7789 17.423 65.7929 17.437 65.7929H17.4493C18.0654 66.1692 18.8304 65.9854 19.4588 65.6179L45.99 50.2981C46.0617 50.2541 46.1133 50.1838 46.1339 50.1022C46.1544 50.0207 46.1422 49.9343 46.0999 49.8616C46.0577 49.7889 45.9886 49.7357 45.9075 49.7132C45.8265 49.6907 45.7399 49.7009 45.6662 49.7415L19.1332 65.0647C17.9569 65.7369 17.2077 65.1645 17.2077 63.976L17.1167 35.6698L56.6029 12.8704L56.6939 40.8143C56.6939 42.2269 55.6961 43.951 54.4638 44.6652L50.6409 46.869C50.604 46.89 50.5717 46.9182 50.5457 46.9518C50.5198 46.9855 50.5008 47.024 50.4899 47.065C50.479 47.1061 50.4764 47.1489 50.4822 47.1909C50.4879 47.233 50.502 47.2735 50.5236 47.3101C50.5669 47.3837 50.6366 47.438 50.7186 47.4621C50.8005 47.4862 50.8885 47.4781 50.9647 47.4396L54.7859 45.2218C56.2248 44.3921 57.3398 42.4614 57.3398 40.8143C57.3205 33.9806 57.2593 14.4703 57.2365 7.62262ZM56.6029 12.8704L17.1167 35.6698C17.1167 35.5367 17.1097 30.5112 17.1114 30.7826C17.1114 29.37 18.1092 27.6458 19.3275 26.9474L54.6721 6.53385C55.7662 5.9072 56.5976 6.33956 56.5976 7.62262L56.6029 12.8704Z" fill="#0C60FE"/>
<path d="M45.864 37.9173L51.1083 35.4334L49.5399 38.1501L52.1025 39.6187L50.4834 42.4229L47.9138 40.9665L46.3454 43.6832L45.864 37.9173Z" fill="white"/>
<rect x="0.433013" y="0.25" width="31.3316" height="1.83419" rx="0.917096" transform="matrix(0.866025 -0.5 2.20305e-08 1 20.058 59.3823)" stroke="#0C60FE"/>
<rect x="0.433013" y="0.25" width="7.0829" height="1.83419" rx="0.917096" transform="matrix(0.866025 -0.5 2.20305e-08 1 20.058 55.3823)" stroke="#0C60FE"/>
<rect x="0.433013" y="0.25" width="7.0829" height="1.83419" rx="0.917096" transform="matrix(0.866025 -0.5 2.20305e-08 1 35.058 46.2579)" stroke="#0C60FE"/>
<rect x="0.433013" y="0.25" width="7" height="7" rx="1.5" transform="matrix(0.866025 -0.5 2.20305e-08 1 47.058 26.2165)" stroke="#0C60FE"/>
</svg>
