<?xml version="1.0" encoding="utf-8"?>
<!-- Generator: Adobe Illustrator 17.0.0, SVG Export Plug-In . SVG Version: 6.00 Build 0)  -->
<!DOCTYPE svg PUBLIC "-//W3C//DTD SVG 1.1//EN" "http://www.w3.org/Graphics/SVG/1.1/DTD/svg11.dtd">
<svg version="1.1" id="Layer_1" xmlns="http://www.w3.org/2000/svg" xmlns:xlink="http://www.w3.org/1999/xlink" x="0px" y="0px"
	 width="70px" height="70px" viewBox="542.5 252 70 70" enable-background="new 542.5 252 70 70" xml:space="preserve">
<g>
	<path fill="#F8BD15" d="M573.831,271.703c1.228-1.22,2.426-2.472,3.683-3.659c1.316,1.213,2.607,2.454,3.926,3.661
		c-1.325,1.2-2.609,2.444-3.923,3.657C576.254,274.179,575.062,272.921,573.831,271.703z"/>
	<path fill="#F8BD15" d="M576.545,276.576c-2.19,0.133-4.385,0.359-6.511,0.919c-4.653,1.11-8.957,3.468-12.534,6.627
		c1.819,4.417,3.816,8.783,5.089,13.4c1.231,0.067,2.467,0.021,3.7,0.032c-1.656-4.168-3.475-8.276-5.074-12.466
		c0.472-0.299,0.932-0.618,1.387-0.94c1.744,4.014,3.393,8.07,5.107,12.098c0.286,0.704,0.954,1.323,1.752,1.303
		c2.362,0.015,4.724,0.011,7.086-0.002C576.546,290.556,576.552,283.566,576.545,276.576z M570.464,294.112
		c-1.595-3.786-3.079-7.623-4.656-11.416c2.334-1.027,4.8-1.739,7.306-2.212c0.011,4.784-0.015,9.567,0.013,14.351
		C572.214,294.837,570.941,295.155,570.464,294.112z"/>
	<path fill="#F8BD15" d="M587.482,278.229c-2.893-1.027-5.951-1.488-9.008-1.656c0,6.994,0.011,13.988-0.002,20.982
		c2.364-0.004,4.727,0.015,7.091-0.006c0.848,0.022,1.52-0.664,1.804-1.411c1.662-3.99,3.367-7.963,5.008-11.963
		c0.492,0.283,0.968,0.593,1.435,0.915c-0.217,0.711-0.52,1.394-0.807,2.081c-1.422,3.462-2.854,6.919-4.275,10.381
		c1.061,0.006,2.12,0.006,3.182,0c1.952-4.449,3.981-8.873,5.588-13.46C594.552,281.554,591.185,279.458,587.482,278.229z
		 M588.745,283.834c-1.252,3.071-2.489,6.15-3.732,9.227c-0.262,0.657-0.477,1.467-1.207,1.752
		c-0.629,0.103-1.271,0.037-1.905,0.043c0.019-4.789,0.011-9.578-0.002-14.366c2.463,0.459,4.9,1.136,7.187,2.163
		C589.175,283.048,588.852,283.448,588.745,283.834z"/>
	<path fill="#F8BD15" d="M563.296,299.214c9.545,0,19.09-0.002,28.634,0c0,1.123,0,2.248,0,3.371c-9.545,0-19.089,0-28.634,0
		C563.296,301.462,563.296,300.337,563.296,299.214z"/>
</g>
</svg>
