<?xml version="1.0" encoding="utf-8"?>
<!-- Generator: Adobe Illustrator 17.0.0, SVG Export Plug-In . SVG Version: 6.00 Build 0)  -->
<!DOCTYPE svg PUBLIC "-//W3C//DTD SVG 1.1//EN" "http://www.w3.org/Graphics/SVG/1.1/DTD/svg11.dtd">
<svg version="1.1" id="Layer_1" xmlns="http://www.w3.org/2000/svg" xmlns:xlink="http://www.w3.org/1999/xlink" x="0px" y="0px"
	 width="37.833px" height="17.827px" viewBox="5 15.202 37.833 17.827" enable-background="new 5 15.202 37.833 17.827"
	 xml:space="preserve">
<g>
	<path fill="#F79F1A" d="M38.301,24.116c0,4.923-3.983,8.914-8.897,8.914s-8.897-3.991-8.897-8.914c0-4.923,3.983-8.914,8.897-8.914
		S38.301,19.193,38.301,24.116L38.301,24.116z"/>
	<path fill="#EA001B" d="M27.326,24.116c0,4.923-3.983,8.914-8.897,8.914c-4.914,0-8.897-3.991-8.897-8.914
		c0-4.923,3.983-8.914,8.897-8.914C23.342,15.202,27.326,19.193,27.326,24.116L27.326,24.116z"/>
	<path fill="#FF5F01" d="M23.917,17.099c-2.076,1.632-3.408,4.168-3.408,7.016c0,2.849,1.333,5.386,3.408,7.018
		c2.076-1.632,3.408-4.169,3.408-7.018C27.325,21.266,25.992,18.73,23.917,17.099L23.917,17.099z"/>
</g>
</svg>
