<?xml version="1.0" encoding="utf-8"?>
<!-- Generator: Adobe Illustrator 17.0.0, SVG Export Plug-In . SVG Version: 6.00 Build 0)  -->
<!DOCTYPE svg PUBLIC "-//W3C//DTD SVG 1.1//EN" "http://www.w3.org/Graphics/SVG/1.1/DTD/svg11.dtd">
<svg version="1.1" id="Layer_1" xmlns="http://www.w3.org/2000/svg" xmlns:xlink="http://www.w3.org/1999/xlink" x="0px" y="0px"
	 width="70px" height="70px" viewBox="0 0 70 70" enable-background="new 0 0 70 70" xml:space="preserve">
<title>mir-logo</title>
<desc>Created with Sketch.</desc>
<g>
	<path fill="#FFFFFF" d="M8.618,27.801h4.95c0.45,0,1.8-0.15,2.4,1.95c0.45,1.35,1.05,3.45,1.95,6.6h0.3c0.9-3.3,1.65-5.55,1.95-6.6
		c0.6-2.1,2.1-1.95,2.7-1.95h4.65v14.4h-4.8v-8.55h-0.3l-2.55,8.55h-3.6l-2.55-8.55h-0.45v8.55h-4.65 M29.468,27.801h4.8v8.55h0.45
		l3.15-7.05c0.6-1.35,1.95-1.5,1.95-1.5h4.5v14.4h-4.8v-8.55h-0.3l-3.15,7.05c-0.6,1.35-2.1,1.5-2.1,1.5h-4.5 M50.768,37.851v4.35
		h-4.5v-7.5h14.7c-0.6,1.8-2.7,3.15-5.1,3.15"/>
	
		<linearGradient id="SVGID_1_" gradientUnits="userSpaceOnUse" x1="344.6285" y1="-369.2612" x2="332.6285" y2="-369.2612" gradientTransform="matrix(1 0 0 -1 -285.16 -338.46)">
		<stop  offset="0" style="stop-color:#1F5CD7"/>
		<stop  offset="1" style="stop-color:#02AEFF"/>
	</linearGradient>
	<path fill="url(#SVGID_1_)" d="M61.269,33.801c0.6-2.7-1.2-6-5.1-6h-10.2c0.3,3.15,3,6,5.85,6"/>
</g>
</svg>
