<?xml version="1.0" encoding="utf-8"?>
<!-- Generator: Adobe Illustrator 17.0.0, SVG Export Plug-In . SVG Version: 6.00 Build 0)  -->
<!DOCTYPE svg PUBLIC "-//W3C//DTD SVG 1.1//EN" "http://www.w3.org/Graphics/SVG/1.1/DTD/svg11.dtd">
<svg version="1.1" id="Layer_1" xmlns="http://www.w3.org/2000/svg" xmlns:xlink="http://www.w3.org/1999/xlink" x="0px" y="0px"
	 width="70px" height="70px" viewBox="165 25 70 70" enable-background="new 165 25 70 70" xml:space="preserve">
<title>mir-logo</title>
<desc>Created with Sketch.</desc>
<g id="sim">
	<g id="mir-logo" transform="translate(31.000000, 13.000000)">
		<g id="Group-5">
			<path id="Combined-Shape" fill="#0F754E" d="M148.624,40.183c0.447-0.003,1.774-0.122,2.337,1.776
				c0.379,1.278,0.982,3.373,1.81,6.282l0,0h0.337c0.888-3.068,1.498-5.162,1.83-6.282c0.568-1.918,1.989-1.776,2.557-1.776l4.384,0
				v13.636h-4.468v-8.036h-0.3l-2.491,8.036h-3.362l-2.491-8.042h-0.3v8.042H144V40.183L148.624,40.183z M168.294,40.183v8.042
				h0.356l3.03-6.613c0.588-1.316,1.842-1.429,1.842-1.429l0,0h4.324v13.636h-4.561v-8.042h-0.356l-2.97,6.613
				c-0.588,1.31-1.901,1.429-1.901,1.429h-4.324V40.183H168.294z M193.611,46.663c-0.636,1.803-2.634,3.094-4.846,3.094l0,0h-4.783
				v4.062h-4.337v-7.156H193.611z"/>
			
				<linearGradient id="path24_1_" gradientUnits="userSpaceOnUse" x1="157.9074" y1="49.3298" x2="157.7654" y2="49.3298" gradientTransform="matrix(102.6707 0 0 -39.6694 -16018.4658 1999.8862)">
				<stop  offset="0" style="stop-color:#1F5CD7"/>
				<stop  offset="1" style="stop-color:#02AEFF"/>
			</linearGradient>
			<path id="path24" fill="url(#path24_1_)" d="M188.974,40.183h-9.558c0.227,3.036,2.842,5.635,5.548,5.635h8.948
				C194.429,43.295,192.651,40.183,188.974,40.183z"/>
		</g>
	</g>
</g>
</svg>
