<svg width="70" height="70" viewBox="0 0 70 70" fill="none" xmlns="http://www.w3.org/2000/svg">
<path d="M49.6166 40.2232C49.6166 41.8518 50.7622 43.8465 52.1891 44.6735C52.8975 45.0853 53.5448 45.1208 54.0193 44.8429L27.5249 60.2407C27.0639 60.5118 26.4149 60.4763 25.6963 60.0712C24.2779 59.2527 23.1187 57.2462 23.1187 55.6176L23.1916 31.7702C23.2035 27.6047 20.2649 22.5173 16.6417 20.4159C14.825 19.3652 13.1608 19.2703 11.9695 19.9668L38.464 4.57076C39.6502 3.87425 41.3093 3.96915 43.1379 5.01985C46.7611 7.12124 49.6996 12.2069 49.6878 16.3741" fill="#80B3FF"/>
<path d="M26.8469 60.7356C26.3832 60.7194 25.9317 60.5827 25.5369 60.339C24.0304 59.473 22.8068 57.3547 22.8068 55.6177L22.878 31.7702C22.8898 27.7115 20.0208 22.741 16.4857 20.6905C14.852 19.7381 13.2692 19.5686 12.1405 20.2295H12.127C12.0914 20.2502 12.052 20.2637 12.0112 20.2692C11.9704 20.2747 11.9289 20.2721 11.8891 20.2616C11.8493 20.251 11.8119 20.2327 11.7792 20.2078C11.7464 20.1828 11.7189 20.1516 11.6982 20.116C11.6775 20.0804 11.6641 20.0411 11.6586 20.0002C11.6531 19.9594 11.6557 19.9179 11.6662 19.8781C11.6768 19.8383 11.695 19.8009 11.72 19.7682C11.745 19.7354 11.7762 19.7079 11.8118 19.6872L11.827 19.6771L38.3063 4.29963C39.6518 3.515 41.4211 3.6726 43.2937 4.74703C47.0135 6.89926 50.0131 12.1121 50.0012 16.3742C50.0014 16.4154 49.9935 16.4563 49.9778 16.4944C49.9621 16.5325 49.939 16.5672 49.9099 16.5964C49.8807 16.6255 49.8461 16.6486 49.8079 16.6643C49.7698 16.6799 49.7289 16.6879 49.6877 16.6877C49.6466 16.6877 49.6059 16.6796 49.568 16.6638C49.53 16.648 49.4956 16.6249 49.4666 16.5957C49.4376 16.5666 49.4147 16.532 49.3991 16.494C49.3835 16.456 49.3756 16.4153 49.3759 16.3742C49.3877 12.307 46.5186 7.34326 42.9836 5.29271C41.3143 4.33522 39.7637 4.17762 38.6249 4.84362L13.8827 19.2144C14.9138 19.2864 15.9124 19.6055 16.7941 20.1448C20.5088 22.2936 23.5169 27.5082 23.5067 31.7702L23.4355 55.6227C23.4355 57.1327 24.5405 59.046 25.8504 59.7984C26.4334 60.1373 26.9876 60.1983 27.3638 59.978L52.7127 45.248C52.4754 45.175 52.2478 45.0738 52.0348 44.9463C50.5096 44.0617 49.3064 41.9891 49.3064 40.2267C49.3064 40.1435 49.3394 40.0638 49.3982 40.005C49.457 39.9462 49.5367 39.9131 49.6199 39.9131C49.703 39.9131 49.7828 39.9462 49.8416 40.005C49.9004 40.0638 49.9334 40.1435 49.9334 40.2267C49.9334 41.7603 51.018 43.6346 52.35 44.404C52.933 44.743 53.4736 44.8074 53.865 44.582C53.937 44.5402 54.0225 44.5286 54.1029 44.5499C54.1833 44.5712 54.252 44.6236 54.2938 44.6955C54.3356 44.7674 54.3471 44.853 54.3258 44.9334C54.3045 45.0138 54.2522 45.0825 54.1802 45.1243L27.6807 60.5153C27.4277 60.6624 27.1396 60.7386 26.8469 60.7356Z" fill="#0C60FE"/>
<path d="M49.6708 22.1597L49.6166 40.2232C49.6166 41.8518 50.7622 43.8465 52.1891 44.6735C52.8975 45.0853 53.5448 45.1208 54.0193 44.8429L27.5249 60.2407C27.0639 60.5118 26.4149 60.4763 25.6963 60.0712C24.2779 59.2527 23.1187 57.2462 23.1187 55.6176L23.1916 31.7702C23.2035 27.6047 20.2649 22.5173 16.6417 20.4159C14.825 19.3652 13.1608 19.2703 11.9695 19.9668L38.464 4.57076C39.6502 3.87425 41.3093 3.96915 43.1379 5.01985C46.7611 7.12124 49.6996 12.2069 49.6878 16.3741" fill="white"/>
<path d="M45.4136 56.2294L30.2971 65.0129C31.4647 64.335 32.185 62.8878 32.1968 60.8576V59.0307L58.6913 43.6329L58.6795 45.4598C58.6795 47.4934 57.9609 48.9305 56.7916 49.6151L54.9936 50.659L48.7877 54.2653" fill="white"/>
<path d="M28.2874 56.7683L54.7801 41.3723L58.6931 43.6329L32.202 59.0273L28.2874 56.7683Z" fill="white"/>
<path d="M19.2853 29.5079C19.2853 27.8233 18.099 25.7626 16.6297 24.9153C15.1604 24.068 13.9623 24.7458 13.9572 26.4405L10.0493 24.1764C10.0697 20.016 13.0167 18.3247 16.6433 20.4159C20.2699 22.5072 23.205 27.6013 23.1932 31.7702L23.1186 55.621C23.1186 57.2513 24.2676 59.2476 25.6877 60.0679C27.1079 60.8881 28.267 60.2272 28.2721 58.5952V56.7683L32.1868 59.0273L32.1766 60.8542C32.1648 64.9604 29.2449 66.6245 25.6657 64.5587C22.0866 62.4929 19.2073 57.4699 19.2209 53.3637L19.2853 29.5079Z" fill="#F0F0F0"/>
<path d="M58.8558 43.3601H58.844L54.9462 41.1011C54.8997 41.0704 54.8452 41.0541 54.7895 41.0541C54.7337 41.0541 54.6792 41.0704 54.6327 41.1011L51.057 43.1771C50.391 42.2992 49.9351 41.2011 49.9351 40.225L49.9893 22.1615C49.9893 22.0784 49.9566 21.9988 49.8982 21.9398C49.8398 21.8807 49.7605 21.8471 49.6775 21.8463C49.5943 21.8463 49.5146 21.8793 49.4558 21.9381C49.397 21.9969 49.364 22.0766 49.364 22.1598L49.3098 40.2233C49.3098 41.3214 49.7944 42.5229 50.5147 43.4991L28.2026 56.4599L28.1281 56.4989C28.0821 56.5256 28.044 56.5639 28.0175 56.61C27.991 56.6561 27.9772 56.7084 27.9772 56.7616V56.7751L27.9654 58.5935C27.9654 59.9035 27.118 60.5186 25.8572 59.7984C24.415 58.9121 23.4474 57.0971 23.4474 55.6194L23.5084 31.7702C23.5253 26.3134 18.5938 19.4517 13.8928 19.2144L38.6232 4.84193C39.7654 4.17592 41.3126 4.33353 42.9819 5.29101C46.5169 7.34157 49.386 12.3137 49.3741 16.3725C49.3737 16.4137 49.3814 16.4546 49.3969 16.4928C49.4124 16.5311 49.4353 16.5658 49.4643 16.5952C49.4933 16.6245 49.5278 16.6477 49.5659 16.6636C49.6039 16.6795 49.6447 16.6877 49.686 16.6877C49.7271 16.6879 49.7678 16.68 49.8058 16.6644C49.8438 16.6489 49.8784 16.6259 49.9076 16.5969C49.9367 16.568 49.9598 16.5335 49.9756 16.4956C49.9914 16.4576 49.9995 16.4169 49.9995 16.3759C50.013 12.1121 47.0135 6.89926 43.2937 4.74703C41.4211 3.6726 39.6518 3.515 38.3063 4.29963L11.827 19.6822C11.7118 19.8126 9.75105 20.699 9.73071 24.1747C9.73253 24.2315 9.74911 24.2869 9.77883 24.3353C9.80855 24.3837 9.85037 24.4236 9.90018 24.451L13.7979 26.71C13.8466 26.7343 13.9003 26.7469 13.9547 26.7469C14.0091 26.7469 14.0628 26.7343 14.1114 26.71C14.1611 26.6825 14.2029 26.6426 14.2326 26.5942C14.2623 26.5458 14.2789 26.4905 14.2809 26.4337C14.2809 25.7423 14.508 25.2288 14.9096 25.0034C15.3113 24.778 15.8756 24.834 16.4772 25.1915C17.8584 25.9813 18.9751 27.903 18.9751 29.4824V29.5079L18.9124 53.362C18.8989 57.5767 21.873 62.7098 25.5369 64.8299C27.0486 65.7026 28.8924 66.1619 30.3989 65.301C30.5684 65.2451 29.2126 66.0111 45.5798 56.5006C45.6517 56.4588 45.7041 56.3901 45.7254 56.3097C45.7466 56.2293 45.7351 56.1437 45.6933 56.0718C45.6515 55.9999 45.5829 55.9475 45.5025 55.9263C45.4221 55.905 45.3365 55.9165 45.2646 55.9583L31.9021 63.7216C32.341 62.8624 32.5139 61.7896 32.519 60.8576C32.519 60.7322 32.5274 59.0816 32.519 59.207L58.3678 44.1837C58.2864 44.7785 58.7948 48.0815 56.6273 49.3474L48.6234 53.9975C48.5878 54.0184 48.5566 54.046 48.5317 54.0788C48.5068 54.1117 48.4886 54.1491 48.4781 54.189C48.4676 54.2289 48.4651 54.2705 48.4707 54.3113C48.4763 54.3522 48.4899 54.3915 48.5107 54.4271C48.5315 54.4628 48.5591 54.4939 48.592 54.5188C48.6248 54.5438 48.6623 54.562 48.7022 54.5725C48.7421 54.5829 48.7836 54.5854 48.8245 54.5798C48.8653 54.5742 48.9047 54.5606 48.9403 54.5398L56.9426 49.888C58.261 49.1169 58.9863 47.5459 58.9863 45.4649L58.9999 43.6414C59.0014 43.5862 58.9891 43.5315 58.9639 43.4823C58.9387 43.4331 58.9015 43.3911 58.8558 43.3601ZM31.8784 60.8525C31.8784 62.3353 31.4157 63.9944 30.1346 64.7418C29.0042 65.3942 27.4739 65.2315 25.8419 64.291C22.3543 62.2743 19.5174 57.3767 19.531 53.362L19.5937 29.5079C19.6056 27.7251 18.3379 25.5423 16.7822 24.6391C15.9671 24.1747 15.1892 24.112 14.5792 24.451C14.0911 24.7391 13.7776 25.2407 13.6759 25.9067L10.3713 23.9985C10.4086 22.2038 11.0356 20.8752 12.127 20.2346H12.1405C13.3658 19.4551 15.2147 19.9262 16.4823 20.6854C20.0208 22.7309 22.8932 27.703 22.8814 31.7702L22.8187 55.6227C22.8187 57.4869 24.1608 59.5595 25.542 60.3407C27.2367 61.305 28.5924 60.4102 28.5924 58.5969L28.6043 57.3174L31.8801 59.2002V59.212C31.8818 59.3358 31.8784 60.9796 31.8784 60.8525ZM32.1936 58.6698L28.9178 56.7616L54.7801 41.7417L58.0661 43.6329L32.1936 58.6698Z" fill="#0C60FE"/>
<path d="M35.5506 26.0863C36.4403 25.5779 37.1351 24.3645 37.1317 23.3375C37.1317 22.1852 36.2284 21.6717 35.2269 22.2479C34.3355 22.7563 33.6407 23.9663 33.6441 24.9898C33.6491 26.1388 34.5422 26.6676 35.5506 26.0863ZM34.2711 24.9915C34.2711 24.2001 34.8507 23.1935 35.5404 22.7885C36.0996 22.4648 36.503 22.6529 36.5047 23.3358C36.5047 24.1323 35.9268 25.1407 35.237 25.5389C34.6507 25.8795 34.2728 25.6541 34.2711 24.9915Z" fill="black"/>
<path d="M35.4491 39.4827C36.349 38.9624 37.0523 37.7405 37.0489 36.7034C37.0489 35.5544 36.149 35.0087 35.1254 35.6036C34.2255 36.1238 33.5223 37.3406 33.5256 38.376C33.5273 39.5369 34.4306 40.0741 35.4491 39.4827ZM35.4389 36.1475C36.0083 35.8205 36.4185 36.0052 36.4201 36.7051C36.4201 37.5118 35.8355 38.5353 35.1356 38.9387C34.5526 39.2776 34.1544 39.0658 34.1527 38.376C34.1493 37.5711 34.739 36.5509 35.4389 36.1475Z" fill="black"/>
<path d="M42.8801 33.1056C42.8801 34.2648 43.7834 34.8003 44.8036 34.2106C45.7035 33.692 46.4067 32.4718 46.4033 31.4313C46.4033 30.2654 45.4865 29.7519 44.4816 30.3331C43.58 30.8517 42.8784 32.0702 42.8801 33.1056ZM45.7763 31.4313C45.7763 32.2397 45.19 33.2615 44.4901 33.6666C43.9054 34.0055 43.5105 33.7869 43.5089 33.1022C43.5089 32.299 44.0952 31.2788 44.7951 30.8737C45.3611 30.5501 45.7729 30.7331 45.7763 31.4313Z" fill="black"/>
<path d="M44.4326 22.4004L44.0852 24.1137C44.0769 24.1541 44.0767 24.1957 44.0846 24.2362C44.0924 24.2767 44.1082 24.3152 44.1309 24.3496C44.1536 24.384 44.1829 24.4135 44.2171 24.4366C44.2513 24.4597 44.2896 24.4758 44.33 24.484C44.3704 24.4922 44.412 24.4924 44.4525 24.4846C44.493 24.4767 44.5315 24.461 44.5659 24.4383C44.6003 24.4155 44.6298 24.3862 44.6529 24.3521C44.676 24.3179 44.6921 24.2795 44.7003 24.2391L45.1986 21.7717C45.2117 21.6862 45.1916 21.5989 45.1425 21.5277C45.0933 21.4564 45.0188 21.4067 44.9342 21.3887L42.6633 21.0938C42.6221 21.0869 42.5798 21.0885 42.5392 21.0986C42.4986 21.1087 42.4605 21.127 42.4273 21.1524C42.3941 21.1779 42.3665 21.2099 42.3461 21.2464C42.3258 21.283 42.3132 21.3233 42.3091 21.365C42.2986 21.4474 42.3212 21.5307 42.3721 21.5965C42.4229 21.6623 42.4978 21.7052 42.5803 21.7158L44.0394 21.909C36.0846 27.3946 31.9784 31.494 29.2788 43.0771C29.2675 43.1178 29.2645 43.1604 29.2701 43.2024C29.2756 43.2443 29.2896 43.2846 29.3111 43.321C29.3327 43.3574 29.3614 43.389 29.3955 43.414C29.4296 43.439 29.4684 43.4569 29.5096 43.4665C29.5508 43.4761 29.5935 43.4773 29.6351 43.4699C29.6768 43.4626 29.7165 43.4469 29.7519 43.4239C29.7874 43.4008 29.8178 43.3708 29.8413 43.3357C29.8649 43.3005 29.881 43.261 29.8889 43.2194C32.5428 31.8313 36.5964 27.7996 44.4326 22.4004Z" fill="black"/>
<path d="M30.5835 28.325C30.5112 28.2832 30.4252 28.2719 30.3445 28.2935C30.2638 28.3151 30.1949 28.3679 30.1531 28.4402L28.9482 30.5264L27.85 29.9061C27.7777 29.8648 27.6919 29.8538 27.6114 29.8758C27.531 29.8977 27.4626 29.9507 27.4213 30.023C27.3799 30.0954 27.369 30.1812 27.391 30.2616C27.4129 30.342 27.4659 30.4104 27.5382 30.4518L28.6347 31.0754L27.4315 33.1599C27.4109 33.1956 27.3975 33.235 27.3922 33.2759C27.3868 33.3168 27.3896 33.3583 27.4003 33.3981C27.411 33.4379 27.4294 33.4752 27.4545 33.5079C27.4797 33.5406 27.511 33.568 27.5467 33.5886C27.5824 33.6092 27.6218 33.6226 27.6627 33.6279C27.7036 33.6333 27.7451 33.6305 27.7849 33.6198C27.8247 33.6091 27.8621 33.5907 27.8948 33.5655C27.9274 33.5404 27.9549 33.5091 27.9754 33.4734L29.1804 31.3856L30.2785 32.0126C30.3509 32.0539 30.4367 32.0648 30.5171 32.0429C30.5975 32.021 30.6659 31.968 30.7073 31.8957C30.7486 31.8233 30.7595 31.7375 30.7376 31.6571C30.7157 31.5767 30.6627 31.5083 30.5903 31.4669L29.4939 30.8433L30.6971 28.7588C30.7186 28.723 30.7327 28.6833 30.7387 28.6419C30.7446 28.6005 30.7422 28.5584 30.7316 28.518C30.7211 28.4776 30.7025 28.4397 30.6771 28.4065C30.6516 28.3734 30.6198 28.3457 30.5835 28.325Z" fill="black"/>
<path d="M38.3707 33.5818C38.4063 33.6025 38.4457 33.616 38.4865 33.6215C38.5273 33.627 38.5688 33.6244 38.6086 33.6139C38.6484 33.6034 38.6858 33.5851 38.7185 33.5601C38.7513 33.5351 38.7788 33.5039 38.7995 33.4683L40.0044 31.3821L41.1025 32.0075C41.1502 32.034 41.2039 32.048 41.2584 32.0482C41.3278 32.0485 41.3953 32.0258 41.4504 31.9836C41.5055 31.9415 41.5451 31.8822 41.5629 31.8152C41.5807 31.7482 41.5758 31.6771 41.5489 31.6131C41.5221 31.5492 41.4747 31.496 41.4144 31.4618L40.3179 30.8382L41.5211 28.7537C41.5627 28.6816 41.5739 28.5959 41.5523 28.5155C41.5307 28.4351 41.478 28.3665 41.4059 28.325C41.3337 28.2834 41.248 28.2722 41.1676 28.2938C41.0872 28.3154 41.0187 28.3681 40.9771 28.4402L39.7722 30.5263L38.6809 29.9061C38.645 29.8856 38.6055 29.8724 38.5646 29.8672C38.5236 29.862 38.4821 29.8649 38.4423 29.8758C38.4024 29.8866 38.3652 29.9052 38.3325 29.9305C38.2999 29.9557 38.2726 29.9872 38.2521 30.023C38.2316 30.0588 38.2184 30.0984 38.2132 30.1393C38.208 30.1802 38.2109 30.2218 38.2218 30.2616C38.2326 30.3014 38.2512 30.3387 38.2765 30.3713C38.3018 30.404 38.3332 30.4313 38.369 30.4518L39.4638 31.0754L38.2606 33.1599C38.221 33.2308 38.2104 33.3143 38.2309 33.393C38.2514 33.4716 38.3015 33.5393 38.3707 33.5818Z" fill="black"/>
<path d="M40.8024 6.66372C40.7989 6.60935 40.7819 6.55672 40.7529 6.51056C40.724 6.4644 40.684 6.42615 40.6366 6.39926C40.5892 6.37238 40.5359 6.35769 40.4814 6.35652C40.4269 6.35535 40.373 6.36774 40.3245 6.39257L18.9802 18.801C18.9208 18.8361 18.8747 18.8898 18.8488 18.9537C18.8229 19.0176 18.8186 19.0882 18.8367 19.1547C18.8548 19.2213 18.8942 19.2801 18.9489 19.3221C19.0036 19.3641 19.0705 19.387 19.1395 19.3873C19.1948 19.3871 19.2491 19.3725 19.2971 19.3449L40.5974 6.96029C40.6581 6.93818 40.7104 6.89777 40.7471 6.84465C40.7839 6.79152 40.8032 6.7283 40.8024 6.66372Z" fill="black"/>
<path d="M36.9777 13.5729C36.9356 13.5008 36.8666 13.4484 36.7859 13.4271C36.7052 13.4058 36.6194 13.4174 36.5472 13.4593L22.029 21.8886C21.9697 21.9238 21.9235 21.9774 21.8976 22.0413C21.8717 22.1052 21.8675 22.1759 21.8855 22.2424C21.9036 22.3089 21.943 22.3677 21.9977 22.4097C22.0524 22.4517 22.1193 22.4747 22.1883 22.475C22.2436 22.4748 22.2979 22.4602 22.3459 22.4326L36.8641 14.0033C36.9359 13.9609 36.988 13.8919 37.0092 13.8114C37.0305 13.7308 37.0191 13.6451 36.9777 13.5729Z" fill="black"/>
<path d="M40.7856 11.363C40.8063 11.3986 40.8338 11.4298 40.8666 11.4548C40.8993 11.4798 40.9367 11.4981 40.9765 11.5086C41.0163 11.5192 41.0578 11.5218 41.0986 11.5163C41.1394 11.5108 41.1788 11.4973 41.2144 11.4766L44.4563 9.59548C44.5277 9.55278 44.5795 9.48371 44.6004 9.40317C44.6213 9.32263 44.6097 9.2371 44.5681 9.16503C44.5474 9.12941 44.5199 9.09822 44.4872 9.07324C44.4544 9.04825 44.4171 9.02996 44.3773 9.01942C44.3375 9.00887 44.296 9.00628 44.2551 9.01178C44.2143 9.01729 44.175 9.03078 44.1394 9.05149L40.8975 10.9343C40.8258 10.9763 40.7738 11.0451 40.7528 11.1255C40.7319 11.2059 40.7437 11.2913 40.7856 11.363Z" fill="black"/>
<path d="M46.7135 12.79C46.6928 12.7544 46.6653 12.7232 46.6326 12.6982C46.5998 12.6732 46.5625 12.6549 46.5227 12.6444C46.4829 12.6338 46.4414 12.6312 46.4005 12.6367C46.3597 12.6422 46.3204 12.6557 46.2848 12.6764L24.1744 25.5288C24.1388 25.5496 24.1076 25.5772 24.0827 25.6101C24.0578 25.6429 24.0395 25.6804 24.0291 25.7203C24.0186 25.7602 24.0161 25.8017 24.0217 25.8426C24.0273 25.8834 24.0409 25.9228 24.0617 25.9584C24.0825 25.994 24.1101 26.0252 24.143 26.0501C24.1758 26.075 24.2133 26.0933 24.2532 26.1037C24.2931 26.1142 24.3346 26.1167 24.3755 26.1111C24.4163 26.1055 24.4557 26.0919 24.4913 26.0711L46.6017 13.2221C46.6374 13.2011 46.6687 13.1733 46.6937 13.1402C46.7187 13.1071 46.7369 13.0694 46.7473 13.0293C46.7577 12.9891 46.76 12.9473 46.7542 12.9062C46.7484 12.8652 46.7346 12.8257 46.7135 12.79Z" fill="black"/>
<path d="M25.3792 49.5473C25.3999 49.583 25.4274 49.6142 25.4602 49.6391C25.4929 49.6641 25.5303 49.6824 25.5701 49.693C25.6099 49.7035 25.6514 49.7061 25.6922 49.7006C25.7331 49.6951 25.7724 49.6816 25.808 49.6609L30.6226 46.8647C30.6582 46.844 30.6893 46.8165 30.7143 46.7837C30.7393 46.751 30.7576 46.7136 30.7681 46.6738C30.7787 46.634 30.7813 46.5925 30.7758 46.5517C30.7703 46.5109 30.7568 46.4715 30.7361 46.4359C30.7154 46.4003 30.6879 46.3691 30.6551 46.3442C30.6224 46.3192 30.5851 46.3009 30.5452 46.2904C30.5054 46.2798 30.4639 46.2772 30.4231 46.2827C30.3823 46.2882 30.343 46.3017 30.3073 46.3224L25.4911 49.1186C25.4198 49.161 25.3681 49.2297 25.3471 49.31C25.3262 49.3903 25.3377 49.4755 25.3792 49.5473Z" fill="black"/>
<path d="M34.0458 44.5125C34.073 44.5603 34.1125 44.5999 34.1601 44.6273C34.2078 44.6547 34.2619 44.6689 34.3169 44.6684C34.3721 44.669 34.4265 44.655 34.4745 44.6277L47.2795 37.1932C47.3514 37.1511 47.4037 37.0823 47.4248 37.0017C47.4459 36.9211 47.4342 36.8355 47.3922 36.7636C47.3501 36.6917 47.2813 36.6394 47.2007 36.6183C47.1201 36.5971 47.0345 36.6089 46.9626 36.6509L34.1576 44.0888C34.0877 44.1311 34.0369 44.199 34.0161 44.278C33.9952 44.3571 34.0058 44.4411 34.0458 44.5125Z" fill="black"/>
<path d="M47.5659 41.5265C47.5452 41.4909 47.5177 41.4597 47.485 41.4347C47.4522 41.4097 47.4149 41.3914 47.3751 41.3809C47.3353 41.3703 47.2938 41.3677 47.2529 41.3732C47.2121 41.3787 47.1728 41.3922 47.1372 41.4129L25.4674 53.9993C25.4076 54.034 25.361 54.0874 25.3348 54.1514C25.3085 54.2153 25.3041 54.2861 25.3223 54.3528C25.3405 54.4195 25.3802 54.4783 25.4352 54.5201C25.4903 54.5619 25.5576 54.5843 25.6267 54.5839C25.682 54.5837 25.7364 54.5691 25.7843 54.5416L47.4541 41.9569C47.5258 41.9145 47.5779 41.8455 47.5989 41.7648C47.6198 41.6841 47.608 41.5984 47.5659 41.5265Z" fill="black"/>
</svg>
