<svg width="70" height="70" viewBox="0 0 70 70" fill="none" xmlns="http://www.w3.org/2000/svg">
<path d="M44.8077 50.7584L41.3745 48.7624L44.1738 43.9148L47.6069 45.9108L44.8077 50.7584Z" fill="white"/>
<path d="M49.952 41.8577L46.5189 39.8617L49.3094 35.0175L52.7443 37.0135L49.952 41.8577Z" fill="white"/>
<path d="M42.9182 37.8203L43.9922 38.4454L44.4776 38.7266L44.7955 38.9117L45.3909 39.2609C44.7255 40.6755 43.9428 42.0318 43.0509 43.3158L40.8664 42.0462L40.5765 41.8716C41.4693 40.5892 42.2527 39.234 42.9182 37.8203Z" fill="white"/>
<path d="M45.391 39.2574L42.9183 37.8203L47.4795 40.4187L49.9522 41.8576L45.391 39.2574Z" fill="white"/>
<path d="M49.952 41.8576L52.7461 37.0135L53.6192 46.8415L44.8093 50.7584L47.6033 45.9107L43.0508 43.3158C43.941 42.0306 44.722 40.673 45.3855 39.2574L49.952 41.8576Z" fill="white"/>
<path d="M24.9229 59.006L22.4502 57.5688L25.2599 59.1789L27.7344 60.6161L24.9229 59.006Z" fill="white"/>
<path d="M42.8763 22.1947C42.5603 21.8881 42.2085 21.6208 41.8286 21.3984L44.3013 22.8373C44.6811 23.0592 45.0329 23.3259 45.349 23.6319C44.6086 23.2005 43.5626 22.7098 42.8763 22.1947Z" fill="white"/>
<path d="M28.1465 50.6152L25.6721 49.178C26.0825 49.4153 26.5214 49.5995 26.9783 49.7263L29.451 51.1635C28.9946 51.037 28.5562 50.8527 28.1465 50.6152Z" fill="white"/>
<path d="M22.1481 50.4458L23.6604 47.8264L27.0936 49.8207L22.5638 57.6701L19.1288 55.6741L20.6079 53.1141" fill="#F0F0F0"/>
<path d="M42.9933 22.289L39.5584 20.293L44.0847 12.4592L47.5179 14.4552L42.9933 22.289Z" fill="#F0F0F0"/>
<path d="M19.752 56.06L17.2793 54.6229L20.089 56.2329L22.5635 57.6701L19.752 56.06Z" fill="white"/>
<path d="M18.7585 66.7612L15.3236 64.7652L16.319 54.0641L19.7521 56.0601L18.7585 66.7612Z" fill="white"/>
<path d="M27.095 49.8207C27.7551 50.4589 28.5653 50.9208 29.4508 51.1636L24.9227 59.0061L27.7342 60.6161L18.7584 66.7612L19.7537 56.0636L22.5635 57.6736L27.095 49.8207Z" fill="white"/>
<path d="M44.2995 22.8338C43.8866 22.6006 43.4475 22.4171 42.9915 22.2872C41.0828 21.7633 38.7341 22.1527 36.1811 23.6353C33.628 25.1179 31.2915 27.4107 29.3881 30.1332C28.4993 31.4193 27.7173 32.7761 27.0498 34.1898C25.6528 37.1933 24.8216 40.382 24.8216 43.3053C24.8216 46.2285 25.6755 48.455 27.104 49.8171C27.4174 50.1276 27.7696 50.3964 28.1517 50.6169L24.7098 48.6174C24.33 48.3982 23.9782 48.1338 23.6621 47.8299C22.2476 46.4556 21.3919 44.2413 21.3919 41.318C21.3919 38.3948 22.2057 35.1939 23.6201 32.2043C24.2878 30.7841 25.0735 29.4225 25.9689 28.1337C27.8636 25.4252 30.2123 23.1027 32.7479 21.6358C35.2835 20.169 37.6584 19.7673 39.5671 20.2877C40.0215 20.4221 40.4601 20.6054 40.875 20.8343L44.2995 22.8338Z" fill="#F0F0F0"/>
<path d="M45.3507 23.6318C44.6898 22.9939 43.8792 22.5321 42.9933 22.289L47.5179 14.4552L44.7011 12.8416L53.6822 6.69128L52.6886 17.4011L49.8788 15.7911L45.3507 23.6318Z" fill="white"/>
<path d="M47.7362 6.4171L50.2491 4.69702L53.6823 6.69126L44.7012 12.8416L41.2663 10.8456L45.1832 8.16336" fill="white"/>
<path d="M36.1794 23.6318C38.7307 22.1597 41.0882 21.7616 42.9898 22.289C43.8757 22.5321 44.6863 22.9939 45.3473 23.6318C46.7653 24.9957 47.6175 27.2152 47.6175 30.1437C47.6175 33.0722 46.795 36.2556 45.3857 39.2574C44.7221 40.673 43.9412 42.0305 43.051 43.3158C41.1545 46.0365 38.804 48.359 36.2545 49.8311C33.7049 51.3032 31.3545 51.6961 29.444 51.1687C28.5585 50.9259 27.7484 50.4641 27.0883 49.8259C25.6669 48.462 24.8182 46.2408 24.8182 43.314C24.8182 40.3873 25.6389 37.2021 27.0464 34.2002C27.7128 32.7826 28.498 31.4238 29.3934 30.1384C31.2881 27.4247 33.6368 25.1004 36.1794 23.6318Z" fill="white"/>
<path d="M33.0885 42.6582L34.3467 41.9318L34.3467 43.6883C34.3467 44.0502 34.5577 44.1843 34.859 44.0103C35.1604 43.8363 35.3714 43.4586 35.3714 43.0967L35.3714 41.3402L38.3248 39.6351C38.5357 39.5133 38.6714 39.2584 38.6714 39.0201C38.6714 38.773 38.5357 38.6748 38.3248 38.7966L35.3714 40.5017L35.3714 38.6482L37.6316 37.3432C39.7036 36.147 41.007 33.8145 41.007 31.5726C41.007 29.3307 39.7111 28.4725 37.6392 29.6687L34.859 31.2738C34.5501 31.4522 34.3467 31.8167 34.3467 32.1963L34.3467 38.4101L33.0885 39.1365C32.8775 39.2583 32.7344 39.5175 32.7344 39.7558C32.7344 39.9941 32.8775 40.088 33.0885 39.9662L34.3467 39.2398L34.3467 41.0933L33.0885 41.8197C32.8775 41.9415 32.7344 42.2007 32.7344 42.4479C32.7344 42.6862 32.8775 42.78 33.0885 42.6582ZM35.3714 37.5978L35.3714 32.0637L37.3981 30.8935C39.0782 29.9235 39.9522 30.4869 39.9522 32.1816C39.9522 33.8763 39.0707 35.462 37.3981 36.4277L35.3714 37.5978Z" fill="#0C60FE"/>
<path d="M24.8338 27.5348L22.3611 26.0976L26.9223 28.696L29.3951 30.1332L24.8338 27.5348Z" fill="white"/>
<path d="M19.6981 36.4495L16.2631 34.4535L15.39 24.6168L18.8249 26.611L19.6981 36.4495Z" fill="white"/>
<path d="M22.1778 21.5992L24.1912 20.7034L27.6261 22.6994L18.8249 26.611L15.39 24.6168L18.6817 23.1534" fill="white"/>
<path d="M27.6262 22.6993L24.8321 27.5348L29.3934 30.1332C28.4992 31.4187 27.7152 32.7775 27.0499 34.195L22.4886 31.5966L19.6946 36.4495L18.8215 26.611L27.6262 22.6993Z" fill="white"/>
<path d="M54 6.67034C54.0006 6.6203 53.9866 6.57116 53.9598 6.52889C53.9322 6.48057 53.8925 6.44025 53.8446 6.41189L53.766 6.37348L50.4044 4.42115C50.3541 4.38842 50.2948 4.37203 50.2348 4.37422C50.1748 4.3764 50.117 4.39706 50.0691 4.43337L47.5597 6.15345C47.5234 6.17502 47.4919 6.20394 47.4673 6.23838C47.4428 6.27281 47.4257 6.31199 47.4171 6.35341C47.4086 6.39484 47.4088 6.43759 47.4177 6.47893C47.4266 6.52027 47.4441 6.5593 47.4689 6.59351C47.4922 6.62993 47.5226 6.66128 47.5583 6.68568C47.594 6.71007 47.6342 6.72702 47.6766 6.7355C47.719 6.74398 47.7627 6.74381 47.805 6.73502C47.8473 6.72622 47.8875 6.70898 47.923 6.68431L50.263 5.08124L53.0814 6.70876L44.7151 12.4505L44.6889 12.4627C44.3274 12.2567 42.0136 10.912 41.8704 10.8212L45.3629 8.42883C45.3994 8.40574 45.4307 8.37548 45.4551 8.33989C45.4794 8.3043 45.4963 8.26413 45.5046 8.22182C45.5129 8.17951 45.5126 8.13594 45.5035 8.09378C45.4945 8.05161 45.4769 8.01173 45.452 7.97655C45.4016 7.90723 45.326 7.86038 45.2415 7.84602C45.157 7.83167 45.0702 7.85094 44.9997 7.89972L41.0828 10.575C41.0381 10.6077 41.0018 10.6505 40.9769 10.7C40.952 10.7495 40.9392 10.8042 40.9396 10.8596C40.9446 10.914 40.9632 10.9661 40.9937 11.0113C41.0242 11.0565 41.0657 11.0933 41.1143 11.1181L43.6394 12.5919L39.4099 19.9263C37.393 19.4478 35.0442 19.9385 32.5837 21.3617C30.0918 22.7954 27.7483 25.0568 25.8379 27.7461L25.2809 27.4108L27.9003 22.8844C27.9526 22.7098 27.9649 22.5107 27.7972 22.4199L24.3571 20.4292C24.315 20.4029 24.2673 20.3868 24.2179 20.3823C24.1684 20.3777 24.1186 20.3848 24.0724 20.403L22.0485 21.3128C22.0079 21.3278 21.9708 21.3511 21.9397 21.3811C21.9086 21.4112 21.884 21.4474 21.8676 21.4875C21.8512 21.5275 21.8432 21.5706 21.8443 21.6138C21.8454 21.6571 21.8555 21.6997 21.8739 21.7389C21.9099 21.8159 21.975 21.8755 22.0548 21.9046C22.1347 21.9337 22.2228 21.93 22.3 21.8943L24.1632 21.0666L26.9031 22.6714C26.7739 22.722 19.3139 26.0452 18.8354 26.253L16.1007 24.6569L18.8162 23.4537C18.8925 23.417 18.9515 23.3519 18.9806 23.2723C19.0096 23.1927 19.0064 23.1049 18.9716 23.0276C18.9566 22.987 18.9333 22.95 18.9032 22.9188C18.8732 22.8877 18.837 22.8631 18.7969 22.8467C18.7568 22.8303 18.7138 22.8224 18.6705 22.8235C18.6273 22.8245 18.5847 22.8346 18.5455 22.853L15.2608 24.3199C15.2083 24.3455 15.163 24.3838 15.1291 24.4314C15.0953 24.479 15.0739 24.5343 15.0669 24.5923C15.0669 24.7215 15.0669 24.6691 15.9401 34.4832C15.9425 34.5341 15.9581 34.5836 15.9853 34.6268C16.0125 34.6699 16.0505 34.7053 16.0955 34.7294L19.5217 36.7201C19.5587 36.7439 19.6002 36.7598 19.6437 36.7668C19.6872 36.7738 19.7316 36.7718 19.7742 36.7608C19.8169 36.7498 19.8568 36.7301 19.8914 36.703C19.9261 36.6759 19.9548 36.6419 19.9757 36.6031L22.5951 32.0401C22.6213 32.0524 22.8396 32.1816 23.1644 32.3632C21.8424 35.2829 21.0531 38.414 21.0671 41.3233C21.0671 43.7279 21.6608 46.2128 23.2517 47.8788L21.8686 50.2834C21.8462 50.3199 21.8314 50.3605 21.8249 50.4029C21.8184 50.4452 21.8205 50.4884 21.8309 50.5299C21.8414 50.5715 21.86 50.6105 21.8858 50.6447C21.9116 50.6789 21.9439 50.7077 21.9809 50.7292C22.0179 50.7507 22.0589 50.7647 22.1014 50.7701C22.1439 50.7756 22.187 50.7726 22.2283 50.7611C22.2696 50.7497 22.3081 50.7301 22.3417 50.7035C22.3753 50.677 22.4033 50.644 22.424 50.6065L23.7424 48.3363C23.9936 48.5471 24.2616 48.737 24.5439 48.9038C24.6732 48.9824 26.5748 50.0808 26.5748 50.0808L22.4502 57.2283C22.3209 57.1497 19.7225 55.6567 19.5671 55.5589L20.8855 53.2695C20.9079 53.233 20.9228 53.1924 20.9293 53.1501C20.9357 53.1077 20.9337 53.0645 20.9232 53.023C20.9128 52.9814 20.8941 52.9424 20.8683 52.9082C20.8426 52.874 20.8102 52.8453 20.7732 52.8237C20.7362 52.8022 20.6952 52.7883 20.6528 52.7828C20.6103 52.7773 20.5671 52.7804 20.5259 52.7918C20.4846 52.8032 20.446 52.8228 20.4124 52.8494C20.3788 52.8759 20.3508 52.9089 20.3302 52.9465L19.017 55.2498C18.4931 54.9512 16.4639 53.7934 16.4639 53.7934C16.4206 53.7629 16.3694 53.7455 16.3164 53.7434C16.2635 53.7412 16.211 53.7543 16.1653 53.7812C16.1187 53.8084 16.0788 53.8457 16.0485 53.8905C16.0183 53.9352 15.9985 53.9862 15.9907 54.0396L15.0006 64.739C14.9971 64.7999 15.0096 64.8606 15.0369 64.9151C15.0641 64.9697 15.1052 65.0161 15.156 65.0498L18.5944 67.0423C18.6494 67.0685 18.7099 67.0809 18.7707 67.0785C18.8316 67.076 18.8909 67.0588 18.9436 67.0284C19.0729 66.9376 27.3869 61.2482 27.9177 60.8867C27.9625 60.8545 27.9985 60.8115 28.0225 60.7618C28.0465 60.7121 28.0577 60.6571 28.0551 60.602C28.0525 60.5468 28.0362 60.4932 28.0076 60.446C27.979 60.3987 27.9391 60.3594 27.8915 60.3314L25.3577 58.882L29.6116 51.539C30.116 51.6561 30.6322 51.7147 31.1501 51.7136C32.7793 51.7136 34.5762 51.1897 36.4133 50.1105C38.8581 48.7013 41.1841 46.5027 43.1487 43.7349L43.718 44.0579L41.0986 48.6105C41.077 48.647 41.063 48.6874 41.0572 48.7294C41.0514 48.7713 41.054 48.814 41.0649 48.855C41.0758 48.8959 41.0947 48.9343 41.1206 48.9679C41.1465 49.0015 41.1787 49.0295 41.2156 49.0505C42.2231 49.6443 44.5125 50.9505 44.654 51.0413C44.6949 51.0702 44.7428 51.0878 44.7928 51.0924C44.8427 51.097 44.893 51.0884 44.9386 51.0675L53.7573 47.1488C53.8135 47.1165 53.8596 47.0692 53.8905 47.0121C53.9213 46.9551 53.9356 46.8905 53.9319 46.8258C53.9179 46.6966 53.0587 36.9594 53.0587 36.9594C53.0448 36.8563 52.9679 36.8057 52.9033 36.7411C52.7741 36.7411 51.2863 35.8086 49.4632 34.7486C49.4271 34.7256 49.3866 34.7103 49.3443 34.7037C49.302 34.6971 49.2588 34.6994 49.2174 34.7104C49.1761 34.7214 49.1374 34.7409 49.104 34.7676C49.0705 34.7943 49.043 34.8277 49.0231 34.8656L46.3723 39.4426L45.8047 39.1195H45.7908C46.98 36.3132 47.9369 33.6362 47.9369 30.1454C47.9247 27.3514 47.1756 25.09 45.7401 23.6039L49.9801 16.2329L52.5157 17.6945C52.5634 17.7195 52.6164 17.7325 52.6702 17.7325C52.724 17.7325 52.7771 17.7195 52.8247 17.6945C52.8736 17.6701 52.9154 17.6335 52.9459 17.5882C52.9765 17.5429 52.9949 17.4905 52.9994 17.4361L53.9825 6.75591C53.9947 6.74194 53.9947 6.74194 53.9825 6.72972C53.9871 6.72449 53.9905 6.71838 53.9926 6.71178C53.9947 6.70517 53.9954 6.6982 53.9947 6.6913L54 6.67034ZM44.186 12.9167C44.6243 13.149 46.9398 14.4884 47.0813 14.5705L42.9706 21.683C42.8413 21.6044 41.0304 20.5444 41.0304 20.5444C40.7067 20.3803 40.3744 20.2334 40.0351 20.1044L44.186 12.9167ZM32.9103 21.9153C35.3795 20.4938 38.2242 19.7569 40.7074 21.1137C40.8104 21.1906 41.6766 21.683 41.8058 21.7598C41.7989 21.7607 41.7919 21.76 41.7853 21.7579C41.7786 21.7558 41.7725 21.7523 41.7674 21.7476C38.1858 21.7476 36.9966 23.0014 36.0134 23.3507C33.511 24.8053 31.1902 27.0615 29.3025 29.7124H29.2903C29.2117 29.66 27.558 28.717 26.4072 28.0709C28.2163 25.5231 30.4533 23.3385 32.9103 21.9153ZM16.5722 34.2631L15.7654 25.2122C15.8947 25.2908 18.3639 26.7123 18.5193 26.8031V26.8153L19.3208 35.854L16.5722 34.2631ZM22.6492 31.3154C22.6127 31.2941 22.5723 31.2803 22.5303 31.2746C22.4884 31.269 22.4458 31.2717 22.4049 31.2825C22.364 31.2934 22.3257 31.3122 22.2921 31.338C22.2585 31.3637 22.2303 31.3958 22.2092 31.4324L19.939 35.4017L19.1899 26.8153L26.8455 23.4083L24.7255 27.093L24.5509 27.3776C24.5288 27.4138 24.514 27.4541 24.5074 27.496C24.5008 27.538 24.5025 27.5808 24.5125 27.6221C24.5223 27.6637 24.5412 27.7026 24.5678 27.7361C24.5943 27.7696 24.6279 27.7968 24.6662 27.8159L28.9218 30.2485C28.8031 30.4458 28.4695 30.8911 27.8601 31.9546C27.5108 32.5361 27.2017 33.1438 26.9031 33.7515C24.4479 32.3248 25.1132 32.7264 22.644 31.3154H22.6492ZM25.9846 48.9789C25.8432 48.8742 24.8478 48.5651 23.8646 47.568C22.7907 46.4957 21.7185 44.608 21.7185 41.3233C21.7045 38.5956 22.4554 35.5606 23.7616 32.6985L26.6447 34.3277C25.2861 37.2964 24.4985 40.4187 24.4985 43.314C24.4985 45.1249 25.0032 47.3497 25.8292 48.7187C25.8816 48.8095 25.934 48.8934 25.9846 48.965V48.9789ZM18.4809 66.2268L15.6624 64.5853L16.5932 54.6019C16.7346 54.6805 19.2562 56.1421 19.4116 56.2312L18.4809 66.2268ZM24.6487 58.8436C24.6248 58.8793 24.6087 58.9197 24.6016 58.9621C24.5945 59.0045 24.5964 59.048 24.6073 59.0896C24.6182 59.1312 24.6378 59.17 24.6648 59.2034C24.6918 59.2369 24.7256 59.2642 24.764 59.2837L27.1301 60.6405L19.1392 66.1098L20.0316 56.5874L22.3978 57.9443C22.527 58.0089 22.7854 57.9705 22.8378 57.829C22.9932 57.595 26.8857 50.8195 27.1301 50.3934H27.1441C28.2547 51.0133 27.9579 50.9365 28.9148 51.3242C28.929 51.3383 28.9474 51.3475 28.9672 51.3504C28.8886 51.4866 24.8932 58.4175 24.6487 58.8436ZM44.6871 50.3096L41.818 48.6419L44.275 44.3758L47.1581 46.0295L44.6871 50.3096ZM49.4213 35.4576L52.3061 37.1375L49.8351 41.4176C49.7059 41.3408 47.1075 39.846 46.952 39.7499L49.4213 35.4576ZM49.7967 42.1423C49.8707 42.1848 49.9584 42.1964 50.0409 42.1745C50.1233 42.1526 50.1937 42.0989 50.2368 42.0253L52.5069 38.0682L53.2753 46.6337L45.5812 50.0616L47.8828 46.0662C47.9193 45.9911 47.9278 45.9055 47.9066 45.8248C47.8855 45.7441 47.8362 45.6736 47.7676 45.6261C45.5812 44.3583 45.2844 44.1522 43.5136 43.1953C44.2733 42.0838 44.9476 40.9163 45.5306 39.7028C45.6598 39.7848 49.5383 41.9956 49.7967 42.1388V42.1423ZM47.3065 30.1384C47.3065 32.8277 46.608 35.8156 45.2512 38.7895V38.8017C44.8871 39.6121 44.479 40.402 44.0288 41.1679C43.718 41.6987 43.3949 42.2162 43.0596 42.7203C41.2487 45.4218 38.8686 47.9312 36.0903 49.5465C29.9486 53.1158 25.1656 50.1419 25.1394 43.3158C25.1394 39.6626 26.4509 35.723 28.2303 32.6112C29.9172 29.4347 32.9347 25.9107 36.3504 23.9217C38.5734 22.6277 40.6812 22.137 42.5183 22.5125C43.0421 22.5771 44.2506 23.0364 45.1289 23.8693C46.5382 25.2262 47.2891 27.3985 47.3065 30.1384ZM52.4144 16.8668L50.0429 15.5152C50.0064 15.4937 49.966 15.4796 49.9241 15.4738C49.8821 15.4681 49.8394 15.4707 49.7984 15.4816C49.7575 15.4925 49.7191 15.5114 49.6855 15.5372C49.652 15.5631 49.6239 15.5954 49.6029 15.6322L45.2721 23.1307C44.8705 22.8076 44.9735 22.8722 43.5259 22.0061L47.7937 14.6228C47.8335 14.5463 47.8436 14.4578 47.822 14.3743C47.8004 14.2908 47.7487 14.2182 47.6767 14.1706L45.3367 12.7997L53.3015 7.34266L52.4144 16.8668Z" fill="#0C60FE"/>
</svg>
