<svg width="24" height="24" viewBox="0 0 24 24" fill="none" xmlns="http://www.w3.org/2000/svg">
<path fill-rule="evenodd" clip-rule="evenodd" d="M21.1679 16C21.7031 14.7751 22 13.4222 22 12C22 10.9548 21.8396 9.94704 21.5422 9H2.4578C2.16035 9.94704 2 10.9548 2 12C2 13.4222 2.29689 14.7751 2.83209 16H21.1679Z" fill="#0000F5"/>
<path fill-rule="evenodd" clip-rule="evenodd" d="M21.5422 9H2.45782C3.73209 4.94289 7.52238 2 12 2C16.4777 2 20.268 4.94289 21.5422 9Z" fill="#F7F7F7"/>
<path fill-rule="evenodd" clip-rule="evenodd" d="M21.1679 16C19.6248 19.5318 16.1006 22 12 22C7.89937 22 4.37521 19.5318 2.83209 16H21.1679Z" fill="#E93424"/>
</svg>
