<svg width="46" height="45" viewBox="0 0 46 45" fill="none" xmlns="http://www.w3.org/2000/svg">
<path fill-rule="evenodd" clip-rule="evenodd" d="M23 0C35.4264 0 45.5 10.0736 45.5 22.5C45.5 34.9264 35.4264 45 23 45C10.5736 45 0.5 34.9264 0.5 22.5C0.5 10.0736 10.5736 0 23 0ZM30.409 11.909L19.625 27.193L15.591 23.159C14.7123 22.2803 13.2877 22.2803 12.409 23.159C11.5303 24.0377 11.5303 25.4623 12.409 26.341L18.034 31.966C18.9127 32.8447 20.3373 32.8447 21.216 31.966L33.591 15.091C34.4697 14.2123 34.4697 12.7877 33.591 11.909C32.7123 11.0303 31.2877 11.0303 30.409 11.909Z" fill="#4BBD5C"/>
</svg>
