<svg width="70" height="70" viewBox="0 0 70 70" fill="none" xmlns="http://www.w3.org/2000/svg">
<path d="M54.8308 35.3792L51.6945 33.5597L51.6758 27.4229L54.8138 29.2424L54.8308 35.3792Z" fill="white"/>
<path d="M54.7917 22.2576L50.3744 24.8012C46.9153 26.7988 44.1357 31.6197 44.1476 35.5623L44.185 49.0349L41.0555 47.2052L41.0181 33.7326C41.0045 29.79 43.7857 24.9691 47.2313 22.9732L51.6605 20.4296L54.7917 22.2576Z" fill="#F0F0F0"/>
<path d="M54.7764 16.1157L51.6384 14.2962L62.5594 17.6504L65.6957 19.4699L54.7764 16.1157Z" fill="white"/>
<path d="M54.7934 22.2509L51.6571 20.4313L51.6384 14.2962L54.7764 16.1157L54.7934 22.2509Z" fill="white"/>
<path d="M50.2743 42.1808L50.2845 45.5163L44.1885 49.0366L44.1495 35.559C44.1376 31.6147 46.9222 26.7954 50.3745 24.8046L54.7918 22.261L54.7799 16.1157L65.6992 19.4699L54.8309 35.3792L54.8139 29.2424L51.574 31.1077C50.8417 31.5299 50.2471 32.5507 50.2505 33.3986L50.2624 37.9771" fill="white"/>
<path d="M23.9724 60.6778L20.8259 58.8582L20.7885 46.7406C20.7885 46.3268 20.6509 46.0385 20.4114 45.8927L23.5443 47.7139C23.7838 47.8513 23.9334 48.1412 23.9334 48.5618L23.9724 60.6778Z" fill="white"/>
<path d="M30.8771 30.7753L30.8533 22.5595L33.9913 24.379L34.0779 54.8564L30.9399 53.0368L30.8906 35.6149" fill="#F0F0F0"/>
<path d="M28.1979 39.6982C27.0663 39.0437 25.4948 39.1319 23.7584 40.1374L19.3411 42.681L16.198 40.8649L20.6255 38.3213C22.3619 37.3174 23.9334 37.2292 25.0666 37.8821L28.1979 39.6982Z" fill="white"/>
<path d="M37.0035 10.1315L45.4372 17.7843L40.0871 20.8671L40.1738 51.3428L34.0778 54.8563L33.9912 24.379L28.6411 27.4618L37.0035 10.1315Z" fill="white"/>
<path d="M28.6412 27.4618L25.5032 25.6423L33.8655 8.31195L37.0035 10.1315L28.6412 27.4618Z" fill="white"/>
<path d="M45.7499 17.8199C45.7572 17.771 45.7518 17.7209 45.7343 17.6746C45.7167 17.6283 45.6876 17.5873 45.6497 17.5554L37.2091 9.89579C37.1956 9.88392 37.1837 9.88392 37.1718 9.87205L37.1582 9.85848L37.1089 9.83305L34.027 8.03896C33.9491 7.99809 33.8583 7.98897 33.7738 8.01353C33.7323 8.02725 33.6942 8.0494 33.6617 8.07859C33.6293 8.10777 33.6032 8.14336 33.5852 8.1831L25.2178 25.5033C25.1838 25.5757 25.178 25.6582 25.2015 25.7347C25.2251 25.8112 25.2763 25.8762 25.3452 25.917L28.4764 27.7382C28.5339 27.7698 28.5996 27.7831 28.6649 27.7765C28.7301 27.7698 28.7918 27.7435 28.8417 27.7009L30.5526 26.7208L30.5645 30.777C30.564 30.8183 30.5718 30.8593 30.5874 30.8976C30.6031 30.9358 30.6262 30.9706 30.6555 30.9998C30.6848 31.0291 30.7196 31.0521 30.7579 31.0677C30.7963 31.0834 30.8374 31.0912 30.8788 31.0907C30.962 31.0898 31.0416 31.0566 31.1006 30.998C31.1597 30.9394 31.1934 30.8601 31.1948 30.777L31.1812 26.3579L33.6719 24.925L33.7602 54.3069L31.2576 52.8503L31.2067 35.6115C31.2071 35.5702 31.1993 35.5292 31.1837 35.4909C31.168 35.4527 31.1449 35.4179 31.1156 35.3887C31.0863 35.3595 31.0515 35.3364 31.0132 35.3208C30.9748 35.3052 30.9338 35.2973 30.8924 35.2978C30.8093 35.2987 30.7298 35.332 30.6711 35.3907C30.6123 35.4493 30.5789 35.5286 30.578 35.6115L30.6273 53.0385C30.6246 53.0922 30.6374 53.1455 30.6642 53.1921C30.691 53.2388 30.7307 53.2767 30.7785 53.3014L33.9114 55.1226H33.9233C33.9693 55.1551 34.0242 55.1725 34.0805 55.1725C34.1368 55.1725 34.1917 55.1551 34.2376 55.1226L40.3268 51.6192C40.3767 51.5918 40.4186 51.5519 40.4484 51.5035C40.4782 51.455 40.4948 51.3996 40.4967 51.3428L40.41 21.0452L45.6055 18.0573C45.6466 18.0319 45.681 17.9971 45.7061 17.9559C45.7312 17.9146 45.7462 17.868 45.7499 17.8199ZM28.5036 27.0226L25.9127 25.5151L34.0015 8.75456L36.6009 10.2604L28.5036 27.0226ZM39.9258 20.5941C39.8801 20.6246 39.8424 20.6656 39.8161 20.7138C39.7898 20.7619 39.7755 20.8157 39.7746 20.8705L39.8629 51.1681L34.3922 54.3188L34.3039 24.3739C34.3032 24.3197 34.2884 24.2666 34.2607 24.2198C34.2331 24.1731 34.1937 24.1345 34.1464 24.1077C34.0991 24.0809 34.0457 24.067 33.9913 24.0673C33.937 24.0676 33.8837 24.0821 33.8367 24.1094L29.3718 26.6835C34.9393 15.1407 23.6615 38.4943 37.1089 10.6504L44.9072 17.7318L39.9258 20.5941Z" fill="black"/>
<path d="M8.45051 52.4586L5.3125 50.639L16.1842 34.7263L19.3223 36.5458L8.45051 52.4586Z" fill="#F0F0F0"/>
<path d="M19.3224 36.5458L19.3394 42.6827L23.7568 40.1391C27.2108 38.1483 30.0124 39.7508 30.0226 43.7001L30.0616 57.1778L23.9657 60.6913L23.93 48.5736C23.93 47.7258 23.3286 47.3866 22.5913 47.819L19.3632 49.6843L19.3802 55.8195L8.45068 52.4586L19.3224 36.5458Z" fill="white"/>
<path d="M65.8657 19.2121L62.6462 17.3468L51.7218 14.0028C51.6767 13.9908 51.6296 13.9891 51.5838 13.9978C51.5381 14.0065 51.4949 14.0254 51.4574 14.0531C51.42 14.0808 51.3894 14.1167 51.3678 14.1579C51.3462 14.1991 51.3342 14.2446 51.3327 14.2911L51.3446 20.255L47.0802 22.7036C43.5497 24.7503 40.6937 29.7053 40.7056 33.7394L40.7447 47.212C40.7462 47.2649 40.7606 47.3166 40.7866 47.3627C40.8127 47.4088 40.8496 47.4479 40.8942 47.4765L44.0237 49.2943C44.0716 49.3223 44.1262 49.3369 44.1817 49.3367C44.2367 49.337 44.2907 49.3223 44.338 49.2943L50.4339 45.7808C50.4819 45.7535 50.5218 45.714 50.5496 45.6664C50.5774 45.6187 50.592 45.5646 50.5919 45.5095L50.5817 42.1723C50.5817 42.1312 50.5736 42.0904 50.5578 42.0525C50.542 42.0145 50.5188 41.98 50.4896 41.951C50.4604 41.922 50.4257 41.8991 50.3876 41.8835C50.3495 41.8679 50.3086 41.86 50.2674 41.8603C50.2262 41.8605 50.1853 41.8688 50.1473 41.8848C50.1092 41.9008 50.0747 41.924 50.0457 41.9533C50.0166 41.9826 49.9937 42.0173 49.9781 42.0555C49.9625 42.0936 49.9546 42.1345 49.9548 42.1757L49.965 45.3297L44.4994 48.4787L44.462 35.542C44.462 35.5216 44.462 35.4996 44.462 35.4792C44.479 31.7079 47.1991 26.9785 50.524 25.0624L54.9413 22.5188C54.99 22.4898 55.0299 22.4482 55.0568 22.3984C55.0847 22.3523 55.0994 22.2995 55.0993 22.2458C55.0993 22.1169 55.0806 16.1598 55.0823 16.5362L65.1861 19.6411L55.1384 34.355C55.1384 34.2278 55.1163 28.8981 55.118 29.2372C55.1175 29.1823 55.1027 29.1284 55.0749 29.0809C55.0471 29.0335 55.0074 28.9941 54.9596 28.9667C54.9119 28.9393 54.8578 28.9248 54.8028 28.9246C54.7477 28.9245 54.6936 28.9387 54.6457 28.9659L51.4057 30.8312C50.9717 31.1092 50.6107 31.4868 50.3529 31.9326C50.0952 32.3784 49.9482 32.8793 49.9242 33.3935L49.9378 37.9719C49.9383 38.055 49.9715 38.1345 50.0304 38.1933C50.0892 38.252 50.1689 38.2852 50.2521 38.2857C50.3355 38.2848 50.4152 38.2512 50.474 38.1922C50.5328 38.1332 50.566 38.0535 50.5665 37.9703L50.5529 33.3918C50.5529 32.8085 50.8927 32.1132 51.3616 31.6655V33.558C51.3618 33.6134 51.3779 33.6676 51.408 33.7142C51.4381 33.7608 51.4809 33.7978 51.5315 33.8208C51.5943 33.8581 54.6491 35.6335 54.7136 35.659C54.7221 35.659 54.7255 35.6691 54.7323 35.6725C54.7391 35.6759 54.7476 35.6725 54.7544 35.6725C54.8155 35.6881 54.88 35.6848 54.9391 35.663C54.9983 35.6412 55.0494 35.6019 55.0857 35.5504C56.1969 33.9225 65.9728 19.7225 65.9728 19.597C65.9962 19.5296 65.9986 19.4567 65.9795 19.3879C65.9603 19.3191 65.9207 19.2578 65.8657 19.2121ZM52.0021 31.2314L54.4945 29.7968C54.4945 29.9223 54.5166 35.1723 54.5166 34.8365L52.0021 33.3833V31.2314ZM51.9528 14.8507L54.4554 16.309C54.4554 16.4345 54.4792 22.0745 54.4775 21.7184L51.9647 20.2635L51.9528 14.8507ZM62.4066 17.92L63.161 18.3591L54.8717 15.8156L54.1666 15.4001L62.4066 17.92ZM41.3393 33.7275C41.3257 29.885 44.0424 25.1895 47.3894 23.2428L51.6674 20.7942L54.1666 22.2441L50.2165 24.5248C46.5654 26.6258 43.8232 31.7537 43.8351 35.5471L43.8725 48.4736L41.3733 47.0187L41.3393 33.7275Z" fill="#0C60FE"/>
<path d="M28.3524 39.4286L25.2178 37.6074C23.935 36.8663 22.2378 37.0173 20.4606 38.0466L19.6349 38.5231V36.478C19.6114 36.3943 19.5575 36.3224 19.4837 36.2762C19.3563 36.2762 18.1415 35.503 16.3389 34.455C16.2701 34.4151 16.1884 34.4034 16.1111 34.4224C16.0338 34.4414 15.9668 34.4895 15.9244 34.5568L5.05093 50.4644C5.02719 50.5005 5.01094 50.541 5.00313 50.5835C4.99532 50.626 4.99611 50.6697 5.00545 50.7119C5.01479 50.754 5.03249 50.7939 5.05752 50.8292C5.08254 50.8645 5.11438 50.8944 5.15117 50.9171C5.27859 50.9901 8.23311 52.7299 8.36053 52.7621H8.37242L19.2798 56.1146C19.3268 56.1253 19.3754 56.1264 19.4227 56.1176C19.4701 56.1089 19.5151 56.0905 19.5551 56.0637C19.5958 56.036 19.6288 55.9984 19.6511 55.9546C19.6734 55.9107 19.6842 55.8619 19.6825 55.8127L19.6689 49.8488L20.4861 49.3842L20.515 58.8718C20.5167 58.9246 20.5313 58.9763 20.5577 59.0221C20.5841 59.0679 20.6213 59.1066 20.6662 59.1346L23.811 60.9559C23.8569 60.9886 23.9118 61.0062 23.9682 61.0062C24.0245 61.0062 24.0795 60.9886 24.1253 60.9559L30.2144 57.4525C30.2644 57.4251 30.3063 57.3852 30.3361 57.3368C30.3659 57.2883 30.3825 57.2329 30.3843 57.1761L30.347 43.6916C30.3283 41.6754 29.6232 40.1561 28.3524 39.4286ZM20.78 38.5807C22.3652 37.6769 23.8246 37.5141 24.9051 38.1415L26.3153 38.9589C26.2854 38.957 26.2553 38.961 26.227 38.9707H26.2015C25.5219 39.0182 24.6197 39.2726 23.5969 39.8627L19.6468 42.135L19.6349 39.2336L20.78 38.5807ZM8.35034 52.0465L5.7594 50.539L16.2761 35.1469L18.867 36.6578L8.35034 52.0465ZM21.1198 49.0213L22.7542 48.0785C23.3098 47.775 23.6224 48.009 23.6224 48.5686L23.6479 60.1199L21.1402 58.6768L21.1198 49.0213ZM24.2901 60.1317L24.251 48.5686C24.251 47.6291 23.5833 46.9678 22.4399 47.5393L19.2119 49.4046C19.1619 49.4319 19.12 49.4718 19.0902 49.5203C19.0604 49.5688 19.0438 49.6241 19.042 49.681L19.0539 55.3939L8.95517 52.2856L19.0063 37.5701C19.0063 37.6989 19.025 41.4024 19.0301 42.6793C19.0288 42.7346 19.0421 42.7892 19.0687 42.8377C19.0952 42.8862 19.134 42.9269 19.1813 42.9557C19.2298 42.981 19.2837 42.9942 19.3385 42.9942C19.3932 42.9942 19.4471 42.981 19.4956 42.9557L23.9129 40.4121C25.4862 39.5083 26.9575 39.3455 28.0398 39.9729C29.122 40.6003 29.7133 41.906 29.7133 43.7035L29.7506 56.9997L24.2901 60.1317Z" fill="#0C60FE"/>
</svg>
