<svg width="14" height="8" viewBox="0 0 14 8" fill="none" xmlns="http://www.w3.org/2000/svg">
<path d="M13.417 0H9.1126C8.3331 0 7.94262 0.923235 8.49388 1.46325L9.67517 2.62042L7.00014 5.24119L4.3251 2.62077C3.86936 2.17433 3.13069 2.17433 2.67531 2.62077L0.170904 5.07404C-0.056968 5.29726 -0.056968 5.65906 0.170904 5.88228L0.995618 6.69015C1.22349 6.91337 1.59283 6.91337 1.8207 6.69015L3.50002 5.04476L6.17506 7.66517C6.6308 8.11161 7.36947 8.11161 7.82485 7.66517L11.325 4.23652L12.5063 5.39369C13.0575 5.9337 14 5.5512 14 4.78761V0.571441C14.0004 0.25572 13.7393 0 13.417 0Z" fill="#7EC226"/>
</svg>
