<svg width="24" height="24" viewBox="0 0 24 24" fill="none" xmlns="http://www.w3.org/2000/svg">
<circle cx="12" cy="12" r="10" fill="#F6F6F6"/>
<g clip-path="url(#clip0_108_235)">
<path d="M2.00638 11.9621C1.98788 11.2965 2.07557 10.6412 2.19249 9.9888C2.20383 9.92901 2.20442 9.85306 2.27243 9.8142C2.45676 9.83393 2.60291 9.93379 2.65302 10.1024C2.69955 10.2591 2.55877 10.4062 2.55399 10.5808C2.73295 10.5306 2.8278 10.3159 3.01869 10.3368C3.19765 10.3571 3.31696 10.5228 3.51919 10.6298C3.22987 10.1963 3.35096 9.91226 3.78464 9.70298C3.33426 9.78011 3.05568 9.64976 3.0342 9.15465C2.89879 9.33822 2.95546 9.59714 2.74429 9.67188C2.59754 9.72331 2.42455 9.73945 2.27422 9.63959C2.45318 8.86224 2.7419 8.13273 3.07954 7.41637C3.24776 7.37272 3.31815 7.55271 3.46132 7.58141C3.44104 7.42176 3.345 7.28243 3.345 7.11979C3.38019 6.94578 3.54663 6.89854 3.65579 6.79569C3.71545 6.74128 3.7918 6.71317 3.85563 6.6474C3.87233 6.63962 3.82521 6.62408 3.84609 6.6474C3.80266 6.68621 3.74604 6.70685 3.68789 6.70507C3.62974 6.70329 3.57448 6.67922 3.5335 6.63783C4.02523 5.84876 4.62525 5.13296 5.31595 4.51148C5.38037 4.45168 5.43525 4.37873 5.5307 4.3602C5.60348 4.44451 5.54681 4.52464 5.52414 4.60835C5.68759 4.52762 5.79914 4.34704 5.98884 4.3303C6.18808 4.31296 6.29426 4.51268 6.50484 4.60416C6.2531 4.19396 6.31872 3.89857 6.76374 3.73832C6.67068 3.64922 6.51021 3.76762 6.4774 3.60258C7.55116 2.90835 8.71023 2.40666 9.96772 2.15193C10.2505 2.09213 10.5392 2.06462 10.8226 2.00842C10.9747 1.97792 11.0123 2.02336 11.0105 2.17345C11.0033 2.85034 11.0069 3.52783 11.0105 4.20652C11.0105 4.28844 11.0176 4.36976 11.0212 4.45109C11.077 4.52192 11.1029 4.61187 11.0934 4.70163C11.0934 5.45267 11.1023 6.20371 11.0892 6.95415C11.098 7.7913 11.098 8.62725 11.0892 9.462C11.1023 10.216 11.0934 10.9707 11.0934 11.7247C11.1032 11.8137 11.0822 11.9035 11.0337 11.9788C10.9359 12.0512 10.822 12.0386 10.7116 12.0386C7.9234 12.0386 5.1352 12.0386 2.347 12.0386C2.22709 12.0398 2.10421 12.0548 2.00638 11.9621Z" fill="#2A2FAE"/>
<path d="M2.32568 14.4764L3.04152 14.4728H21.3873C21.484 14.4728 21.5806 14.4728 21.6773 14.4758C21.4544 15.3532 21.1122 16.1957 20.6602 16.9795C20.5522 17.0692 20.4215 17.0506 20.2969 17.0506C19.0561 17.0506 17.8149 17.0506 16.5733 17.0506C12.3069 17.0506 8.04048 17.0506 3.77407 17.0506C3.62672 17.0506 3.4758 17.0734 3.34218 16.9801C2.89027 16.1963 2.54823 15.3538 2.32568 14.4764Z" fill="#E82B2B"/>
<path d="M21.9982 11.962C21.0394 11.962 20.0808 11.9636 19.1223 11.9668C16.5059 11.9668 13.8897 11.9668 11.2737 11.9668C11.1848 11.9668 11.0948 11.9626 11.0071 11.9602C11.0107 11.1271 11.0144 10.2943 11.0184 9.46195C11.1049 9.38601 11.2105 9.389 11.3167 9.389C14.6764 9.389 18.0356 9.389 21.3945 9.389C21.4983 9.389 21.6051 9.38541 21.6886 9.46554C21.894 10.2817 21.998 11.1203 21.9982 11.962Z" fill="#E82B2B"/>
<path d="M5.43127 19.531C5.48138 19.4443 5.5649 19.4868 5.63171 19.4868C9.87903 19.4844 14.1262 19.4844 18.3731 19.4868C18.4399 19.4868 18.5234 19.4443 18.5741 19.531C17.7891 20.1858 16.9533 20.7664 16.0019 21.1485C12.2198 22.6677 8.7319 22.1547 5.53805 19.6094C5.50346 19.5801 5.46647 19.5573 5.43127 19.531Z" fill="#E82B2B"/>
<path d="M20.6542 6.94335C20.5582 6.94754 20.4616 6.95531 20.3655 6.95531H11.0184C11.0184 6.11817 11.0184 5.28282 11.0184 4.44926C13.4909 4.44926 15.9633 4.44926 18.4357 4.44926C18.4936 4.44618 18.5516 4.45522 18.6058 4.47581C18.66 4.4964 18.7094 4.52809 18.7507 4.56885C19.4984 5.2621 20.1398 6.06223 20.6542 6.94335Z" fill="#E82B2B"/>
<path d="M2.27443 9.63954C2.77313 9.67064 2.77254 9.67064 2.93062 9.20602C2.9515 9.14324 2.97416 9.08165 3.01055 8.9776C3.07379 9.17014 3.13284 9.32023 3.17042 9.4751C3.20502 9.61622 3.2772 9.66406 3.42037 9.6515C3.57368 9.63775 3.72938 9.6515 3.91967 9.6515C3.78366 9.80697 3.62976 9.89308 3.49136 9.98875C3.39412 10.0563 3.37205 10.1185 3.4156 10.2279C3.47525 10.3846 3.51999 10.5484 3.58859 10.7661C3.40128 10.6304 3.25573 10.5335 3.12151 10.4235C3.0368 10.3541 2.97655 10.3601 2.89125 10.4235C2.75882 10.5239 2.63295 10.6393 2.43669 10.7224C2.47262 10.5842 2.51685 10.4482 2.56912 10.3152C2.65502 10.1359 2.61982 10.0103 2.43728 9.92357C2.37974 9.89011 2.32506 9.85191 2.27383 9.80936C2.28636 9.75615 2.19092 9.69695 2.27443 9.63954Z" fill="#F9F9FA"/>
<path d="M6.47759 3.60315C6.60405 3.69105 6.7508 3.60315 6.91544 3.66653C6.77526 3.76938 6.65416 3.87223 6.52054 3.95355C6.40123 4.0271 6.36067 4.10304 6.42032 4.24117C6.47997 4.3793 6.51696 4.53417 6.58437 4.74645C6.39586 4.61191 6.25448 4.51743 6.12086 4.41279C6.10591 4.3969 6.08789 4.38424 6.06788 4.37558C6.04788 4.36693 6.02632 4.36247 6.00454 4.36247C5.98275 4.36247 5.96119 4.36693 5.94119 4.37558C5.92118 4.38424 5.90316 4.3969 5.88821 4.41279C5.75817 4.52102 5.6144 4.6155 5.4599 4.72791C5.43544 4.58261 5.53984 4.48155 5.53089 4.36077C5.74385 4.10544 6.0457 3.95953 6.29505 3.74845C6.3547 3.70002 6.39049 3.61451 6.47759 3.60315Z" fill="#F9F9FA"/>
<path d="M3.38037 7.1335C3.44002 7.31289 3.50265 7.49227 3.57543 7.70874C3.36128 7.64296 3.25032 7.47673 3.07971 7.41633C3.17695 7.32903 3.19902 7.19987 3.2539 7.08985C3.33861 6.97982 3.3565 7.06533 3.38037 7.1335Z" fill="#F5F5F8"/>
<path d="M3.38037 7.13349C3.34518 7.09761 3.31654 7.0438 3.25391 7.08984C3.34697 6.93836 3.44022 6.78707 3.53368 6.63599H3.92501C3.79377 6.79265 3.63986 6.8662 3.5134 6.97144C3.45852 7.01689 3.3756 7.03961 3.38037 7.13349Z" fill="#F4F3F7"/>
<path d="M21.9994 12.8147C21.9057 12.6593 21.9767 12.4895 21.957 12.3274C21.9705 12.3051 21.9843 12.3051 21.9982 12.3274C21.9988 12.4901 21.9988 12.6521 21.9994 12.8147Z" fill="#F7D1D1"/>
<path d="M2.04831 12.3716V12.7693C1.95943 12.6449 2.02385 12.5038 2.00655 12.3716C2.02027 12.3507 2.03399 12.3495 2.04831 12.3716Z" fill="#F7CFCF"/>
<path d="M4.59192 18.679C4.67722 18.7334 4.76133 18.7896 4.77088 18.9044C4.68975 18.847 4.60504 18.7914 4.59192 18.679Z" fill="#F9E3E3"/>
<path d="M19.2327 18.9044C19.244 18.7896 19.3275 18.734 19.4116 18.679C19.4003 18.792 19.3156 18.8476 19.2327 18.9044Z" fill="#F9E4E4"/>
<path d="M5.0835 19.2159C5.19743 19.2272 5.25351 19.3104 5.30779 19.3953C5.19564 19.3833 5.14017 19.2984 5.0835 19.2159Z" fill="#F9E4E4"/>
<path d="M18.697 19.3965C18.7519 19.311 18.808 19.2273 18.9219 19.2171C18.8652 19.2984 18.8098 19.3839 18.697 19.3965Z" fill="#FAE5E5"/>
<path d="M2.05072 12.9553C2.08327 12.9994 2.10084 13.0528 2.10084 13.1077C2.10084 13.1626 2.08327 13.2161 2.05072 13.2602C2.05132 13.1586 2.05072 13.0569 2.05072 12.9553Z" fill="#F8D5D5"/>
<path d="M21.9123 13.2608C21.9278 13.1592 21.8687 13.0467 21.9546 12.9547C21.9397 13.0569 21.9964 13.1687 21.9123 13.2608Z" fill="#F8D5D5"/>
<path d="M21.9982 12.3274H21.9571C21.969 12.2371 21.9195 12.1367 22 12.0571L21.9982 12.3274Z" fill="#F9ECEC"/>
<path d="M2.04835 12.3716H2.00659V12.1019C2.08533 12.1815 2.03642 12.2813 2.04835 12.3716Z" fill="#F9E9E9"/>
<path d="M2.09424 13.3559C2.10979 13.3694 2.12225 13.3861 2.1308 13.4049C2.13934 13.4237 2.14376 13.4441 2.14376 13.4647C2.14376 13.4854 2.13934 13.5058 2.1308 13.5245C2.12225 13.5433 2.10979 13.56 2.09424 13.5736V13.3559Z" fill="#F8D1D1"/>
<path d="M21.8676 13.5729C21.8771 13.5 21.8354 13.4162 21.9105 13.3564C21.8998 13.4294 21.9421 13.5125 21.8676 13.5729Z" fill="#F7CDCD"/>
<path d="M8.42348 10.7643C8.48313 10.5712 8.51952 10.4121 8.58216 10.2638C8.64181 10.1287 8.61557 10.0456 8.49208 9.96844C8.35159 9.88216 8.22556 9.7742 8.11865 9.64853H8.4205C8.77842 9.64853 8.77842 9.64853 8.89355 9.29574C8.92278 9.20604 8.9532 9.11635 8.99198 9.00812C9.09816 9.16957 9.1256 9.34058 9.17571 9.49964C9.2115 9.61206 9.26042 9.65691 9.37794 9.65033C9.55244 9.63905 9.72764 9.65315 9.89811 9.69219C9.75852 9.79503 9.62251 9.90327 9.47756 9.99774C9.38569 10.0575 9.37376 10.1173 9.40776 10.2184C9.45966 10.3769 9.54198 10.5299 9.54318 10.7087C9.32246 10.6358 9.18883 10.3535 8.97885 10.39C8.79035 10.4229 8.62988 10.6172 8.42348 10.7643Z" fill="#F9F9FA"/>
<path d="M6.90051 9.69216C6.77226 9.78664 6.64937 9.89068 6.51336 9.972C6.37735 10.0533 6.37079 10.1335 6.42329 10.2638C6.48294 10.4133 6.5241 10.5706 6.57123 10.7195C6.51157 10.7529 6.50561 10.7141 6.48592 10.6991C6.34216 10.5939 6.21211 10.4456 6.05164 10.3936C5.86553 10.3338 5.76471 10.5574 5.61319 10.6327C5.59266 10.6478 5.56904 10.658 5.54406 10.6626C5.51908 10.6673 5.49337 10.6663 5.46883 10.6597C5.46466 10.6483 5.45511 10.6351 5.45869 10.6268C5.65495 10.097 5.65495 10.0976 5.21113 9.76571C5.17713 9.73999 5.14551 9.71069 5.06915 9.64611C5.29226 9.64611 5.46585 9.64014 5.63884 9.64611C5.66017 9.65031 5.68213 9.6501 5.70338 9.64549C5.72462 9.64089 5.74471 9.63199 5.76241 9.61934C5.78011 9.60669 5.79505 9.59056 5.80632 9.57193C5.81758 9.5533 5.82494 9.53256 5.82794 9.51098C5.87268 9.34713 5.93114 9.18628 5.99199 8.99792C6.07673 9.14849 6.13713 9.31156 6.17095 9.48108C6.20674 9.61562 6.27534 9.65568 6.40956 9.64671C6.56824 9.63595 6.72871 9.64671 6.88679 9.64671L6.90051 9.69216Z" fill="#F9F9FA"/>
<path d="M5.42349 7.76313C5.49328 7.53949 5.53385 7.37565 5.59589 7.22018C5.64122 7.10717 5.61259 7.04079 5.51714 6.981C5.37696 6.88772 5.24393 6.78427 5.05304 6.64554C5.28211 6.64554 5.44854 6.63717 5.61438 6.64554C5.73846 6.65391 5.80229 6.61624 5.8339 6.49187C5.87745 6.32803 5.9371 6.16777 6.00213 5.96387C6.07311 6.17315 6.13814 6.34357 6.18645 6.51877C6.18866 6.53871 6.19494 6.55797 6.20491 6.57536C6.21487 6.59275 6.22831 6.60789 6.24438 6.61984C6.26044 6.6318 6.27879 6.6403 6.29828 6.64483C6.31778 6.64935 6.33799 6.6498 6.35766 6.64614C6.53662 6.63956 6.70961 6.64614 6.95061 6.64614C6.77225 6.7747 6.65294 6.87815 6.51992 6.96306C6.40061 7.03721 6.36184 7.11375 6.42089 7.25128C6.47995 7.38881 6.51753 7.54368 6.58613 7.75835C6.39763 7.62381 6.25864 7.53411 6.13098 7.43007C6.0409 7.35592 5.9729 7.35173 5.88103 7.43007C5.75218 7.53232 5.6114 7.6256 5.42349 7.76313Z" fill="#F9F9FA"/>
<path d="M9.53723 7.70277C9.51994 7.69858 9.50144 7.69918 9.49249 7.69081C9.199 7.40199 8.90014 7.26566 8.57503 7.64835C8.55855 7.66419 8.53707 7.67376 8.5143 7.6754C8.49153 7.67704 8.46891 7.67064 8.45035 7.65732C8.45088 7.6456 8.45268 7.63397 8.45572 7.62264C8.65914 7.09882 8.65914 7.09882 8.20935 6.75978C8.17475 6.73407 8.14194 6.70656 8.06439 6.64437C8.27079 6.64437 8.43066 6.63122 8.58696 6.64796C8.74325 6.66471 8.80887 6.59773 8.84287 6.45303C8.87687 6.30832 8.93354 6.17079 8.98604 6.01532C9.08924 6.12116 9.1125 6.2545 9.13577 6.3741C9.18051 6.60013 9.29266 6.68324 9.51874 6.64617C9.64563 6.63676 9.77304 6.63676 9.89993 6.64617C9.84027 6.76576 9.73588 6.80403 9.65475 6.86562C9.36842 7.08148 9.36901 7.07849 9.47877 7.4283C9.50681 7.51501 9.56766 7.59932 9.53723 7.70277Z" fill="#F9F9FA"/>
<path d="M8.45511 4.73206C8.44949 4.71395 8.4457 4.69532 8.44378 4.67645C8.49031 4.46836 8.67464 4.2513 8.59172 4.06772C8.51596 3.90089 8.28212 3.80582 8.06915 3.64138C8.27973 3.64138 8.44437 3.63061 8.60603 3.64496C8.74622 3.65692 8.80229 3.59832 8.8351 3.47215C8.87626 3.31429 8.93353 3.16121 8.98961 2.9884C9.09698 3.16062 9.128 3.34718 9.18527 3.5176C9.19185 3.55748 9.21396 3.5931 9.24673 3.61665C9.2795 3.6402 9.32027 3.64974 9.36005 3.64317C9.53424 3.63659 9.70843 3.64317 9.9029 3.64317C9.74243 3.83272 9.47339 3.89192 9.40479 4.07191C9.33619 4.25189 9.5241 4.46656 9.55572 4.72967C9.39346 4.61007 9.25745 4.52337 9.13039 4.42172C9.04031 4.34936 8.96932 4.34458 8.87746 4.42172C8.74741 4.52755 8.60544 4.62203 8.45511 4.73206Z" fill="#F9F9FA"/>
</g>
<defs>
<clipPath id="clip0_108_235">
<rect width="20" height="20" fill="white" transform="translate(2 2)"/>
</clipPath>
</defs>
</svg>
