<?xml version="1.0" encoding="utf-8"?>
<!-- Generator: Adobe Illustrator 17.0.0, SVG Export Plug-In . SVG Version: 6.00 Build 0)  -->
<!DOCTYPE svg PUBLIC "-//W3C//DTD SVG 1.1//EN" "http://www.w3.org/Graphics/SVG/1.1/DTD/svg11.dtd">
<svg version="1.1" id="Layer_1" xmlns="http://www.w3.org/2000/svg" xmlns:xlink="http://www.w3.org/1999/xlink" x="0px" y="0px"
	 width="368.64px" height="112.323px" viewBox="61.44 189.598 368.64 112.323"
	 enable-background="new 61.44 189.598 368.64 112.323" xml:space="preserve">
<g id="Layer_x0020_1">
	<g id="_380519952">
		<path id="_380520792" fill="#006CB5" d="M199.353,191.571l-46.698,108.604l-31.396,0.038L94.67,209.246l-2.154-6.854l0.178,0.097
			l0.292,0.162l-0.287-0.149l-0.003-0.011c0.139,0.075,0.277,0.152,0.416,0.227c4.783,2.534,26.02,14.644,39.15,34.261
			c1.999,9.977,3.913,19.04,6.615,28.816l29.05-74.224L199.353,191.571L199.353,191.571z"/>
		<path id="_380520192" fill="#006CB5" d="M325.681,264.717c-0.219,22.607-20.442,37.204-51.62,37.204
			c-13.289-0.143-26.105-2.757-33.064-5.808l4.167-24.358l3.832,1.754c9.762,4.062,16.056,5.692,27.934,5.692
			c8.535,0,17.659-3.346,17.723-10.651c0.038-4.767-3.832-8.151-15.378-13.481c-11.24-5.216-26.142-13.929-25.953-29.566
			c0.143-21.156,20.815-35.904,50.122-35.904c11.478,0,20.67,2.346,26.561,4.576l-4.022,23.577l-2.689-1.267
			c-5.435-2.192-12.472-4.319-22.196-4.167c-11.583,0-16.981,4.846-16.981,9.384c-0.038,5.062,6.294,8.456,16.648,13.48
			C317.9,242.932,325.832,252.353,325.681,264.717L325.681,264.717z"/>
		<path id="_380520096" fill="#006CB5" d="M406.092,191.571H383.19c-7.11,0-12.44,1.935-15.529,9.048l-44.058,99.699h31.129
			c0,0,5.1-13.405,6.264-16.351c3.384,0,33.664,0.076,37.983,0.076c0.859,3.805,3.576,16.275,3.576,16.275h27.526L406.092,191.571
			L406.092,191.571z M369.517,261.733c5.33-13.538,10.675-27.172,15.751-40.815c2.919,13.613,5.904,27.211,8.867,40.815H369.517
			L369.517,261.733z"/>
		<polygon id="_380520432" fill="#006CB5" points="211.347,191.457 240.997,191.457 222.444,300.281 192.802,300.281 		"/>
		<path id="_380520408" fill="#FAA841" d="M61.44,190.498l50.17,0.035c6.186,0.219,11.172,2.191,12.927,8.818l7.725,37.628
			c-13.13-19.618-34.366-31.727-39.15-34.261c-0.139-0.076-0.276-0.152-0.416-0.227l0.003,0.011l0.287,0.149l-0.292-0.162
			c-0.8-0.439-1.608-0.87-2.424-1.293C81.506,196.649,71.815,193.002,61.44,190.498L61.44,190.498z"/>
	</g>
</g>
<rect x="0" y="0" fill="none" width="491.52" height="491.52"/>
</svg>
